<ttFont>
          <CharString index="0">
            201 64 rmoveto
            -31 -12 15 30 32 14 26 47 2 hvcurveto
            40 3 rlineto
            -90 vlineto
            -11 -16 -20 -7 -22 hhcurveto
            -56 -72 rmoveto
            51 43 17 33 28 hvcurveto
            -36 16 30 -13 42 hhcurveto
            29 37 9 5 20 hvcurveto
            49 vlineto
            -36 5 rlineto
            -12 1 -7 6 15 vvcurveto
            180 vlineto
            106 -49 55 -118 -99 -60 -39 -63 -24 vhcurveto
            30 -26 rlineto
            29 32 38 14 44 hhcurveto
            51 28 -19 -59 hvcurveto
            -41 vlineto
            -74 -4 rlineto
            -85 -5 -76 -39 -78 vvcurveto
            -62 47 -40 74 vhcurveto
            return
          </CharString>
          <CharString index="1">
            472 413 rmoveto
            -95 callgsubr
            456 vlineto
            9 59 5 53 59 vvcurveto
            -65 10 -31 -90 -5 -13 -4 -6 -10 -5 rlinecurve
            -5 -13 -29 -3 -24 hhcurveto
            -77 197 hlineto
            156 -4 rlineto
            75 vlineto
            -156 -6 rlineto
            191 61 vlineto
            28 callsubr
            return
          </CharString>
          <CharString index="2">
            380 568 rmoveto
            -55 47 callsubr
            11 -2 5 -7 -12 vvcurveto
            -278 vlineto
            -93 -28 -65 -89 -85 -30 59 99 vhcurveto
            277 vlineto
            11 6 8 11 2 vhcurveto
            58 12 rlineto
            55 -269 -55 vlineto
            36 -10 rlineto
            10 -3 6 -7 -11 vvcurveto
            -267 vlineto
            -159 77 -65 158 137 87 59 160 vhcurveto
            -68 callsubr
            vlineto
            return
          </CharString>
          <CharString index="3">
            57 -11 -3 callgsubr
            -12 vvcurveto
            -398 -57 callgsubr
            return
          </CharString>
          <CharString index="4">
            317 568 rmoveto
            -285 -55 hlineto
            -104 callsubr
            285 52 vlineto
            -56 11 rlineto
            -12 1 callsubr
            397 vlineto
            12 5 7 12 2 vhcurveto
            56 11 rlineto
            return
          </CharString>
          <CharString index="5">
            hmoveto
            -62 callgsubr
            -55 -45 -18 -37 -35 vhcurveto
            -7 40 -19 16 -49 -1 -59 -7 -51 -75 callgsubr
            -10 -2 vhcurveto
            -40 -15 callgsubr
            -24 7 rlineto
            -10 4 -6 -15 callsubr
            22 6 20 hhcurveto
            43 19 -25 -68 hvcurveto
            -172 vlineto
            -12 -5 28 callgsubr
            -25 -44 callgsubr
            vlineto
            return
          </CharString>
          <CharString index="6">
            449 161 rmoveto
            90 -70 49 -83 43 vhcurveto
            -76 38 -45 23 56 vvcurveto
            40 26 27 43 21 23 -7 -9 13 vhcurveto
            9 -7 4 -8 3 -15 15 -82 rcurveline
            76 hlineto
            8 47 4 55 -4 48 rrcurveto
            18 -44 -63 12 -58 hhcurveto
            -138 -68 -72 -95 -96 70 -37 76 -40 hvcurveto
            66 -34 55 -30 -62 vvcurveto
            -43 -28 -29 -48 -33 -30 15 13 -14 vhcurveto
            -10 8 -4 8 -2 12 -14 94 rcurveline
            -78 hlineto
            -8 -43 -5 -64 3 -53 rrcurveto
            return
          </CharString>
          <CharString index="7">
            8 54 1 53 -3 45 -80 6 rcurveline
            -25 -84 -5 -15 -5 -7 -6 -6 rlinecurve
            -15 -16 -24 -7 -24 hhcurveto
            -83 -36 84 159 172 43 66 73 23 22 -7 -9 13 hvcurveto
            13 -8 4 -12 3 -9 21 -95 rcurveline
            81 hlineto
            10 61 2 55 -4 48 rrcurveto
            20 -53 -66 11 -58 hhcurveto
            -170 -112 -96 -211 return
          </CharString>
          <CharString index="8">
            -47 20 -42 15 38 vvcurveto
            28 22 17 31 vhcurveto
            15 -1 14 -3 13 -8 10 -6 4 -6 4 -14 16 -51 rcurveline
            61 hlineto
            7 36 2 42 -3 35 rrcurveto
            15 -38 -57 10 -48 hhcurveto
            -120 -55 -53 -75 -63 41 -32 61 -30 hvcurveto
            62 -31 49 -14 -39 vvcurveto
            -26 -20 -22 -36 vhcurveto
            return
          </CharString>
          <CharString index="9">
            29 202 rmoveto
            -119 59 -92 135 88 58 39 53 18 vhcurveto
            -28 22 rlineto
            -15 -18 -32 -19 -43 hhcurveto
            -70 -26 50 99 107 30 40 38 15 12 -6 -7 8 hvcurveto
            7 -6 4 -8 4 -17 21 -73 rcurveline
            64 hlineto
            8 45 4 49 -4 49 rrcurveto
            18 -33 -55 14 -52 hhcurveto
            -123 -89 -77 -146 hvcurveto
            return
          </CharString>
          <CharString index="10">
            394 93 rmoveto
            -4 -13 -7 -7 -10 -4 rrcurveto
            -5 -13 -23 -4 -30 hhcurveto
            -63 421 hlineto
            11 -14 callgsubr
            75 12 rlineto
            55 -304 52 callsubr
            -399 -57 callgsubr
            452 vlineto
            15 70 0 69 62 vvcurveto
            -69 9 rlineto
            return
          </CharString>
          <CharString index="11">
            hstem
            5 243 56 165 vstem
            18 -117 rmoveto
            -61 vlineto
            -6 29 38 -4 33 hhcurveto
            86 53 59 122 43 hvcurveto
            120 342 4 11 6 4 11 4 rlinecurve
            28 9 rlineto
            51 -165 -53 vlineto
            51 -11 -78 -245 -83 244 54 12 rlineto
            52 vlineto
            -243 1 rlineto
            -51 vlineto
            28 -9 11 -3 7 -6 4 -10 rlinecurve
            129 -335 rlineto
            53 hlineto
            -45 -83 -62 -17 -112 -17 rrcurveto
            return
          </CharString>
          <CharString index="12">
            rmoveto
            37 -24 25 -37 -37 -24 -25 -37 -39 15 callgsubr
            24 24 39 vhcurveto
            196 hmoveto
            37 -24 25 -37 -37 -24 -25 -37 -39 15 callgsubr
            24 24 39 vhcurveto
            return
          </CharString>
          <CharString index="13">
            rmoveto
            74 40 72 51 37 46 -72 67 rcurveline
            -144 -164 rlineto
            endchar
          </CharString>
          <CharString index="14">
            rmoveto
            -10 callgsubr
            45 -9 -54 callgsubr
            5 -8 -11 vvcurveto
            -290 vlineto
            -85 -23 -43 -85 -42 vhcurveto
            23 -55 58 15 56 19 39 32 rlinecurve
            41 33 21 45 88 vvcurveto
            372 vlineto
            return
          </CharString>
          <CharString index="15">
            58 vstem
            21 47 rmoveto
            22 -47 rlineto
            350 hlineto
            6 48 1 50 -5 49 -58 6 rcurveline
            -26 -80 -3 -10 -7 -4 -12 -2 rlinecurve
            -4 -18 -26 -1 -22 hhcurveto
            -45 hlineto
            226 315 -20 47 rlineto
            -339 hlineto
            -4 -45 3 -54 7 -48 rrcurveto
            59 hlineto
            18 73 4 14 7 3 11 2 rlinecurve
            2 14 21 1 18 hhcurveto
            48 hlineto
            return
          </CharString>
          <CharString index="16">
            39 vlineto
            65 29 11 45 1 vhcurveto
            16 1 32 -5 27 -6 28 74 rcurveline
            21 -31 -37 17 -39 hhcurveto
            -97 -94 -107 -102 -4 hvcurveto
            -1 -9 -64 -11 -83 callsubr
            vlineto
            return
          </CharString>
          <CharString index="17">
            188 -6 125 -104 -21 356 64 -51 51 hstemhm
            4 221 287 165 hintmask 01011100
            162 -6 rmoveto
            104 hlineto
            75 276 84 -276 rlineto
            102 hlineto
            104 342 4 11 6 4 10 3 rlinecurve
            26 9 rlineto
            51 -165 -53 vlineto
            hintmask 10101100
            53 -11 -61 -230 rlineto
            hintmask 10011100
            -82 294 rlineto
            -105 hlineto
            -78 -295 rlineto
            hintmask 01101100
            -64 231 rlineto
            hintmask 01011100
            50 11 rlineto
            53 -221 -51 vlineto
            27 -9 10 -3 5 -4 3 -10 rlinecurve
            return
          </CharString>
          <CharString index="18">
            -11 -81 callgsubr
            return
          </CharString>
          <CharString index="19">
            156 -9 80 -79 72 106.5 48 6.5 48 66 85 -53 53 hstemhm
            -2 callgsubr
            117 120 hintmask 1001011110000000
            620 91 rmoveto
            -29 21 rlineto
            -28 -24 -41 -13 -38 hhcurveto
            -70 -31 43 111 -1 hvcurveto
            231 hlineto
            3 17 3 23 18 vvcurveto
            82 -51 59 -112 -58 -45 -16 -29 -33 vhcurveto
            29 -23 -37 16 -55 hhcurveto
            -84 -65 -37 -65 -24 hvcurveto
            hintmask 0110101110000000
            30 -26 rlineto
            29 31 40 14 40 hhcurveto
            51 31 -21 -57 hvcurveto
            -40 vlineto
            -74 -5 rlineto
            -85 -4 -76 -40 -79 vvcurveto
            -61 45 -40 80 64 52 26 43 30 vhcurveto
            hintmask 1001011110000000
            -45 31 50 -25 72 hhcurveto
            80 71 31 69 21 hvcurveto
            -171 280 rmoveto
            37 17 -35 -46 hvcurveto
            -17 -115 vlineto
            73 6 24 25 31 hhcurveto
            hintmask 0110011110000000
            -248 -307 rmoveto
            -31 -12 15 30 31 13 27 48 2 hvcurveto
            41 3 2 -29 6 -26 9 -23 rlinecurve
            -18 -23 -26 -12 -27 hhcurveto
            return
          </CharString>
          <CharString index="20">
            rmoveto
            40 -28 25 -43 -44 -28 -25 -40 -40 28 -26 44 43 28 26 40 vhcurveto
            return
          </CharString>
          <CharString index="21">
            rlineto
            -216 -55 hlineto
            -104 callsubr
            233 52 vlineto
            -66 11 rlineto
            -11 2 -6 7 return
          </CharString>
          <CharString index="22">
            rmoveto
            -61 11 -43 -35 -51 -26 -47 -11 rlinecurve
            11 -49 33 2 34 5 28 9 rlinecurve
            -184 vlineto
            -12 -5 -4 -12 -2 vhcurveto
            -80 -12 rlineto
            -51 282 51 vlineto
            -73 12 rlineto
            -12 2 -4 4 12 vvcurveto
            return
          </CharString>
          <CharString index="23">
            284 0 59 140 62 -10 69 186 62 -56 56 hstemhm
            -7 222 149 131 163 65 hintmask 11001010
            740 hmoveto
            9 59 4 53 59 vvcurveto
            -64 10 -32 -90 -4 -13 -4 -6 -11 -5 rlinecurve
            -5 -13 -29 -3 -24 hhcurveto
            -77 hlineto
            hintmask 10101111
            194 vlineto
            157 -4 rlineto
            74 vlineto
            -157 -6 rlineto
            195 62 vlineto
            24 24 -4 -4 12 hvcurveto
            11 -5 7 -6 4 -13 19 -67 rcurveline
            65 hlineto
            4 53 0 51 -6 51 rrcurveto
            -566 -55 hlineto
            93 -15 -181 -417 -4 -9 -6 -5 -9 -3 rlinecurve
            -55 -12 rlineto
            -52 222 52 vlineto
            -72 11 rlineto
            hintmask 11010110
            57 136 rlineto
            164 -116 hlineto
            -51 callgsubr
            vlineto
            39 506 rmoveto
            35 -245 -138 hlineto
            return
          </CharString>
          <CharString index="24">
            rlineto
            -50 47 callsubr
            -262 vlineto
            -12 0 callgsubr
            -54 callsubr
            return
          </CharString>
          <CharString index="25">
            196 408 rmoveto
            -21 16 -46 -1 -57 -7 -47 -13 rlinecurve
            -48 callgsubr
            267 52 vlineto
            -61 7 rlineto
            -12 2 -6 7 12 vvcurveto
            return
          </CharString>
          <CharString index="26">
            119 -6 57 -51 51 208 61 199 53 -4 -20 37 callsubr
            186 150 hintmask 10110110
            37 259 rmoveto
            69 hlineto
            hintmask 01110110
            -178 vlineto
            -9 -6 -7 -9 45 callsubr
            142 vlineto
            28 58 -5 -1 34 hvcurveto
            hintmask 10110110
            180 -3 105 110 202 vvcurveto
            187 -92 82 -185 vhcurveto
            hintmask 10101110
            -42 -38 -4 -50 hhcurveto
            -140 -55 hlineto
            59 -12 rlineto
            8 -1 6 -7 -9 vvcurveto
            -164 -69 vlineto
            207 -261 rmoveto
            200 93 61 -93 vlineto
            hintmask 10110110
            192 vlineto
            1 5 20 6 24 hhcurveto
            99 38 -88 -149 -175 -50 -55 -84 -1 hvcurveto
            hintmask 10101110
            -17 -22 2 6 -13 hvcurveto
            endchar
          </CharString>
          <CharString index="27">
            37 0 19 callsubr
            214 -20 38 -20 hstemhm
            75 131 125 131 hintmask 11011100
            247 hmoveto
            52 vlineto
            -25 7 rlineto
            -11 4 -5 -15 callsubr
            22 6 20 hhcurveto
            44 19 -25 -68 hvcurveto
            -172 vlineto
            -12 -6 28 callgsubr
            -24 -7 rlineto
            -52 228 -77 callsubr
            186 vlineto
            100 -29 57 -98 46 callsubr
            hintmask 11101100
            262 vlineto
            hintmask 11011100
            -18 18 rlineto
            -52 -73 -6 -14 -52 hvcurveto
            -51 vlineto
            47 -8 rlineto
            11 -1 6 -8 -11 vvcurveto
            -476 vlineto
            -12 -7 -73 callsubr
            -54 callsubr
            vlineto
            return
          </CharString>
          <CharString index="28">
            -8 71 306 56 -5 -20 238 -20 37 -20 hstemhm
            30 138 131 131 hintmask 11001110
            240 63 rmoveto
            -47 -25 41 106 hvcurveto
            122 1 33 37 53 hhcurveto
            15 17 -3 -6 12 hvcurveto
            -283 vlineto
            -9 -18 -22 -5 -19 hhcurveto
            -46 -71 rmoveto
            49 38 19 31 28 hvcurveto
            -33 16 29 -16 42 hhcurveto
            32 39 9 5 17 hvcurveto
            49 vlineto
            -36 5 rlineto
            -11 1 -7 5 16 vvcurveto
            hintmask 11010110
            555 vlineto
            hintmask 10101110
            -18 17 -52 -1 -73 -9 -53 -14 rlinecurve
            -51 vlineto
            48 -7 -3 callgsubr
            -12 vvcurveto
            -132 vlineto
            hintmask 11001110
            3 -16 -20 2 -18 hhcurveto
            -138 -77 -81 -149 -142 69 -61 95 hvcurveto
            return
          </CharString>
          <CharString index="29">
            55.5 return
          </CharString>
          <CharString index="30">
            52 vlineto
            -39 -91 callgsubr
            return
          </CharString>
          <CharString index="31">
            -38 callsubr
            hstemhm
            323 259 62 203 hintmask 00101110
            -71 callgsubr
            hintmask 01011110
            12 callgsubr
            hintmask 10001110
            -59 callgsubr
            hintmask 00111110
            -101 387 rlineto
            hintmask 00101110
            -66 callsubr
            return
          </CharString>
          <CharString index="32">
            -86 -44 callsubr
            56 callsubr
            172 -12 -20 31 -20 21 -20 45 callgsubr
            hintmask 10010100
            -82 callsubr
            hintmask 11000100
            -40 callgsubr
            hintmask 10100100
            12 54 4 64 -5 42 rrcurveto
            hintmask 10001100
            -13 callgsubr
            return
          </CharString>
          <CharString index="33">
            41 -28 26 -45 -44 -29 -26 -41 -41 29 -26 44 45 28 26 41 vhcurveto
            return
          </CharString>
          <CharString index="34">
            -7 -11 -2 vhcurveto
            return
          </CharString>
          <CharString index="35">
            rmoveto
            55 -35 40 -74 -65 -52 -36 -57 -60 39 -36 73 63 51 36 58 vhcurveto
            -156 2 rmoveto
            30 15 14 28 29 14 -20 -28 -30 -15 -13 -28 -29 -14 21 26 vhcurveto
            endchar
          </CharString>
          <CharString index="36">
            655 568 rmoveto
            -270 -55 hlineto
            42 -11 rlineto
            10 -3 6 -7 -11 vvcurveto
            -159 -199 159 vlineto
            12 5 7 11 2 vhcurveto
            46 11 rlineto
            55 -274 -55 vlineto
            -104 callsubr
            274 52 vlineto
            -46 11 rlineto
            -11 2 -5 7 11 vvcurveto
            172 199 -172 vlineto
            -11 -6 -6 -11 -3 vhcurveto
            -40 -11 rlineto
            -52 269 52 vlineto
            -57 7 callsubr
            398 vlineto
            11 6 8 10 2 vhcurveto
            58 11 rlineto
            return
          </CharString>
          <CharString index="37">
            -41 -8 72 106.5 47.5 121 85 return
          </CharString>
          <CharString index="38">
            121 rmoveto
            -84 79 -49 121 vhcurveto
            hintmask 11100100
            128 82 55 92 76 -56 39 -59 31 hvcurveto
            hintmask 11011000
            52 20 36 41 52 vvcurveto
            72 -70 47 -104 -114 -70 -56 -84 -59 35 -38 40 -27 vhcurveto
            hintmask 11101000
            -61 -21 -39 -47 -60 vvcurveto
            hintmask 11011000
            144 283 rmoveto
            34 23 21 36 39 28 -25 -50 -22 -6 -31 -25 -23 vhcurveto
            -54 27 -41 25 44 vvcurveto
            hintmask 11100100
            61 -360 rmoveto
            -46 -43 29 59 33 14 31 25 22 hvcurveto
            1 -1 rlineto
            65 -34 54 -24 -51 vvcurveto
            -34 -24 -30 -46 vhcurveto
            endchar
          </CharString>
          <CharString index="39">
            272 vlineto
            11 5 7 11 3 vhcurveto
            40 10 rlineto
            55 return
          </CharString>
          <CharString index="40">
            3 -10 -15 4 -13 hhcurveto
            -25 -26 -15 -26 -18 hvcurveto
            27 -30 -47 13 -61 hhcurveto
            -127 -67 -56 -94 -52 21 -46 57 -23 hvcurveto
            return
          </CharString>
          <CharString index="41">
            63 13 rlineto
            55 -266 -55 vlineto
            48 -11 9 -2 6 -7 3 -9 rlinecurve
            149 -486 rlineto
            123 hlineto
            89 331 rlineto
            return
          </CharString>
          <CharString index="42">
            294 hmoveto
            52 vlineto
            -62 8 rlineto
            -12 1 35 callgsubr
            264 return
          </CharString>
          <CharString index="43">
            rmoveto
            hintmask 11100110
            -38 22 rlineto
            -27 -16 -19 -20 -22 hhcurveto
            hintmask 11010110
            -63 callgsubr
            hintmask 11100110
            35 32 -52 54 hhcurveto
            hintmask 11001110
            57 38 53 59 15 hvcurveto
            endchar
          </CharString>
          <CharString index="44">
            135 267 4 8 7 4 9 3 rlinecurve
            42 10 rlineto
            55 -203 -55 vlineto
            64 -14 -95 -197 rlineto
            return
          </CharString>
          <CharString index="45">
            rmoveto
            47 38 55 67 29 49 -80 46 rcurveline
            -92 -168 rlineto
            199 -32 rmoveto
            48 36 59 65 31 48 -77 49 rcurveline
            -101 -164 rlineto
            endchar
          </CharString>
          <CharString index="46">
            -52 -35 -4 -42 hhcurveto
            -139 -55 hlineto
            57 -11 -3 callgsubr
            -11 vvcurveto
            -399 -57 callgsubr
            vlineto
            return
          </CharString>
          <CharString index="47">
            23 0 60 321 188 -55 55 hstemhm
            18 466 hintmask 10110000
            -72 callgsubr
            hintmask 11010000
            -11 -58 -4 -68 3 -62 rrcurveto
            76 hlineto
            hintmask 10110000
            -45 callsubr
            return
          </CharString>
          <CharString index="48">
            -25 -20 10 7 -10 hvcurveto
            -9 7 -3 7 -5 15 -15 54 rcurveline
            -66 hlineto
            -5 -37 -2 -43 5 -39 rrcurveto
            return
          </CharString>
          <CharString index="49">
            hmoveto
            48 vlineto
            -33 8 -11 3 -5 5 -6 13 rlinecurve
            -32 71 -12 29 -19 30 -38 13 rlinecurve
            57 17 32 38 9 50 rrcurveto
            72 49 -70 hlineto
            -2 35 -13 26 -24 18 rrcurveto
            113 49 -394 hlineto
            hintmask 11110100
            -52 78 vlineto
            69 23 -21 -55 4 hvcurveto
            -174 -49 173 hlineto
            -57 -6 -28 -20 -59 hhcurveto
            -80 -52 104 hlineto
            25 -8 10 -21 12 -29 32 -77 rcurveline
            -36 14 14 -25 21 hhcurveto
            endchar
          </CharString>
          <CharString index="50">
            464 hmoveto
            52 vlineto
            -85 14 rlineto
            -11 8 callsubr
            427 29 vlineto
            20 19 -3 -4 11 hvcurveto
            10 -4 5 -6 2 -9 rrcurveto
            return
          </CharString>
          <CharString index="51">
            31 125 2 10 5 6 10 4 rlinecurve
            4 12 19 3 19 hhcurveto
            31 -427 hlineto
            -11 0 callgsubr
            -86 -14 rlineto
            -52 vlineto
            return
          </CharString>
          <CharString index="52">
            61 -46 53 -91 -79 -44 -40 -39 -14 vhcurveto
            24 -24 rlineto
            22 23 29 14 29 hhcurveto
            42 21 -26 -36 -66 -72 -62 -101 -69 hvcurveto
            endchar
          </CharString>
          <CharString index="53">
            -39 -44 callgsubr
            return
          </CharString>
          <CharString index="54">
            280 hlineto
            10 35 5 51 2 35 -51 6 rcurveline
            -21 -43 rlineto
            -11 -5 -13 -10 -51 hhcurveto
            -55 hlineto
            78 40 87 67 85 vvcurveto
            return
          </CharString>
          <CharString index="55">
            245 rmoveto
            -45 -30 37 69 62 22 43 41 48 29 -63 -100 hvcurveto
            -31 vlineto
            -11 -19 -28 -6 -18 hhcurveto
            -7 268 rmoveto
            -125 -71 -78 -107 -90 55 -65 95 47 45 20 24 25 hvcurveto
            -111 -10 -59 -46 -62 hhcurveto
            -35 -31 9 12 -23 hvcurveto
            -20 -52 rlineto
            -28 35 51 -13 49 hhcurveto
            136 109 101 184 160 -84 80 -127 hvcurveto
            endchar
          </CharString>
          <CharString index="56">
            -12 rmoveto
            125 73 79 105 92 -56 65 -92 -49 -45 -19 -25 -24 hvcurveto
            103 14 62 55 80 hhcurveto
            17 23 -4 -7 21 hvcurveto
            19 55 rlineto
            19 -32 -44 7 -40 hhcurveto
            -148 -113 -116 -177 -150 83 -82 126 hvcurveto
            6 58 rmoveto
            -46 -31 55 105 hvcurveto
            34 vlineto
            11 19 29 6 18 hhcurveto
            44 30 -36 -71 -68 -26 -36 -37 hvcurveto
            endchar
          </CharString>
          <CharString index="57">
            317 hmoveto
            52 vlineto
            -56 10 rlineto
            -12 8 callsubr
            103 vlineto
            58 69 12 -19 12 -24 17 -37 rlinecurve
            47 -101 rlineto
            -43 20 16 -29 21 hhcurveto
            159 52 hlineto
            -34 9 -17 4 -6 11 -5 10 rlinecurve
            -80 150 -28 51 -18 32 -28 34 rlinecurve
            121 138 6 6 7 3 9 2 rlinecurve
            58 11 rlineto
            55 -224 vlineto
            1 -55 rlineto
            return
          </CharString>
          <CharString index="58">
            rmoveto
            155 -68 91 68 62 67 hlineto
            -62 -4 rlineto
            80 -73 vlineto
            -16 -85 -102 -7 return
          </CharString>
          <CharString index="59">
            424 rmoveto
            -113 -100 -100 -149 -8 -155 18 -20 rcurveline
            119 hlineto
            hintmask 10011000
            11 188 60 124 93 125 rrcurveto
            hintmask 10101000
            -30 65 rlineto
            -349 hlineto
            hintmask 11001000
            -7 -59 -3 -70 5 -62 rrcurveto
            67 hlineto
            hintmask 10101000
            32 86 5 12 4 4 13 3 rlinecurve
            5 16 33 3 31 hhcurveto
            endchar
          </CharString>
          <CharString index="60">
            107 rmoveto
            -34 -46 rlineto
            -45 36 66 -28 72 hhcurveto
            117 92 72 112 95 -65 61 -99 -35 -40 -8 -26 -31 hvcurveto
            16 114 rlineto
            215 hlineto
            11 94 rlineto
            -299 hlineto
            -20 -247 43 -28 rlineto
            12 25 24 11 28 hhcurveto
            53 32 -35 -53 -59 -41 -37 -58 -39 -39 17 24 -30 hvcurveto
            endchar
          </CharString>
          <CharString index="61">
            -62 33 -37 48 40 28 26 40 27 -14 18 -15 11 vhcurveto
            -14 9 -11 2 21 vvcurveto
            33 30 38 35 30 vhcurveto
            -25 31 rlineto
            -68 -33 -67 -70 -84 vvcurveto
            return
          </CharString>
          <CharString index="62">
            33 102 5 12 6 7 11 4 rlinecurve
            5 13 23 3 30 hhcurveto
            69 hlineto
            -304 -469 26 -45 rlineto
            return
          </CharString>
          <CharString index="63">
            0 -78 callsubr
            return
          </CharString>
          <CharString index="64">
            88 rmoveto
            218 hlineto
            hintmask 10011000
            -88 120 vlineto
            hintmask 00111000
            88 77 79 vlineto
            -77 -4 rlineto
            111 vlineto
            -106 -6 rlineto
            hintmask 10011000
            -13 -111 -141 -7 79 61 55 102 86 167 rlinecurve
            -18 23 rlineto
            -114 hlineto
            hintmask 01011000
            -59 -130 -62 -118 -71 -111 rrcurveto
            endchar
          </CharString>
          <CharString index="65">
            88 0 52 114 62 239 103 0 -20 return
          </CharString>
          <CharString index="66">
            -13 6 -14 rlinecurve
            32 -73 rlineto
            -38 17 13 -33 25 hhcurveto
            151 52 hlineto
            -39 11 -13 3 return
          </CharString>
          <CharString index="67">
            -76 -25 46 108 hvcurveto
            231 hlineto
            return
          </CharString>
          <CharString index="68">
            269 rmoveto
            -162 20 -62 50 45 23 50 140 162 -20 60 -51 -45 -22 -49 -139 vhcurveto
            -145 -23 rmoveto
            185 92 82 129 152 54 -106 -149 -186 -91 -83 -129 -153 -54 108 149 vhcurveto
            endchar
          </CharString>
          <CharString index="69">
            349 -2 115 -115 123 -102 -21 502 -20 33 55 return
          </CharString>
          <CharString index="70">
            581 rmoveto
            hintmask 10010000
            -38 22 rlineto
            -27 -16 -19 -20 -22 hhcurveto
            hintmask 01010000
            -63 callgsubr
            hintmask 10010000
            35 32 -52 54 hhcurveto
            hintmask 00110000
            57 38 53 59 15 hvcurveto
            endchar
          </CharString>
          <CharString index="71">
            rmoveto
            25 59 23 80 10 69 -97 11 rcurveline
            -15 -208 rlineto
            endchar
          </CharString>
          <CharString index="72">
            -18 17 -28 -6 -34 -11 -33 -14 rlinecurve
            18 -30 -35 12 -33 hhcurveto
            -110 -113 -113 -104 hvcurveto
            -24 -183 vlineto
            return
          </CharString>
          <CharString index="73">
            -78 callsubr
            368.5 -20 return
          </CharString>
          <CharString index="74">
            57 0 80 393 97 0 -20 hstemhm
            22 509 hintmask 10110000
            507 hmoveto
            24 62 -190 508 rlineto
            -129 hlineto
            -190 -508 24 -62 rlineto
            62 80 rmoveto
            hintmask 11010000
            136 393 138 -393 rlineto
            endchar
          </CharString>
          <CharString index="75">
            -161 rmoveto
            -19 -12 callgsubr
            34 38 36 57 16 hvcurveto
            -47 10 -37 -13 rlineto
            -64 -22 -47 -41 -50 vvcurveto
            -51 43 -25 58 -1 vhcurveto
            35 41 10 18 29 hvcurveto
            endchar
          </CharString>
          <CharString index="76">
            -18 17 -28 -6 -35 -11 -33 -14 rlinecurve
            18 -29 -36 12 -32 hhcurveto
            -111 -113 -113 -104 hvcurveto
            -23 vlineto
            return
          </CharString>
          <CharString index="77">
            rmoveto
            -147 hlineto
            73 239 rlineto
            endchar
          </CharString>
          <CharString index="78">
            -64 -12 -28 callgsubr
          </CharString>
          <CharString index="79">
            rmoveto
            57 -36 41 -76 -68 -52 -37 -59 -1 vhcurveto
            -62 41 -38 75 65 52 38 60 vhcurveto
            -161 2 rmoveto
            31 16 15 29 31 14 -21 -29 -31 -16 -14 -29 -31 -14 22 27 vhcurveto
            endchar
          </CharString>
          <CharString index="80">
            -65 -9 80 154 48 98 53 return
          </CharString>
          <CharString index="81">
            rmoveto
            -30 31 47 -18 59 hhcurveto
            100 57 50 59 61 -56 28 -55 hvcurveto
            return
          </CharString>
          <CharString index="82">
            rmoveto
            217 -166 37 44 -116 151 115 152 -36 46 -217 -169 rlineto
            return
          </CharString>
          <CharString index="83">
            rmoveto
            -45 -1 30 -31 40 hhcurveto
            31 22 21 28 20 -9 10 -10 8 hvcurveto
            -7 5 -9 6 15 vvcurveto
            15 16 17 17 12 vhcurveto
            -28 31 -50 -23 -40 -38 -2 -51 rlinecurve
            endchar
          </CharString>
          <CharString index="84">
            -116 -119 rlineto
            endchar
          </CharString>
          <CharString index="85">
            hstemhm
            85 129 180 129 -126 125 return
          </CharString>
          <CharString index="86">
            -51 -17 -32 -28 -49 vvcurveto
            -65 54 -49 132 vhcurveto
            return
          </CharString>
          <CharString index="87">
            rmoveto
            -38 21 rlineto
            -26 -17 -20 -18 -23 hhcurveto
            return
          </CharString>
          <CharString index="88">
            -82 callgsubr
            endchar
          </CharString>
          <CharString index="89">
            -46 -49 50 -58 hhcurveto
            -50 -50 -38 -67 -27 hvcurveto
            36 -28 rlineto
            24 21 25 20 29 hhcurveto
            return
          </CharString>
          <CharString index="90">
            rmoveto
            -82 callgsubr
            return
          </CharString>
          <CharString index="91">
            -7 callgsubr
            128 128 -82 135 return
          </CharString>
          <CharString index="92">
            5 12 vvcurveto
            248 vlineto
            11 20 return
          </CharString>
          <CharString index="93">
            -24 -167 -21 209 -21 363 51 return
          </CharString>
          <CharString index="94">
            -146 -9 callsubr
            return
          </CharString>
          <CharString index="95">
            62 -93 -84 -73 -56 -111 -94 54 -62 93 vhcurveto
            return
          </CharString>
          <CharString index="96">
            53 0 51 -7 51 rrcurveto
            return
          </CharString>
          <CharString index="97">
            -352 21 -21 568 -20 hstem
            -147 438 vstem
            -61 hmoveto
            -42 callgsubr
            endchar
          </CharString>
          <CharString index="98">
            0 24 callsubr
            return
          </CharString>
          <CharString index="99">
            7 rlineto
            -11 4 -5 5 12 vvcurveto
            return
          </CharString>
          <CharString index="100">
            64 callsubr
            -212 594 return
          </CharString>
          <CharString index="101">
            117 119 rlineto
            endchar
          </CharString>
          <CharString index="102">
            19 callsubr
            45 callgsubr
            return
          </CharString>
          <CharString index="103">
            102 -16 -20 hstemhm
            85 129 -126 125 181 129 return
          </CharString>
          <CharString index="104">
            71 -44 -21 240 60 230 55 return
          </CharString>
          <CharString index="105">
            rlineto
            -11 2 35 callgsubr
            return
          </CharString>
          <CharString index="106">
            131 13 callgsubr
            return
          </CharString>
          <CharString index="107">
            -18 -9 54 325 55 return
          </CharString>
          <CharString index="108">
            2 -5 7 12 vvcurveto
            return
          </CharString>
          <CharString index="109">
            -200 1 rmoveto
            74 16 31 29 34 18 -38 -80 -74 -16 -31 -29 -33 -19 37 81 vhcurveto
            601 -255 rmoveto
            return
          </CharString>
          <CharString index="110">
            0 153.5 -65.5 65.5 -65.5 77 315 23 hstemhm
            return
          </CharString>
          <CharString index="111">
            87 -35 86 -26 -20 hstemhm
            return
          </CharString>
          <CharString index="112">
            -5 50 -24 -21 249 50 -31 50 204 50 -4 -20 hstemhm
            25 103 97 103 97 104 96 104 return
          </CharString>
          <CharString index="113">
            53 0 52 447 -20 34 55 return
          </CharString>
          <CharString index="114">
            11 -2 callsubr
            return
          </CharString>
          <CharString index="115">
            2 -6 6 11 vvcurveto
            return
          </CharString>
          <CharString index="116">
            hstem
            69 114 vstem
            289 -141 rmoveto
            52 vlineto
            -87 10 rlineto
            -12 2 -7 8 12 vvcurveto
            return
          </CharString>
          <CharString index="117">
            -200 1 rmoveto
            74 15 31 30 33 18 -38 -79 -75 -15 -31 -30 -33 -18 38 80 vhcurveto
            return
          </CharString>
          <CharString index="118">
            hstemhm
            35 71 -70 122 91 131 return
          </CharString>
          <CharString index="119">
            -4 -8 25 vhcurveto
            -520 vlineto
            -13 30 70 -15 63 hhcurveto
            152 81 86 150 hvcurveto
            return
          </CharString>
          <CharString index="120">
            -54 callsubr
            116 -2 vlineto
            -53 -18 -49 -40 -52 vvcurveto
            -51 44 -25 59 -1 vhcurveto
            return
          </CharString>
          <CharString index="121">
            68 -49 callsubr
            return
          </CharString>
          <CharString index="122">
            rmoveto
            58 vlineto
            -217 169 -36 -46 115 -152 -116 -151 37 -44 rlineto
            return
          </CharString>
          <CharString index="123">
            rmoveto
            57 callsubr
            -29 -26 -41 -41 29 -26 45 44 26 callsubr
          </CharString>
          <CharString index="124">
            96.5 vstem
            60 310 rmoveto
            77 hlineto
            20 319 rlineto
            -116 hlineto
            return
          </CharString>
          <CharString index="125">
            57 callsubr
            -28 -26 -41 -41 28 -26 45 44 26 callsubr
          </CharString>
          <CharString index="126">
            -78 callsubr
            289.5 78 return
          </CharString>
          <CharString index="127">
            36 247 rlineto
            117 hlineto
            -71 -247 rlineto
            return
          </CharString>
          <CharString index="128">
            rmoveto
            280 75 -280 hlineto
            return
          </CharString>
          <CharString index="129">
            -174 -21 195 return
          </CharString>
          <CharString index="130">
            30 -8 71 361 -20 return
          </CharString>
          <CharString index="131">
            52 461 55 return
          </CharString>
          <CharString index="132">
            vvcurveto
            hintmask 10100000
            -74 41 -49 97 -9 vhcurveto
            -4 30 41 -2 27 hhcurveto
            endchar
          </CharString>
          <CharString index="133">
            29 66 callsubr
          </CharString>
          <CharString index="134">
            116 -91 119 126 113 -108 135 hintmask 11101000
            return
          </CharString>
          <CharString index="135">
            -46 callgsubr
            7 -6 3 26 callgsubr
            return
          </CharString>
          <CharString index="136">
            52 189 50 230 51 -4 -20 return
          </CharString>
          <CharString index="137">
            -9 callsubr
            hstem
            106 return
          </CharString>
          <CharString index="138">
            33 -126 rlineto
            67 hlineto
            return
          </CharString>
          <CharString index="139">
            -82 -9 80 296 58 return
          </CharString>
          <CharString index="140">
            -8 57 rlineto
            -27 -41 -3 -3 -30 hvcurveto
            hintmask 10100000
            -97 -9 -41 return
          </CharString>
          <CharString index="141">
            8 rlineto
            -12 1 35 callgsubr
            264 115 70 vlineto
            return
          </CharString>
          <CharString index="142">
            -175 -21 37 -21 171 79 -79 105 328 -20 hstemhm
            return
          </CharString>
          <CharString index="143">
            75 -41 48 -97 10 vhcurveto
            3 -30 -40 2 -27 hhcurveto
            -9 -57 return
          </CharString>
          <CharString index="144">
            hstemhm
            106 138 return
          </CharString>
          <CharString index="145">
            0 172 -50 50 54 50 179 47 -47 51 hstemhm
            return
          </CharString>
          <CharString index="146">
            -76 137 275 158 -50 51 -51 135 hstemhm
            return
          </CharString>
          <CharString index="147">
            -43 -37 -35 vhcurveto
            25 -32 rlineto
            69 37 68 75 90 vvcurveto
            return
          </CharString>
          <CharString index="148">
            0 164 -52 52 51 52 189 46 -45 46 hstemhm
            return
          </CharString>
          <CharString index="149">
            -192 43 78 39 return
          </CharString>
          <CharString index="150">
            74 33 callgsubr
            return
          </CharString>
          <CharString index="151">
            -57 57 -220 -220 220 -219 57 57 return
          </CharString>
          <CharString index="152">
            -2 vhcurveto
            -58 -11 rlineto
            -52 return
          </CharString>
          <CharString index="153">
            -51 -44 -16 -32 -34 vhcurveto
            return
          </CharString>
          <CharString index="154">
            vlineto
            61 -11 rlineto
            return
          </CharString>
          <CharString index="155">
            54 468 55 return
          </CharString>
          <CharString index="156">
            123 10 71 -37 72 12 129 hintmask 10010101
            return
          </CharString>
          <CharString index="157">
            0 20 291 191 -78 78 -65 65 hstemhm
            return
          </CharString>
          <CharString index="158">
            hstem
            120 115 vstem
            235 -137 rmoveto
            return
          </CharString>
          <CharString index="159">
            -55 vlineto
            57 -11 -3 callgsubr
            -11 vvcurveto
            return
          </CharString>
          <CharString index="160">
            52 vlineto
            -44 -91 callgsubr
            return
          </CharString>
          <CharString index="161">
            221 62 101 45 -10 -20 132 65 hstemhm
            return
          </CharString>
          <CharString index="162">
            -8 rlineto
            -51 262 51 vlineto
            return
          </CharString>
          <CharString index="163">
            197.5 return
          </CharString>
          <CharString index="164">
            41 -29 26 -44 -45 return
          </CharString>
          <CharString index="165">
            191 0 52 203 67 191 55 return
          </CharString>
          <CharString index="166">
            -3 -13 hhcurveto
            -27 -20 12 25 31 33 34 return
          </CharString>
          <CharString index="167">
            -14 4 6 -12 hvcurveto
            281 vlineto
            9 17 return
          </CharString>
          <CharString index="168">
            136 -67 61 -87 -45 -39 -16 -29 -29 return
          </CharString>
          <CharString index="169">
            -76 158 297 56 -56 135 hstemhm
            return
          </CharString>
          <CharString index="170">
            vlineto
            -65 9 -80 4 -58 -1 -17 -16 rcurveline
            return
          </CharString>
          <CharString index="171">
            hstemhm
            -6 212 return
          </CharString>
          <CharString index="172">
            -20 167 -20 return
          </CharString>
          <CharString index="173">
            26 41 vhcurveto
            endchar
          </CharString>
        <CharString name=".notdef">
          148 0 92 329 94 hstem
          64 96 325 94 vstem
          160 141 rmoveto
          125 115 -125 123 41 42 121 -128 119 128 44 -42 -127 -122 127 -124 -41 -41 -123 128 -118 -128 rlineto
          -139 -92 rmoveto
          515 515 -515 hlineto
          endchar
        </CharString>
        <CharString name="A">
          -42 callsubr
          -7 callsubr
          hintmask 11010100
          -24 callgsubr
          hintmask 11101000
          -166 -488 -98 callgsubr
          -189 146 -30 callsubr
        </CharString>
        <CharString name="AE">
          -84 callsubr
          endchar
        </CharString>
        <CharString name="Aacute">
          -42 callsubr
          -7 callsubr
          hintmask 11010100
          -24 callgsubr
          hintmask 11101000
          -166 -488 -98 callgsubr
          -79 613 -93 callgsubr
          -110 -467 -30 callsubr
        </CharString>
        <CharString name="Abreve">
          -42 callsubr
          63 86 54 -21 -7 callsubr
          hintmask 11011101
          -24 callgsubr
          hintmask 11101110
          -166 -488 -98 callgsubr
          -76 650 -84 callgsubr
          -113 -504 -30 callsubr
        </CharString>
        <CharString name="Acircumflex">
          -42 callsubr
          92 -20 23 -20 -7 callsubr
          hintmask 11010101
          -24 callgsubr
          hintmask 11010110
          -166 -488 -98 callgsubr
          -356 520 -83 callgsubr
          rlineto
          hintmask 11101010
          -116 -119 rlineto
          202 -414 -30 callsubr
        </CharString>
        <CharString name="Adieresis">
          -42 callsubr
          63 125 64 callsubr
          -72 44 callgsubr
          hintmask 11011011
          -24 callgsubr
          hintmask 11011101
          -166 -488 -98 callgsubr
          hintmask 11101011
          -267 594 -95 callsubr
          -118 -448 -30 callsubr
        </CharString>
        <CharString name="Agrave">
          -42 callsubr
          101 -20 -7 callsubr
          hintmask 11011010
          -24 callgsubr
          hintmask 11101100
          -166 -488 -98 callgsubr
          -314 698 -47 callgsubr
          -61 -423 -30 callsubr
        </CharString>
        <CharString name="Amacron">
          -42 callsubr
          85 75 -7 callsubr
          -435 280 hintmask 11011010
          -24 callgsubr
          hintmask 11011100
          -166 -488 -98 callgsubr
          hintmask 11101001
          -370 553 21 callsubr
          181 -482 -30 callsubr
        </CharString>
        <CharString name="Aogonek">
          88 43 callgsubr
          52 114 62 239 103 0 -20 64 callsubr
          149 102 hintmask 11101110
          564 -161 rmoveto
          -20 -12 callgsubr
          31 33 34 52 17 hvcurveto
          46 52 hlineto
          -45 12 -10 3 -6 5 -4 10 rlinecurve
          -166 488 rlineto
          -129 hlineto
          -166 -488 -3 -10 -6 -5 -10 -3 rlinecurve
          -49 -12 rlineto
          -52 212 52 vlineto
          -69 12 31 102 rlineto
          185 hlineto
          32 -102 -70 -12 rlineto
          -52 144 -2 vlineto
          -55 -18 -49 -40 -52 vvcurveto
          -51 44 -25 58 -1 vhcurveto
          36 42 10 18 29 hvcurveto
          -230 389 rmoveto
          -147 hlineto
          hintmask 11110110
          73 239 rlineto
          endchar
        </CharString>
        <CharString name="Aring">
          88 0 52 114 62 341 -20 152 49 64 callsubr
          -30 70 93 70 hintmask 11110110
          409 652 rmoveto
          57 -36 41 -76 -68 -52 -37 -60 -1 vhcurveto
          -40 18 -30 33 -16 vhcurveto
          hintmask 11111010
          -165 -485 -98 callgsubr
          -166 487 rlineto
          hintmask 11110110
          32 16 20 29 38 vvcurveto
          3 callgsubr
          88 -426 -30 callsubr
        </CharString>
        <CharString name="Atilde">
          -42 callsubr
          64 85 -60 -20 43 85 -7 callsubr
          hintmask 1101010010000000
          -24 callgsubr
          hintmask 1101100100000000
          -166 -488 -98 callgsubr
          -61 640 -20 callsubr
          hintmask 1101011010000000
          -37 -33 48 -57 hhcurveto
          hintmask 1101010010000000
          -58 -40 -51 -57 -15 hvcurveto
          38 -21 rlineto
          hintmask 1101011010000000
          25 17 19 19 24 hhcurveto
          hintmask 1101100010000000
          37 33 -48 57 hhcurveto
          hintmask 1101100100000000
          58 40 51 57 15 hvcurveto
          -128 -494 rmoveto
          -147 hlineto
          hintmask 1110010010000000
          73 239 rlineto
          endchar
        </CharString>
        <CharString name="B">
          82 -4 53 -49 49 214 58 200 51 -4 -20 hstemhm
          106 137 132 136 -114 152 hintmask 10110110
          511 439 rmoveto
          88 -43 45 -160 vhcurveto
          hintmask 01101110
          -51 -36 -4 -47 hhcurveto
          -142 -33 callgsubr
          144 vlineto
          47 28 -4 54 hhcurveto
          hintmask 10110101
          188 56 73 99 84 -58 45 -80 6 hvcurveto
          hintmask 10110110
          61 16 39 45 75 vvcurveto
          -213 -118 rmoveto
          -14 -19 0 1 -22 hvcurveto
          196 vlineto
          2 9 31 1 8 hhcurveto
          57 27 -27 -67 -68 -23 -38 -54 hvcurveto
          hintmask 10110101
          -272 vmoveto
          -19 -22 2 3 -14 hvcurveto
          207 vlineto
          1 23 21 1 17 hhcurveto
          61 32 -25 -74 -73 -28 -42 -71 hvcurveto
          endchar
        </CharString>
        <CharString name="C">
          22 callgsubr
          hstem
          34 155 vstem
          294 -13 rmoveto
          65 76 14 18 52 hvcurveto
          -100 callsubr
          -184 85 -101 175 hvcurveto
          endchar
        </CharString>
        <CharString name="Cacute">
          22 callgsubr
          hstem
          34 155 vstem
          294 -13 rmoveto
          65 76 14 18 52 hvcurveto
          -100 callsubr
          -184 85 -101 175 hvcurveto
          162 708 -93 callgsubr
          endchar
        </CharString>
        <CharString name="Ccaron">
          22 callgsubr
          170 -21 24 -21 hstemhm
          34 155 hintmask 11011000
          294 -13 rmoveto
          65 76 14 18 52 hvcurveto
          -100 callsubr
          -184 85 -101 175 hvcurveto
          hintmask 11101000
          136 784 -73 callgsubr
          hintmask 11011000
          -6 callsubr
        </CharString>
        <CharString name="Ccedilla">
          35 42 callsubr
          19 56 -54 54 481 55 hstemhm
          34 155 91 100 hintmask 11101110
          380 -99 rmoveto
          40 -29 26 -44 1 vhcurveto
          -11 hlineto
          hintmask 10101110
          6 19 63 1 72 14 50 17 rlinecurve
          -100 callsubr
          hvcurveto
          hintmask 10011100
          -171 73 -99 151 -13 vhcurveto
          hintmask 11101110
          -21 -60 rlineto
          26 -1 17 -10 -21 vvcurveto
          -24 -25 -17 -50 -5 vhcurveto
          7 -42 rlineto
          -1 8 8 0 8 hhcurveto
          85 59 37 56 hvcurveto
          endchar
        </CharString>
        <CharString name="Ccircumflex">
          22 callgsubr
          63 33 callgsubr
          34 155 hintmask 11011000
          294 -13 rmoveto
          65 76 14 18 52 hvcurveto
          -100 callsubr
          -184 85 -101 175 hvcurveto
          -115 615 -83 callgsubr
          rlineto
          hintmask 11101000
          -23 callsubr
        </CharString>
        <CharString name="Cdotaccent">
          22 callgsubr
          40 134 hstem
          34 155 43 146 vstem
          294 -13 rmoveto
          65 76 14 18 52 hvcurveto
          -100 callsubr
          -184 85 -101 175 hvcurveto
          84 699 rmoveto
          -74 callsubr
          endchar
        </CharString>
        <CharString name="D">
          118 -6 57 -51 51 468 53 -4 -20 37 callsubr
          185 151 hintmask 10101100
          173 568 rmoveto
          hintmask 01011100
          -141 -33 callgsubr
          142 vlineto
          29 58 -5 -1 33 hvcurveto
          hintmask 10101100
          -39 callgsubr
          endchar
        </CharString>
        <CharString name="Dcaron">
          118 -6 57 -51 51 468 53 -4 -20 201 -21 24 -21 37 callsubr
          185 151 hintmask 10100111
          173 568 rmoveto
          hintmask 01010111
          -141 -33 callgsubr
          142 vlineto
          29 58 -5 -1 33 hvcurveto
          hintmask 10100111
          -39 callgsubr
          hintmask 10101011
          179 712 -73 callgsubr
          hintmask 10100111
          -6 callsubr
        </CharString>
        <CharString name="Dcroat">
          -81 callsubr
        </CharString>
        <CharString name="E">
          -37 callgsubr
          hstem
          24 callgsubr
          vstem
          -106 callsubr
          endchar
        </CharString>
        <CharString name="Eacute">
          -37 callgsubr
          hstem
          24 callgsubr
          vstem
          -106 callsubr
          15 282 -93 callgsubr
          endchar
        </CharString>
        <CharString name="Ebreve">
          -37 callgsubr
          45 86 54 -21 hstem
          24 callgsubr
          vstem
          -106 callsubr
          18 319 -84 callgsubr
          endchar
        </CharString>
        <CharString name="Ecaron">
          -37 callgsubr
          181 -21 24 -21 hstemhm
          24 callgsubr
          hintmask 11101110
          -106 callsubr
          hintmask 11110110
          -11 358 -73 callgsubr
          hintmask 11101110
          -6 callsubr
        </CharString>
        <CharString name="Ecircumflex">
          -37 callgsubr
          43 callsubr
          24 callgsubr
          hintmask 11101110
          -106 callsubr
          -262 189 -83 callgsubr
          rlineto
          hintmask 11110110
          -23 callsubr
        </CharString>
        <CharString name="Edieresis">
          -37 callgsubr
          45 125 37 callsubr
          -132 44 callgsubr
          -23 65 hintmask 11101001
          -106 callsubr
          hintmask 11110110
          -173 263 -95 callsubr
          endchar
        </CharString>
        <CharString name="Edotaccent">
          -37 callgsubr
          51 134 37 callsubr
          -46 146 63 65 hintmask 11101010
          -106 callsubr
          hintmask 11110110
          -63 273 rmoveto
          -74 callsubr
          endchar
        </CharString>
        <CharString name="Egrave">
          -37 callgsubr
          83 -20 hstem
          24 callgsubr
          vstem
          -106 callsubr
          -220 367 -47 callgsubr
          endchar
        </CharString>
        <CharString name="Emacron">
          -37 callgsubr
          67 75 37 callsubr
          -113 280 -4 65 hintmask 11111010
          -106 callsubr
          -276 222 rmoveto
          hintmask 11110100
          280 75 hlineto
          hintmask 11111010
          -280 hlineto
          endchar
        </CharString>
        <CharString name="Eng">
          161 -191 66 -45 -21 29 -21 183 24 callsubr
          hstemhm
          106 76 304 76 hintmask 01011110
          562 39 rmoveto
          442 vlineto
          12 -14 callgsubr
          53 11 rlineto
          55 -223 -55 vlineto
          60 -11 -3 callgsubr
          -12 vvcurveto
          -291 vlineto
          -238 378 -86 callsubr
          12 vvcurveto
          338 vlineto
          283 -437 rlineto
          hintmask 10011110
          -14 -44 -22 -21 -23 -15 -27 -18 -38 -9 -28 -3 rrcurveto
          hintmask 00111110
          3 -58 rlineto
          hintmask 01011110
          -4 22 21 -4 29 hhcurveto
          132 42 92 138 hvcurveto
          endchar
        </CharString>
        <CharString name="Eogonek">
          32 43 callgsubr
          59 195 70 188 56 37 callsubr
          41 103 19 65 hintmask 11111100
          494 -161 rmoveto
          -19 -12 callgsubr
          32 40 36 60 14 hvcurveto
          9 59 5 53 59 vvcurveto
          -65 10 -31 -90 -5 -13 -4 -7 -10 -4 rlinecurve
          -5 -13 -29 -3 -24 hhcurveto
          -77 197 hlineto
          156 -4 rlineto
          75 vlineto
          -156 -6 rlineto
          191 61 vlineto
          hintmask 11111110
          28 callsubr
          65 hlineto
          -95 callgsubr
          359 -2 vlineto
          hintmask 11111100
          -57 -19 -49 -39 -52 vvcurveto
          -50 44 -26 59 -1 vhcurveto
          36 41 10 18 29 hvcurveto
          endchar
        </CharString>
        <CharString name="Eth">
          -81 callsubr
        </CharString>
        <CharString name="Euro">
          58 40 callgsubr
          108 141 vstem
          500 19 rmoveto
          7 49 2 47 -3 38 -74 6 rcurveline
          -26 -72 -4 -11 -5 -8 -6 -6 rlinecurve
          -10 -10 -22 -10 -21 hhcurveto
          -50 -26 43 81 -9 hvcurveto
          125 52 -129 hlineto
          10 0 11 11 8 0 8 7 vvcurveto
          135 52 -132 hlineto
          95 9 30 38 50 hhcurveto
          18 18 -5 -8 11 hvcurveto
          10 -8 5 -8 4 -20 17 -71 rcurveline
          73 hlineto
          8 54 3 47 -3 42 rrcurveto
          18 -46 -58 10 -50 hhcurveto
          -122 -87 -58 -126 -26 hvcurveto
          -83 -52 76 hlineto
          -1 -11 0 -13 -12 -7 0 -6 -6 vvcurveto
          -80 -52 85 hlineto
          -115 20 71 -60 129 hhcurveto
          53 69 9 19 45 hvcurveto
          endchar
        </CharString>
        <CharString name="Euro.tf">
          -36 40 callgsubr
          60 137 vstem
          -3 166 rmoveto
          67 hlineto
          -120 17 64 -55 123 hhcurveto
          49 65 10 18 46 hvcurveto
          8 48 0 49 -4 38 -74 6 rcurveline
          -21 -68 -4 -16 -5 -9 -8 -7 rlinecurve
          -11 -12 -18 -7 -18 hhcurveto
          -43 -21 41 83 -8 hvcurveto
          106 52 -109 hlineto
          9 0 11 10 9 0 8 8 vvcurveto
          113 52 -110 hlineto
          98 8 25 35 45 hhcurveto
          15 14 -4 -10 9 hvcurveto
          6 -8 2 -8 5 -19 16 -71 rcurveline
          74 hlineto
          8 54 3 47 -3 42 rrcurveto
          19 -44 -54 9 -45 hhcurveto
          -115 -79 -54 -130 -23 hvcurveto
          -67 -52 61 hlineto
          -1 -12 0 -12 -13 -6 0 -6 -6 vvcurveto
          -63 hlineto
          endchar
        </CharString>
        <CharString name="F">
          -6 0 52 193 69.5 56 callsubr
          56 hstem
          24 callgsubr
          vstem
          400 243 rmoveto
          74 vlineto
          -156 -5 rlineto
          200 61 vlineto
          28 callsubr
          65 hlineto
          4 -11 callsubr
          -437 -55 hlineto
          57 -11 -3 callgsubr
          -12 vvcurveto
          -399 vlineto
          -10 -6 -7 -10 45 callsubr
          321 52 vlineto
          -93 12 rlineto
          -9 1 -7 7 9 vvcurveto
          166 vlineto
          endchar
        </CharString>
        <CharString name="G">
          84 -12 -3 callsubr
          4 callgsubr
          hintmask 10111010
          -25 callgsubr
          hintmask 10111100
          -237 -56 hlineto
          hintmask 10111010
          -96 callgsubr
          hintmask 01111010
          71 -54 rlineto
          endchar
        </CharString>
        <CharString name="Gbreve">
          84 -12 -3 callsubr
          34 86 54 -21 4 callgsubr
          hintmask 1011111010000000
          -25 callgsubr
          hintmask 1011111100000000
          -237 -56 hlineto
          hintmask 1011111010000000
          -96 callgsubr
          hintmask 0111111010000000
          71 -54 rlineto
          -13 738 -84 callgsubr
          endchar
        </CharString>
        <CharString name="Gcircumflex">
          84 -12 -3 callsubr
          63 -20 23 -20 4 callgsubr
          hintmask 1011011010000000
          -25 callgsubr
          hintmask 1011011100000000
          -237 -56 hlineto
          hintmask 1011011010000000
          -96 callgsubr
          hintmask 0111011010000000
          71 -54 rlineto
          -293 608 -83 callgsubr
          rlineto
          hintmask 1011101010000000
          -23 callsubr
        </CharString>
        <CharString name="Gcommaaccent">
          84 -174 -21 183 -3 callsubr
          hstemhm
          35 160 77 87 -39 180 -111 131 hintmask 1101110010000000
          -25 callgsubr
          hintmask 1101110100000000
          -237 -56 hlineto
          hintmask 1101110010000000
          -96 callgsubr
          hintmask 1011110010000000
          71 -54 rlineto
          hintmask 1101111010000000
          -135 -107 -104 callgsubr
        </CharString>
        <CharString name="Gdotaccent">
          84 -12 -3 callsubr
          40 134 hstemhm
          35 160 59 146 -80 180 -111 131 hintmask 1011010010000000
          -25 callgsubr
          hintmask 1011010100000000
          -237 -56 hlineto
          hintmask 1011010010000000
          -96 callgsubr
          hintmask 0111010010000000
          71 -54 rlineto
          hintmask 1011111000000000
          -94 692 rmoveto
          -74 callsubr
          endchar
        </CharString>
        <CharString name="H">
          58 callsubr
          hstem
          106 138 199 138 vstem
          -71 callsubr
          endchar
        </CharString>
        <CharString name="Hbar">
          191 0 52 185 67 64 52 -52 200 -55 55 37 callsubr
          199 138 hintmask 11101110
          36 368 rmoveto
          70 -285 hlineto
          -11 -5 -7 -12 -2 vhcurveto
          -56 -11 rlineto
          -52 273 52 vlineto
          -45 7 callsubr
          154 199 -154 vlineto
          -11 -6 -7 -10 -2 vhcurveto
          -41 -11 rlineto
          -52 269 52 vlineto
          -57 7 callsubr
          285 70 52 -70 61 vlineto
          11 6 8 11 2 vhcurveto
          57 11 rlineto
          hintmask 11010110
          55 -269 vlineto
          hintmask 11101110
          -55 vlineto
          41 -11 rlineto
          10 -3 6 -7 -11 vvcurveto
          -61 -199 61 vlineto
          12 5 7 11 2 vhcurveto
          46 11 rlineto
          hintmask 11010110
          55 -273 vlineto
          hintmask 11101110
          -55 vlineto
          57 -11 -54 callgsubr
          5 -7 -12 vvcurveto
          -61 -70 vlineto
          208 -116 rmoveto
          64 199 -64 vlineto
          endchar
        </CharString>
        <CharString name="Hcircumflex">
          58 callsubr
          43 callsubr
          106 138 199 138 hintmask 11101110
          -71 callsubr
          -436 89 -83 callgsubr
          rlineto
          hintmask 11110110
          -23 callsubr
        </CharString>
        <CharString name="I">
          -146 30 callsubr
          138 vstem
          -103 callsubr
          endchar
        </CharString>
        <CharString name="IJ">
          183 30 callsubr
          138 203 138 vstem
          -103 callsubr
          285 -11 -88 callgsubr
          endchar
        </CharString>
        <CharString name="Iacute">
          -146 30 callsubr
          138 vstem
          -103 callsubr
          9 182 -93 callgsubr
          endchar
        </CharString>
        <CharString name="Iacute_J.NLD">
          183 30 callsubr
          138 203 138 vstem
          -103 callsubr
          285 -11 -88 callgsubr
          -276 193 -93 callgsubr
          337 hmoveto
          -55 81 -193 -124 23 -45 73 20 98 30 54 38 rlinecurve
          endchar
        </CharString>
        <CharString name="Ibreve">
          -13 callsubr
          45 86 54 -21 hstem
          106 138 vstem
          -103 callsubr
          12 219 -84 callgsubr
          endchar
        </CharString>
        <CharString name="Icircumflex">
          -13 callsubr
          43 callsubr
          106 138 hintmask 11011000
          -103 callsubr
          -268 89 -83 callgsubr
          rlineto
          hintmask 11101000
          -23 callsubr
        </CharString>
        <CharString name="Idieresis">
          -13 callsubr
          45 125 hstemhm
          16 122 -32 138 -32 122 hintmask 11101000
          -103 callsubr
          hintmask 11110100
          -179 163 -95 callsubr
          endchar
        </CharString>
        <CharString name="Idotaccent">
          -13 callsubr
          51 134 hstemhm
          102 146 -142 138 hintmask 11101000
          -103 callsubr
          hintmask 11110000
          -69 173 rmoveto
          -74 callsubr
          endchar
        </CharString>
        <CharString name="Igrave">
          -13 callsubr
          83 -20 hstem
          106 138 vstem
          -103 callsubr
          -226 267 -47 callgsubr
          endchar
        </CharString>
        <CharString name="Imacron">
          -13 callsubr
          67 75 hstemhm
          35 280 -209 138 hintmask 11101000
          -103 callsubr
          hintmask 11110000
          -282 122 21 callsubr
          endchar
        </CharString>
        <CharString name="Iogonek">
          -146 43 callgsubr
          24 callsubr
          hstemhm
          68 102 -64 138 hintmask 11101000
          276 -161 rmoveto
          hintmask 11110000
          27 callgsubr
          -14 20 callgsubr
          34 50 17 hvcurveto
          hintmask 11101000
          65 52 hlineto
          -56 11 rlineto
          -12 1 callsubr
          397 vlineto
          12 5 7 12 2 vhcurveto
          56 11 rlineto
          55 -285 -55 vlineto
          57 -11 -3 callgsubr
          -12 vvcurveto
          -398 -23 callgsubr
          hintmask 11110000
          -60 callgsubr
          137 -2 vlineto
          -53 -18 -48 -40 -52 vvcurveto
          -51 44 -25 58 -1 vhcurveto
          hintmask 11101000
          36 42 10 18 28 hvcurveto
          endchar
        </CharString>
        <CharString name="Itilde">
          -13 callsubr
          46 23 callgsubr
          106 138 hintmask 11010100
          -103 callsubr
          hintmask 11100100
          27 209 -20 callsubr
          hintmask 11011100
          -37 -33 48 -57 hhcurveto
          hintmask 11010100
          -58 -40 -51 -57 -15 hvcurveto
          38 -21 rlineto
          hintmask 11011100
          25 17 19 19 24 hhcurveto
          hintmask 11100100
          37 33 -48 57 hhcurveto
          58 40 51 57 15 hvcurveto
          endchar
        </CharString>
        <CharString name="J">
          -167 513 55 hstem
          97 138 vstem
          252 502 -88 callgsubr
          endchar
        </CharString>
        <CharString name="Jacute">
          -167 513 55 hstem
          97 138 vstem
          252 502 -88 callgsubr
          62 193 -93 callgsubr
          endchar
        </CharString>
        <CharString name="Jcircumflex">
          -167 513 55 43 callsubr
          97 138 hintmask 10110000
          252 502 -88 callgsubr
          -215 100 -83 callgsubr
          rlineto
          hintmask 11010000
          -23 callsubr
        </CharString>
        <CharString name="K">
          113 0 52 450 -20 31 55 hstemhm
          106 137 123.5 223.5 hintmask 10111000
          -50 callsubr
          hintmask 11111000
          64 -11 -188 -229 rlineto
          hintmask 10111000
          208 vlineto
          12 -14 callgsubr
          57 11 rlineto
          55 -285 -55 vlineto
          -104 callsubr
          vlineto
          endchar
        </CharString>
        <CharString name="Kcommaaccent">
          113 22 callsubr
          52 450 -20 31 55 hstemhm
          106 137 68 87 -31.5 223.5 hintmask 11011010
          -50 callsubr
          hintmask 11111010
          64 -11 -188 -229 rlineto
          hintmask 11011100
          208 vlineto
          12 -14 callgsubr
          57 11 rlineto
          55 -285 -55 vlineto
          -104 callsubr
          vlineto
          366 -113 -104 callgsubr
        </CharString>
        <CharString name="L">
          19 0 60 453 55 hstem
          106 138 vstem
          -97 callsubr
          endchar
        </CharString>
        <CharString name="Lacute">
          19 0 60 453 55 hstem
          106 138 vstem
          -97 callsubr
          -56 485 -93 callgsubr
          endchar
        </CharString>
        <CharString name="Lcaron">
          21 0 60 453 55 hstem
          106 138 vstem
          -97 callsubr
          -10 177 -36 callsubr
        </CharString>
        <CharString name="Lcommaaccent">
          19 22 callsubr
          60 453 55 37 callsubr
          16 87 hintmask 11110000
          -97 callsubr
          hintmask 11111000
          -83 -323 -104 callgsubr
        </CharString>
        <CharString name="Ldot">
          24 0 60 205 134 114 55 hstem
          106 138 109 147 vstem
          -97 callsubr
          70 122 rmoveto
          -45 callgsubr
        </CharString>
        <CharString name="Lslash">
          20 0 60 453 55 hstem
          107 138 vstem
          32 185 rmoveto
          75 29 rlineto
          -131 vlineto
          -11 -6 -7 -12 -2 vhcurveto
          -56 -11 rlineto
          -52 452 vlineto
          14 70 0 69 62 vvcurveto
          -68 9 -36 -117 -4 -13 -7 -7 -11 -4 rlinecurve
          -5 -12 -23 -4 -30 hhcurveto
          -63 203 hlineto
          142 56 rlineto
          66 vlineto
          -142 -58 rlineto
          154 vlineto
          11 -14 callgsubr
          74 12 rlineto
          55 -303 52 callsubr
          -204 vlineto
          -75 -29 rlineto
          endchar
        </CharString>
        <CharString name="M">
          339 0 52 430 86 -55 55 hstemhm
          15 226 -226 808 hintmask 10101000
          692 480 rmoveto
          -2 12 6 8 12 2 65 11 rcurveline
          55 -264 vlineto
          -89 -377 -98 377 rlineto
          -264 -55 hlineto
          62 -11 12 -2 5 -8 -1 -12 rlinecurve
          hintmask 11010000
          -48 -396 -1 -11 -6 -6 -10 -3 rlinecurve
          -56 -12 rlineto
          -52 226 52 vlineto
          -79 11 46 414 131 -457 rlineto
          110 hlineto
          109 462 57 -419 -66 -11 rlineto
          -52 274 52 vlineto
          -54 12 -10 3 -6 6 -2 11 rlinecurve
          endchar
        </CharString>
        <CharString name="N">
          161 30 callsubr
          76 304 76 vstem
          -99 callgsubr
          endchar
        </CharString>
        <CharString name="Nacute">
          161 30 callsubr
          76 304 76 vstem
          -99 callgsubr
          -95 193 -93 callgsubr
          endchar
        </CharString>
        <CharString name="Ncaron">
          161 -9 callsubr
          181 -21 24 -21 hstemhm
          106 76 304 76 hintmask 11011100
          -99 callgsubr
          hintmask 11101100
          -121 269 -73 callgsubr
          hintmask 11011100
          -6 callsubr
        </CharString>
        <CharString name="Ncommaaccent">
          161 22 callsubr
          24 callsubr
          hstem
          106 76 144 87 73 76 vstem
          -99 callgsubr
          -166 -615 -104 callgsubr
        </CharString>
        <CharString name="Ntilde">
          161 -9 callsubr
          46 23 callgsubr
          106 76 304 76 hintmask 11010110
          -99 callgsubr
          hintmask 11100110
          -77 220 -68 callgsubr
        </CharString>
        <CharString name="O">
          -5 callgsubr
          hstem
          -16 callgsubr
          vstem
          -103 callgsubr
          endchar
        </CharString>
        <CharString name="OE">
          294 -8 53 -45 59 195 70 188 56 -46 53 hstemhm
          34 151 183 138 163 64 hintmask 10101110
          296 45 rmoveto
          -76 -35 63 172 176 36 66 79 22 25 -7 -16 21 hvcurveto
          -429 vlineto
          -18 -21 -27 -7 -24 hhcurveto
          hintmask 01110111
          454 -45 rmoveto
          9 59 5 53 59 vvcurveto
          -65 10 -31 -90 -5 -13 -4 -6 -11 -5 rlinecurve
          -5 -12 -29 -3 -24 hhcurveto
          -77 197 hlineto
          156 -4 rlineto
          75 vlineto
          -156 -6 rlineto
          191 61 vlineto
          -46 callgsubr
          6 -6 4 26 callgsubr
          64 hlineto
          5 -11 callsubr
          -358 hlineto
          hintmask 10101110
          5 -24 -26 2 -25 hhcurveto
          -172 -92 -114 -188 -178 77 -103 175 hvcurveto
          hintmask 01110110
          29 28 3 5 25 hvcurveto
          endchar
        </CharString>
        <CharString name="Oacute">
          -5 callgsubr
          hstem
          -16 callgsubr
          vstem
          -103 callgsubr
          150 172 -93 callgsubr
          endchar
        </CharString>
        <CharString name="Obreve">
          -5 callgsubr
          33 86 54 -21 hstem
          -16 callgsubr
          vstem
          -103 callgsubr
          153 209 -84 callgsubr
          endchar
        </CharString>
        <CharString name="Ocircumflex">
          -5 callgsubr
          62 33 callgsubr
          -16 callgsubr
          hintmask 11011100
          -103 callgsubr
          -127 79 -83 callgsubr
          rlineto
          hintmask 11101100
          -23 callsubr
        </CharString>
        <CharString name="Odieresis">
          -5 callgsubr
          33 125 hstemhm
          34 151 -53 44 callgsubr
          -54 151 hintmask 11010010
          -103 callgsubr
          hintmask 11101100
          -38 153 -95 callsubr
          endchar
        </CharString>
        <CharString name="Ograve">
          -5 callgsubr
          71 -20 hstem
          -16 callgsubr
          vstem
          -103 callgsubr
          -85 257 -47 callgsubr
          endchar
        </CharString>
        <CharString name="Ohungarumlaut">
          -5 callgsubr
          55 33 callgsubr
          -16 callgsubr
          hintmask 11011100
          -103 callgsubr
          -104 76 -27 callgsubr
        </CharString>
        <CharString name="Omacron">
          -5 callgsubr
          55 75 hstemhm
          34 151 -34 280 -35 151 hintmask 11110100
          -103 callgsubr
          hintmask 11101000
          -141 112 21 callsubr
          endchar
        </CharString>
        <CharString name="Oslash">
          85 -12 55 -23 -21 525 56 -12 -20 93 -20 hstemhm
          31 143 226 144 hintmask 10101110
          544 294 rmoveto
          113 -31 86 -68 47 vhcurveto
          35 70 -58 31 rlineto
          hintmask 10011110
          -36 -73 rlineto
          hintmask 01101110
          8 -26 -30 4 -33 hhcurveto
          -174 -92 -113 -194 -115 32 -86 70 -46 hvcurveto
          -40 -81 59 -30 41 84 rlineto
          hintmask 10101110
          -7 26 28 -4 31 hhcurveto
          174 92 113 193 hvcurveto
          -370 -14 rmoveto
          177 39 67 76 29 22 -9 -21 18 vhcurveto
          -167 -369 rlineto
          -11 37 -6 51 67 vvcurveto
          111 -237 rmoveto
          -26 -22 8 19 -17 hvcurveto
          166 366 rlineto
          9 -36 5 -48 -63 vvcurveto
          -177 -39 -69 -76 vhcurveto
          endchar
        </CharString>
        <CharString name="Otilde">
          -5 callgsubr
          34 23 callgsubr
          -16 callgsubr
          hintmask 11010110
          -103 callgsubr
          hintmask 11100110
          168 199 -68 callgsubr
        </CharString>
        <CharString name="P">
          37 0 52 149 53 266 48 -48 52 37 callsubr
          132 140 hintmask 11011100
          244 516 rmoveto
          1 10 7 3 26 hhcurveto
          58 31 -36 -83 -113 -37 -34 -51 -19 -11 1 2 -14 hvcurveto
          106 -205 rmoveto
          -90 12 rlineto
          -9 1 -7 7 9 vvcurveto
          122 vlineto
          -1 15 16 -1 17 hhcurveto
          147 77 76 128 107 -48 59 -166 1 hvcurveto
          hintmask 11101100
          -56 -37 -4 -32 hhcurveto
          -145 -55 hlineto
          59 -12 rlineto
          9 -2 6 -7 -8 vvcurveto
          -403 vlineto
          -9 -6 -7 -10 45 callsubr
          318 vlineto
          endchar
        </CharString>
        <CharString name="Q">
          85 -154 91 586 57 hstem
          -16 callgsubr
          vstem
          495 -154 rmoveto
          50 47 28 24 20 hvcurveto
          -12 43 rlineto
          -2 -12 -14 -2 -17 hhcurveto
          -36 -33 10 22 -39 hvcurveto
          -26 14 -22 11 -27 8 rrcurveto
          111 36 62 104 152 vvcurveto
          173 -76 113 -171 -174 -92 -117 -190 -169 73 -111 162 -5 vhcurveto
          -45 87 27 -97 112 hhcurveto
          -203 677 rmoveto
          70 34 -66 -168 -174 -37 -71 -71 -69 -34 67 169 173 36 70 71 hvcurveto
          endchar
        </CharString>
        <CharString name="R">
          106 0 -1 callgsubr
          140 145 hintmask 11101100
          -97 callgsubr
          hintmask 11011100
          -61 callsubr
          endchar
        </CharString>
        <CharString name="Racute">
          106 0 -1 callgsubr
          140 145 hintmask 11101100
          -97 callgsubr
          hintmask 11011100
          -61 callsubr
          408 695 -93 callgsubr
          endchar
        </CharString>
        <CharString name="Rcaron">
          106 0 29 callsubr
          201 -21 24 -21 hstemhm
          106 137 140 145 hintmask 11100111
          -97 callgsubr
          hintmask 11011011
          -61 callsubr
          382 771 -73 callgsubr
          hintmask 11100111
          -6 callsubr
        </CharString>
        <CharString name="Rcommaaccent">
          106 22 callsubr
          -1 callgsubr
          66 87 -13 145 hintmask 11110101
          -97 callgsubr
          hintmask 11101110
          -61 callsubr
          364 -113 -104 callgsubr
        </CharString>
        <CharString name="S">
          -15 -12 53 486 52 hstem
          45 130 137 137 vstem
          -101 callsubr
          -23 48 68 -20 76 hhcurveto
          158 58 91 82 hvcurveto
          endchar
        </CharString>
        <CharString name="Sacute">
          -15 -12 53 486 52 hstem
          45 130 137 137 vstem
          -101 callsubr
          -23 48 68 -20 76 hhcurveto
          158 58 91 82 hvcurveto
          -50 534 -93 callgsubr
          endchar
        </CharString>
        <CharString name="Scaron">
          -15 -12 53 486 52 170 -21 24 -21 hstemhm
          45 130 137 137 hintmask 11011100
          -101 callsubr
          -23 48 68 -20 76 hhcurveto
          158 58 91 82 hvcurveto
          hintmask 11101100
          -76 610 -73 callgsubr
          hintmask 11011100
          -6 callsubr
        </CharString>
        <CharString name="Scedilla">
          -15 42 callsubr
          20 53 486 52 hstemhm
          45 130 42 100 -5 137 hintmask 10111010
          -101 callsubr
          hintmask 10111100
          40 -19 53 -17 61 -5 rrcurveto
          hintmask 11111100
          -21 -61 -90 callgsubr
          hintmask 10111100
          6 20 rlineto
          hintmask 10111010
          152 58 91 82 hvcurveto
          endchar
        </CharString>
        <CharString name="Scircumflex">
          -15 -12 53 486 52 63 33 callgsubr
          45 130 137 137 hintmask 11011100
          -101 callsubr
          -23 48 68 -20 76 hhcurveto
          158 58 91 82 hvcurveto
          -327 441 -83 callgsubr
          rlineto
          hintmask 11101100
          -23 callsubr
        </CharString>
        <CharString name="Scommaaccent">
          -15 -174 -21 183 53 486 52 hstemhm
          45 130 27 87 23 137 hintmask 11110100
          -101 callsubr
          -23 48 68 -20 76 hhcurveto
          158 58 91 82 hvcurveto
          hintmask 11111100
          -160 -274 -104 callgsubr
        </CharString>
        <CharString name="T">
          89 0 52 308 -8 callgsubr
          129 74 cntrmask 00011100
          hintmask 10111100
          -57 callsubr
          hintmask 11011100
          31 callsubr
          hintmask 10111100
          -17 callgsubr
          hintmask 11011100
          -6 callgsubr
          hintmask 10111100
          -56 callsubr
          endchar
        </CharString>
        <CharString name="Tbar">
          89 0 52 161 60 87 -8 callgsubr
          129 74 hintmask 11010110
          136 213 rmoveto
          88 -128 hlineto
          -11 0 callgsubr
          -86 -14 rlineto
          -52 343 52 vlineto
          -85 14 rlineto
          -11 8 callsubr
          128 87 60 -87 239 29 vlineto
          20 19 -3 -4 11 hvcurveto
          10 -4 5 -6 2 -9 rrcurveto
          hintmask 11100110
          31 callsubr
          hintmask 11011110
          -17 callgsubr
          hintmask 11101110
          -6 callgsubr
          hintmask 11010110
          31 125 2 10 5 6 10 4 rlinecurve
          4 12 19 3 19 hhcurveto
          31 -239 -88 hlineto
          endchar
        </CharString>
        <CharString name="Tcaron">
          89 0 52 308 208 -56 56 181 -21 24 -21 21 callgsubr
          129 74 hintmask 10101011
          -57 callsubr
          hintmask 11001011
          31 callsubr
          hintmask 10101111
          -17 callgsubr
          hintmask 11001111
          -6 callgsubr
          hintmask 10110011
          -56 callsubr
          297 771 -73 callgsubr
          hintmask 10101011
          -6 callsubr
        </CharString>
        <CharString name="Thorn">
          37 0 52 66 52 222 56 65 55 hstem
          101 136 128 144 vstem
          314 hmoveto
          52 vlineto
          -60 11 -85 callgsubr
          38 vlineto
          -3 24 23 -1 31 hhcurveto
          125 69 55 121 106 -55 48 -111 -33 -38 -4 -3 -35 hvcurveto
          40 vlineto
          12 -14 callgsubr
          60 11 rlineto
          55 -280 -55 vlineto
          50 -11 -3 callgsubr
          -12 vvcurveto
          -398 -23 callgsubr
          -50 -11 rlineto
          -52 vlineto
          255 170 rmoveto
          -15 -18 1 3 -19 hvcurveto
          215 vlineto
          2 18 17 1 15 hhcurveto
          58 1 20 -48 -56 vvcurveto
          -84 -29 -35 -47 vhcurveto
          endchar
        </CharString>
        <CharString name="U">
          133 13 callgsubr
          hstem
          5 callgsubr
          vstem
          -105 callsubr
          endchar
        </CharString>
        <CharString name="Uacute">
          -1 callsubr
          hstem
          5 callgsubr
          vstem
          -105 callsubr
          -124 127 -93 callgsubr
          endchar
        </CharString>
        <CharString name="Ubreve">
          -1 callsubr
          45 86 54 -21 hstem
          5 callgsubr
          vstem
          -105 callsubr
          -121 164 -84 callgsubr
          endchar
        </CharString>
        <CharString name="Ucircumflex">
          -1 callsubr
          43 callsubr
          5 callgsubr
          hintmask 11011100
          -105 callsubr
          -401 34 -83 callgsubr
          rlineto
          hintmask 11101100
          -23 callsubr
        </CharString>
        <CharString name="Udieresis">
          -1 callsubr
          45 125 hstemhm
          83 142 -61 44 callgsubr
          -25 85 hintmask 11110010
          -105 callsubr
          hintmask 11101100
          -312 108 -95 callsubr
          endchar
        </CharString>
        <CharString name="Ugrave">
          -1 callsubr
          83 -20 hstem
          5 callgsubr
          vstem
          -105 callsubr
          -359 212 -47 callgsubr
          endchar
        </CharString>
        <CharString name="Uhungarumlaut">
          -1 callsubr
          67 33 callgsubr
          5 callgsubr
          hintmask 11011100
          -105 callsubr
          -378 31 -27 callgsubr
        </CharString>
        <CharString name="Umacron">
          -1 callsubr
          67 75 hstemhm
          83 142 -42 117 80 83 -6 85 hintmask 11110100
          380 568 rmoveto
          -55 vlineto
          hintmask 11110010
          61 -11 -54 callgsubr
          5 -7 -12 vvcurveto
          -278 vlineto
          -93 -28 -65 -89 -85 -30 59 99 vhcurveto
          277 vlineto
          11 6 8 11 2 vhcurveto
          hintmask 11101010
          58 12 rlineto
          55 vlineto
          hintmask 11110010
          -269 -55 hlineto
          36 -10 rlineto
          10 -3 6 -7 -11 vvcurveto
          -267 vlineto
          -159 77 -65 158 137 87 59 160 vhcurveto
          -68 callsubr
          vlineto
          hintmask 11101100
          -415 67 21 callsubr
          endchar
        </CharString>
        <CharString name="Uogonek">
          131 -189 70 110 48 callsubr
          hstem
          83 142 33 102 97 85 vstem
          258 -112 rmoveto
          -50 44 -26 59 -1 vhcurveto
          35 42 10 18 29 hvcurveto
          27 callgsubr
          -16 -3 -13 hhcurveto
          -27 -19 11 25 35 39 33 62 39 hvcurveto
          0 1 1 0 vhcurveto
          53 33 27 63 89 vvcurveto
          -68 callsubr
          -218 -55 47 callsubr
          11 -2 5 -7 -12 vvcurveto
          -278 vlineto
          -93 -28 -65 -89 -85 -30 59 99 vhcurveto
          277 vlineto
          11 6 8 11 2 vhcurveto
          58 12 rlineto
          55 -269 -55 vlineto
          36 -10 rlineto
          10 -3 6 -7 -11 vvcurveto
          -267 vlineto
          -159 77 -65 158 12 11 0 1 11 vhcurveto
          -2 vlineto
          -42 -16 -52 -34 -52 vvcurveto
          endchar
        </CharString>
        <CharString name="Uring">
          -1 callsubr
          29 51 95 50 hstemhm
          83 142 -19 72 90 71 18 85 hintmask 11011001
          -105 callsubr
          hintmask 11110111
          -159 127 -28 callsubr
        </CharString>
        <CharString name="Utilde">
          -1 callsubr
          46 23 callgsubr
          5 callgsubr
          hintmask 11010110
          -105 callsubr
          hintmask 11100110
          -106 154 -68 callgsubr
        </CharString>
        <CharString name="V">
          89 -2 116 -95 -21 502 -20 33 55 hstemhm
          -7 594 -212 212 hintmask 01011000
          236 -2 rmoveto
          123 hlineto
          hintmask 10010100
          159 487 3 10 7 5 9 2 rlinecurve
          50 11 rlineto
          55 -212 -55 vlineto
          70 -13 -117 -386 rlineto
          hintmask 01111000
          -131 386 rlineto
          hintmask 01011000
          70 13 rlineto
          55 -274 -55 vlineto
          46 -11 9 -2 7 -5 3 -10 rlinecurve
          endchar
        </CharString>
        <CharString name="W">
          -76 callsubr
          endchar
        </CharString>
        <CharString name="Wacute">
          -76 callsubr
          155 366 -93 callgsubr
          endchar
        </CharString>
        <CharString name="Wcircumflex">
          -38 callsubr
          43 callsubr
          323 259 62 203 hintmask 0010101110000000
          -71 callgsubr
          hintmask 0101101110000000
          12 callgsubr
          hintmask 1000101110000000
          -59 callgsubr
          hintmask 0011101110000000
          -101 387 rlineto
          hintmask 0010101110000000
          -66 callsubr
          -122 273 -83 callgsubr
          rlineto
          hintmask 0010110110000000
          -23 callsubr
        </CharString>
        <CharString name="Wdieresis">
          -38 callsubr
          45 125 hstemhm
          268 122 -67 259 -118 122 58 203 hintmask 0010111011000000
          -71 callgsubr
          hintmask 0101110101000000
          12 callgsubr
          hintmask 1000110101000000
          -59 callgsubr
          hintmask 0011111011000000
          -101 387 rlineto
          hintmask 0010111011000000
          -66 callsubr
          -33 347 -95 callsubr
          endchar
        </CharString>
        <CharString name="Wgrave">
          -38 callsubr
          83 -20 hstemhm
          323 259 62 203 hintmask 00101111
          -71 callgsubr
          hintmask 01011111
          12 callgsubr
          hintmask 10001111
          -59 callgsubr
          hintmask 00111111
          -101 387 rlineto
          hintmask 00101111
          -66 callsubr
          -80 451 -47 callgsubr
          endchar
        </CharString>
        <CharString name="X">
          69 0 52 448 -20 33 55 hstemhm
          6 213 125 201 hintmask 10111000
          562 hmoveto
          52 vlineto
          -41 11 -9 2 -7 4 -5 8 rlinecurve
          -152 233 127 178 5 8 7 4 9 2 rlinecurve
          49 11 rlineto
          55 -201 -55 vlineto
          hintmask 11111000
          62 -13 -94 -142 -86 142 rlineto
          hintmask 10111000
          56 13 rlineto
          55 -267 -55 vlineto
          41 -11 9 -3 6 -4 5 -8 rlinecurve
          140 -217 -136 -193 -6 -9 -5 -3 -9 -2 rlinecurve
          -54 -11 rlineto
          -52 213 52 vlineto
          -68 12 102 156 95 -156 -56 -12 rlineto
          -52 vlineto
          endchar
        </CharString>
        <CharString name="Y">
          -70 callgsubr
          endchar
        </CharString>
        <CharString name="Yacute">
          -70 callgsubr
          317 695 -93 callgsubr
          endchar
        </CharString>
        <CharString name="Ycircumflex">
          6 callsubr
          43 callsubr
          207 142 -6 203 hintmask 10101100
          -43 callgsubr
          hintmask 10101010
          -63 callsubr
          hintmask 11101100
          -101 197 rlineto
          hintmask 10101100
          -80 callgsubr
          40 602 -83 callgsubr
          rlineto
          hintmask 10110100
          -23 callsubr
        </CharString>
        <CharString name="Ydieresis">
          6 callsubr
          45 125 hstemhm
          128 122 -43 142 -25 122 -103 203 hintmask 10110100
          -43 callgsubr
          hintmask 10110001
          -63 callsubr
          hintmask 11110100
          -101 197 rlineto
          hintmask 10110100
          -80 callgsubr
          hintmask 10111010
          129 676 -95 callsubr
          endchar
        </CharString>
        <CharString name="Ygrave">
          6 callsubr
          83 -20 hstemhm
          207 142 -6 203 hintmask 10111000
          -43 callgsubr
          hintmask 10110100
          -63 callsubr
          hintmask 11111000
          -101 197 rlineto
          hintmask 10111000
          -80 callgsubr
          82 780 rmoveto
          -58 -80 rlineto
          hintmask 10110100
          52 -39 94 -34 72 -23 26 47 rcurveline
          endchar
        </CharString>
        <CharString name="Z">
          -60 callsubr
          endchar
        </CharString>
        <CharString name="Zacute">
          -60 callsubr
          383 695 -93 callgsubr
          endchar
        </CharString>
        <CharString name="Zcaron">
          23 0 60 321 188 -55 55 180 -21 24 -21 hstemhm
          18 466 hintmask 10101100
          -72 callgsubr
          hintmask 11001100
          -11 -58 -4 -68 3 -62 rrcurveto
          76 hlineto
          hintmask 10110100
          -45 callsubr
          357 771 -73 callgsubr
          hintmask 10101100
          -6 callsubr
        </CharString>
        <CharString name="Zdotaccent">
          23 0 60 321 188 -55 55 50 134 hstemhm
          203 146 hintmask 10101000
          -72 callgsubr
          hintmask 11001000
          -11 -58 -4 -68 3 -62 rrcurveto
          76 hlineto
          hintmask 10111000
          -45 callsubr
          305 686 rmoveto
          -74 callsubr
          endchar
        </CharString>
        <CharString name="__periodcentered.CAT">
          -419 209 134 hstem
          -39 147 vstem
          108 276 16 callsubr
        </CharString>
        <CharString name="__periodcentered.CAT.case">
          -491 265 134 hstem
          -153 146 vstem
          -7 332 rmoveto
          18 callsubr
        </CharString>
        <CharString name="a">
          -70 callsubr
          hstem
          -2 callgsubr
          vstem
          -107 callsubr
          endchar
        </CharString>
        <CharString name="aacute">
          -70 callsubr
          hstem
          -2 callgsubr
          vstem
          -107 callsubr
          39 463 -94 callsubr
        </CharString>
        <CharString name="abreve">
          -70 callsubr
          48 86 hstem
          -2 callgsubr
          vstem
          -107 callsubr
          226 602 -87 callgsubr
        </CharString>
        <CharString name="acircumflex">
          -70 callsubr
          76 65 callsubr
          hstem
          -2 callgsubr
          vstem
          -107 callsubr
          -40 467 -89 callgsubr
        </CharString>
        <CharString name="acute">
          -132 455 204 hstem
          113 216 vstem
          146 455 -94 callsubr
        </CharString>
        <CharString name="acutecomb">
          455 204 hstem
          -69 216 vstem
          -36 455 -94 callsubr
        </CharString>
        <CharString name="acutecomb.case">
          607 169 hstem
          -97 248 vstem
          151 695 -93 callgsubr
          endchar
        </CharString>
        <CharString name="adieresis">
          -70 callsubr
          53 124 hstemhm
          24 134 -87 17 callgsubr
          -109 127 hintmask 11111001
          -107 callsubr
          hintmask 11110110
          48 547 -94 callgsubr
        </CharString>
        <CharString name="ae">
          -88 callsubr
          endchar
        </CharString>
        <CharString name="agrave">
          -70 callsubr
          hstem
          -2 callgsubr
          vstem
          -107 callsubr
          23 667 -67 callgsubr
        </CharString>
        <CharString name="amacron">
          -70 callsubr
          69 75 hstemhm
          24 134 -72 267 -94 127 hintmask 11111010
          -107 callsubr
          hintmask 11110100
          -59 501 -11 callgsubr
        </CharString>
        <CharString name="ampersand">
          113 -11 57 -53 70 -49 -21 271 55 217 43 hstemhm
          29 119 -63 122 99 111 -38 202 hintmask 1001101100000000
          207 461 rmoveto
          50 21 25 32 27 19 -21 -53 -40 -12 -46 -36 -35 vhcurveto
          -41 57 -10 29 34 vvcurveto
          51 -415 rmoveto
          hintmask 1001110100000000
          -69 -41 44 66 37 13 22 17 19 hvcurveto
          36 -46 60 -74 56 -51 rrcurveto
          hintmask 1001101100000000
          -13 -26 -26 -4 -20 hhcurveto
          hintmask 1001110010000000
          323 218 rmoveto
          55 -202 -55 vlineto
          56 -12 rlineto
          11 -3 2 -7 -13 vvcurveto
          -25 -6 -33 -17 -28 vhcurveto
          -47 48 -54 64 -37 47 rrcurveto
          hintmask 1001101100000000
          88 27 42 55 68 vvcurveto
          78 -52 49 -100 -109 -71 -59 -90 -51 23 -48 37 -53 vhcurveto
          hintmask 1001110100000000
          -52 -14 -64 -36 -91 vvcurveto
          -104 82 -44 112 56 54 14 27 38 vhcurveto
          hintmask 0011110100000000
          -28 39 32 -9 35 hhcurveto
          32 41 7 9 27 hvcurveto
          hintmask 0101110010000000
          54 vlineto
          -48 -24 5 41 -45 hvcurveto
          40 34 21 43 9 45 2 13 1 5 11 3 rrcurveto
          endchar
        </CharString>
        <CharString name="aogonek">
          -41 -189 70 111 72 -48 -21 175.5 47.5 121 85 hstemhm
          24 134 70 100 -69 127 hintmask 10111001
          433 -161 rmoveto
          hintmask 10111010
          -18 51 rlineto
          -6 -14 -13 20 callgsubr
          33 50 18 hvcurveto
          hintmask 11011101
          12 2 11 3 8 2 rrcurveto
          49 vlineto
          -36 5 rlineto
          -12 1 -7 6 15 vvcurveto
          180 vlineto
          106 -49 55 -118 -99 -60 -39 -63 -24 vhcurveto
          30 -26 rlineto
          29 32 38 14 44 hhcurveto
          51 28 -19 -59 hvcurveto
          -41 vlineto
          -74 -4 rlineto
          -85 -5 -76 -39 -78 vvcurveto
          -62 47 -40 74 vhcurveto
          hintmask 11011010
          51 43 17 33 28 hvcurveto
          hintmask 10111010
          12 -28 21 -14 27 -5 rrcurveto
          -51 -17 -48 -40 -50 vvcurveto
          -51 43 -25 58 -1 vhcurveto
          hintmask 10111001
          35 41 10 18 28 hvcurveto
          hintmask 11011101
          -232 225 rmoveto
          -31 -12 15 30 32 14 26 47 2 hvcurveto
          40 3 rlineto
          -90 vlineto
          -11 -16 -20 -7 -22 hhcurveto
          endchar
        </CharString>
        <CharString name="approxequal">
          -20 68 89 -39 89 31 89 -39 89 hstemhm
          39 391 hintmask 10011000
          430 173 rmoveto
          -36 29 rlineto
          -25 -21 -25 -20 -29 hhcurveto
          hintmask 01011000
          -18 callsubr
          hintmask 10011000
          11 callgsubr
          hintmask 01101000
          170 vmoveto
          -36 29 rlineto
          -25 -21 -25 -20 -29 hhcurveto
          hintmask 01011000
          -18 callsubr
          hintmask 01101000
          11 callgsubr
          endchar
        </CharString>
        <CharString name="aring">
          -70 callsubr
          39 49 91 49 hstemhm
          24 134 -51 70 82 127 -123 70 hintmask 1111110100000000
          -107 callsubr
          hintmask 1111101010000000
          188 565 -72 callsubr
        </CharString>
        <CharString name="asciicircum">
          -24 271 295 hstem
          27 420 vstem
          27 308 rmoveto
          46 -37 157 182 163 -182 54 37 -169 258 -97 -8 rlineto
          endchar
        </CharString>
        <CharString name="asciitilde">
          -23 153 89 -39 89 hstemhm
          38 391 hintmask 10100000
          429 258 rmoveto
          -36 29 rlineto
          -25 -21 -25 -20 -29 hhcurveto
          hintmask 01100000
          -18 callsubr
          hintmask 10100000
          11 callgsubr
          endchar
        </CharString>
        <CharString name="asterisk">
          -53 423 -20 96 -20 37 -20 155 -20 hstemhm
          173.5 96 hintmask 11011000
          239 499 29 callgsubr
          rlineto
          hintmask 10111000
          -36 callgsubr
          rlineto
          hintmask 11011000
          -45 -33 rlineto
          endchar
        </CharString>
        <CharString name="at">
          277 -192 66 102 97 -88 78 266 67 108 65 hstemhm
          29 83 82 102 158 88 125 73 hintmask 1101111110000000
          333 -192 rmoveto
          75 72 20 35 42 hvcurveto
          -20 43 rlineto
          -19 -28 -66 -13 -53 hhcurveto
          -131 -112 83 197 209 127 141 179 114 135 -57 -183 hvcurveto
          hintmask 1011111110000000
          -132 -72 -69 -32 -15 -6 13 33 79 38 166 4 20 vhcurveto
          -71 22 -24 -25 rlineto
          19 -36 -27 6 -27 hhcurveto
          -127 -78 -132 -122 hvcurveto
          hintmask 1101111110000000
          -106 59 -60 58 70 52 91 91 32 vhcurveto
          hintmask 1011111110000000
          -7 -47 -4 -32 -19 vvcurveto
          -49 22 -26 32 65 167 103 205 175 -121 101 -167 -232 -194 -194 -254 3 vhcurveto
          hintmask 1101111110000000
          -190 3 113 -123 188 hhcurveto
          116 436 rmoveto
          -105 -31 -49 -66 -31 hhcurveto
          -29 -13 56 47 71 29 82 59 25 33 -16 -24 19 hvcurveto
          -3 -14 -4 -15 -5 -16 rrcurveto
          endchar
        </CharString>
        <CharString name="atilde">
          -70 callsubr
          45 4 callsubr
          -2 callgsubr
          hintmask 11100111
          -107 callsubr
          238 589 rmoveto
          hintmask 11110011
          -38 22 rlineto
          -27 -16 -19 -20 -22 hhcurveto
          hintmask 11101011
          -63 callgsubr
          hintmask 11110011
          35 32 -52 54 hhcurveto
          hintmask 11100111
          57 38 53 59 15 hvcurveto
          endchar
        </CharString>
        <CharString name="b">
          -13 -8 51 305 77 214 -20 36 -20 hstemhm
          55 131 128 139 hintmask 11011100
          55 20 rmoveto
          -13 30 71 -15 64 hhcurveto
          152 81 86 150 61 callsubr
          hvcurveto
          hintmask 11101100
          259 vlineto
          hintmask 11011100
          -18 16 -51 -1 -75 -9 -51 -13 rlinecurve
          -52 vlineto
          47 -8 rlineto
          11 -1 6 -8 -11 vvcurveto
          174 -509 rmoveto
          -17 -15 4 6 -11 hvcurveto
          282 vlineto
          9 17 18 4 18 hhcurveto
          49 28 -34 -110 -2 hvcurveto
          -113 -1 -29 -48 -55 hhcurveto
          endchar
        </CharString>
        <CharString name="backslash">
          -120 633 -20 hstem
          18 337 vstem
          355 -105 rmoveto
          -234 738 rlineto
          -103 hlineto
          235 -738 rlineto
          endchar
        </CharString>
        <CharString name="bar">
          -259 -116 809 hstem
          70 97.5 vstem
          70 -116 rmoveto
          97 hlineto
          1 809 rlineto
          -98 hlineto
          endchar
        </CharString>
        <CharString name="braceleft">
          -163 -154 876 -474 72 2 callgsubr
          47 10 68 51 vvcurveto
          72 -52 30 -66 11 vhcurveto
          66 12 52 27 71 51 -10 68 47 vvcurveto
          55 20 24 56 13 vhcurveto
          47 12 33 callsubr
          -50 -74 vvcurveto
          hintmask 01010000
          -63 16 -65 -51 vvcurveto
          -48 -11 -29 -79 -7 vhcurveto
          -72 vlineto
          79 -8 11 -28 -49 -51 -16 -64 -64 25 callsubr
        </CharString>
        <CharString name="braceright">
          -163 -154 876 -474 72 hstemhm
          123 115 hintmask 10100000
          115 -149 rmoveto
          97 9 41 49 75 vvcurveto
          hintmask 01100000
          63 -15 65 51 vvcurveto
          49 10 28 80 8 vhcurveto
          72 vlineto
          -80 7 -10 29 48 51 15 65 64 vvcurveto
          36 callsubr
          47 -10 rlineto
          56 -13 20 -25 -55 -47 -9 -69 -51 vvcurveto
          -71 52 -28 65 -11 vhcurveto
          -65 -11 -52 -30 -72 -51 9 -68 -48 31 callgsubr
          hintmask 10100000
          27 40 2 3 30 hvcurveto
          endchar
        </CharString>
        <CharString name="bracketleft">
          -192 -153 69 735 57 9 callsubr
          682 vlineto
          12 7 7 12 2 vhcurveto
          87 10 rlineto
          52 63 callsubr
          -841 32 callgsubr
        </CharString>
        <CharString name="bracketright">
          -192 -153 69 735 57 51 callsubr
          841 vlineto
          -18 16 -58 1 -80 -4 -65 -9 rlinecurve
          -52 vlineto
          87 -10 rlineto
          12 -2 7 -7 -12 vvcurveto
          -682 7 callgsubr
        </CharString>
        <CharString name="breve">
          -132 472 86 hstem
          31 302 vstem
          333 594 -87 callgsubr
        </CharString>
        <CharString name="brokenbar">
          -260 -116 809 hstem
          69 98 vstem
          69 345 rmoveto
          98 348 -98 hlineto
          -809 vmoveto
          98 347 -98 hlineto
          endchar
        </CharString>
        <CharString name="bullet">
          -147 131 198 hstem
          69 211 vstem
          280 230 8 callgsubr
        </CharString>
        <CharString name="bulletoperator">
          -138 147 151 hstem
          102 155 vstem
          257 223 rmoveto
          45 -31 30 -47 -47 -30 -30 -45 -46 30 -30 47 47 31 30 46 vhcurveto
          endchar
        </CharString>
        <CharString name="c">
          32 callsubr
          hstem
          29 141 vstem
          -98 callsubr
          endchar
        </CharString>
        <CharString name="cacute">
          32 callsubr
          hstem
          29 141 vstem
          -98 callsubr
          163 253 -94 callsubr
        </CharString>
        <CharString name="caron">
          -132 567 -20 hstem
          34 308 vstem
          302 659 -79 callgsubr
        </CharString>
        <CharString name="ccaron">
          32 callsubr
          142 -20 hstem
          29 141 vstem
          -98 callsubr
          319 457 -79 callgsubr
        </CharString>
        <CharString name="ccedilla">
          -82 42 callsubr
          23 80 -56 -21 373 58 hstemhm
          29 141 37 100 hintmask 10101110
          29 202 rmoveto
          hintmask 10011110
          -108 48 -85 109 -15 vhcurveto
          hintmask 11101110
          -22 -65 -90 callgsubr
          hintmask 10101110
          7 23 rlineto
          81 58 39 53 18 hvcurveto
          -28 22 rlineto
          -15 -18 -32 -19 -43 hhcurveto
          -70 -26 50 99 107 30 40 38 15 12 -6 -7 8 hvcurveto
          7 -6 4 -8 4 -17 21 -73 rcurveline
          64 hlineto
          8 45 4 49 -4 49 rrcurveto
          18 -33 -55 14 -52 hhcurveto
          -123 -89 -77 -146 hvcurveto
          endchar
        </CharString>
        <CharString name="ccircumflex">
          32 callsubr
          75 65 callsubr
          hstem
          29 141 vstem
          -98 callsubr
          84 257 -89 callgsubr
        </CharString>
        <CharString name="cdotaccent">
          32 callsubr
          47 131 hstemhm
          29 141 -5 143 hintmask 11110000
          -98 callsubr
          hintmask 11101000
          279 336 -87 callsubr
          endchar
        </CharString>
        <CharString name="cedilla">
          -132 -192 43 78 90 hstem
          174 100 vstem
          162 19 rmoveto
          -31 -90 -90 callgsubr
          15 51 rlineto
          endchar
        </CharString>
        <CharString name="cent">
          -67 62 callsubr
          31 141 11 71 -38 72 hintmask 10111000
          31 -61 callgsubr
        </CharString>
        <CharString name="cent.tf">
          -36 62 callsubr
          43 141 11 71 -38 72 hintmask 10111000
          43 -61 callgsubr
        </CharString>
        <CharString name="circumflex">
          -132 500 65 callsubr
          hstem
          27 309 vstem
          67 459 -89 callgsubr
        </CharString>
        <CharString name="colon">
          -248 -6 134 167 133 hstem
          51 146 vstem
          197 361 rmoveto
          57 callsubr
          -28 -26 -41 -40 28 -26 45 44 29 26 40 vhcurveto
          -300 vmoveto
          18 callsubr
        </CharString>
        <CharString name="comma">
          -270 -172 304 hstem
          92 97 vstem
          189 30 rmoveto
          64 -34 38 -48 -41 -29 -27 -41 -28 15 -19 16 -11 vhcurveto
          13 -10 11 -1 -22 vvcurveto
          -35 -28 40 callsubr
          endchar
        </CharString>
        <CharString name="copyright">
          233 -49 49 94 71 250 58 96 49 hstem
          31 58 106 111 334 58 vstem
          363 94 rmoveto
          72 53 34 46 18 hvcurveto
          -26 23 rlineto
          -19 -19 -34 -13 -32 hhcurveto
          -58 -31 44 88 83 27 35 38 16 14 -7 -7 8 hvcurveto
          8 -6 3 -7 2 -10 16 -62 rcurveline
          56 hlineto
          8 43 2 41 -5 40 rrcurveto
          19 -27 -47 14 -48 hhcurveto
          -104 -78 -65 -128 -114 63 -72 105 hvcurveto
          -274 190 rmoveto
          168 114 117 162 163 112 -117 -168 -167 -113 -117 -162 -162 -114 117 167 vhcurveto
          -58 hmoveto
          -193 141 -140 193 193 140 140 193 193 -139 141 -194 -193 -141 -141 -193 vhcurveto
          endchar
        </CharString>
        <CharString name="currency">
          15 114 90 154 91 hstem
          88 95 144 95 vstem
          88 277 rmoveto
          -36 11 -32 18 -26 vhcurveto
          -82 -82 48 -49 85 85 rlineto
          -15 25 29 -8 32 hhcurveto
          32 30 9 16 26 hvcurveto
          85 -85 48 48 -85 84 rlineto
          20 28 12 34 37 vvcurveto
          35 -11 32 -18 27 vhcurveto
          84 82 -49 49 -85 -85 rlineto
          15 -26 -30 9 -33 hhcurveto
          -32 -30 -9 -16 -25 hvcurveto
          -85 85 -47 -49 84 -82 rlineto
          -19 -29 -12 -35 -37 vvcurveto
          167 -73 rmoveto
          -38 -34 34 42 40 25 38 45 38 36 -31 -47 -42 -24 -34 -48 hvcurveto
          endchar
        </CharString>
        <CharString name="d">
          7 -79 callsubr
          endchar
        </CharString>
        <CharString name="dagger">
          -133 399 50.5 hstem
          113 138 vstem
          209 -93 rmoveto
          30 454 2 7 5 5 8 2 rlinecurve
          87 24 rlineto
          52 vlineto
          -96 41 callgsubr
          -97 3 rlineto
          -52 vlineto
          87 -24 10 -3 5 -6 1 -9 rlinecurve
          29 -450 rlineto
          endchar
        </CharString>
        <CharString name="daggerdbl">
          -123 399 50.5 hstemhm
          117 138 -123.5 109 -91 73.5 hintmask 10010000
          214 -93 rmoveto
          18 282 1 8 4 7 11 3 rlinecurve
          98 28 rlineto
          53 vlineto
          hintmask 10100000
          -108 -4 5 72 rlineto
          hintmask 11000000
          1 9 5 7 10 3 87 24 rcurveline
          52 vlineto
          -97 41 callgsubr
          -96 3 rlineto
          -52 vlineto
          hintmask 10100000
          87 -24 8 -2 5 -5 2 -7 rlinecurve
          5 -77 -107 4 rlineto
          -53 vlineto
          hintmask 10010000
          98 -28 8 -2 5 -6 2 -7 rlinecurve
          19 -285 rlineto
          endchar
        </CharString>
        <CharString name="dcaron">
          20 -79 callsubr
          334 476 -36 callsubr
        </CharString>
        <CharString name="dcroat">
          7 -8 71 295 56 56 53 115 -20 37 -20 hstemhm
          30 138 131 131 hintmask 11101110
          170 470 rmoveto
          129 -61 hlineto
          3 -16 -20 2 -18 hhcurveto
          -138 -77 -78 -145 -139 69 -60 95 49 38 19 31 28 hvcurveto
          -33 16 29 -16 42 hhcurveto
          32 39 9 5 17 hvcurveto
          49 vlineto
          -36 5 rlineto
          -11 1 -7 5 16 vvcurveto
          387 53 53 -53 vlineto
          hintmask 11110110
          115 vlineto
          hintmask 11101110
          -18 17 -52 -1 -73 -9 -53 -14 rlinecurve
          -51 vlineto
          48 -7 -3 callgsubr
          -12 vvcurveto
          -29 -129 vlineto
          70 -460 rmoveto
          -47 -25 40 104 hvcurveto
          116 1 33 35 53 hhcurveto
          15 17 -3 -6 12 hvcurveto
          -272 vlineto
          -9 -18 -22 -5 -19 hhcurveto
          endchar
        </CharString>
        <CharString name="degree">
          -161 332 68 140 68 hstem
          28 75 128 76 vstem
          167 332 rmoveto
          78 62 59 79 75 -59 63 -81 -76 -63 -59 -79 -75 63 -63 76 hvcurveto
          68 vmoveto
          -35 -29 33 37 39 26 31 37 37 28 -33 -37 -40 -26 -30 -38 hvcurveto
          endchar
        </CharString>
        <CharString name="dieresis">
          -132 477 124 hstem
          33 17 callgsubr
          vstem
          155 539 -94 callgsubr
        </CharString>
        <CharString name="divide">
          -88 29 118 41 76 40 118 hstem
          138 132 vstem
          375 188 rmoveto
          76 -342 -76 vlineto
          237 -100 rmoveto
          36 -26 23 -40 -40 -26 -23 -36 -35 26 -24 40 40 26 24 35 vhcurveto
          275 vmoveto
          36 -26 23 -40 -40 -26 -23 -36 -36 26 -23 40 40 26 23 36 vhcurveto
          endchar
        </CharString>
        <CharString name="dollar">
          -48 39 callsubr
          40 49 callsubr
          420 -77 callgsubr
        </CharString>
        <CharString name="dollar.tf">
          -36 39 callsubr
          45 49 callsubr
          425 -77 callgsubr
        </CharString>
        <CharString name="dotaccent">
          -132 472 131 hstem
          119 143 vstem
          262 538 -87 callsubr
          endchar
        </CharString>
        <CharString name="dotlessi">
          -35 callgsubr
          hstem
          85 132 vstem
          -105 callgsubr
          endchar
        </CharString>
        <CharString name="dotlessj">
          -229 -175 -21 620 -20 hstem
          78 130 vstem
          191 424 -93 callsubr
          endchar
        </CharString>
        <CharString name="e">
          -27 callsubr
          hstem
          30 134 118 119 vstem
          -106 callgsubr
          endchar
        </CharString>
        <CharString name="eacute">
          -27 callsubr
          hstem
          30 134 118 119 vstem
          -106 callgsubr
          -39 84 -94 callsubr
        </CharString>
        <CharString name="ebreve">
          -27 callsubr
          48 86 hstem
          30 134 118 119 vstem
          -106 callgsubr
          148 223 -87 callgsubr
        </CharString>
        <CharString name="ecaron">
          -27 callsubr
          143 -20 hstem
          30 134 118 119 vstem
          -106 callgsubr
          117 288 -79 callgsubr
        </CharString>
        <CharString name="ecircumflex">
          -27 callsubr
          76 65 callsubr
          hstem
          30 134 118 119 vstem
          -106 callgsubr
          -118 88 -89 callgsubr
        </CharString>
        <CharString name="edieresis">
          -27 callsubr
          53 124 hstemhm
          30 134 -89 17 callgsubr
          -90 119 hintmask 11101001
          -106 callgsubr
          hintmask 11110110
          -30 168 -94 callgsubr
        </CharString>
        <CharString name="edotaccent">
          -27 callsubr
          48 131 hstemhm
          30 134 -3 143 -22 119 hintmask 11101010
          -106 callgsubr
          hintmask 11110100
          77 167 -87 callsubr
          endchar
        </CharString>
        <CharString name="egrave">
          -27 callsubr
          hstem
          30 134 118 119 vstem
          -106 callgsubr
          -55 288 -67 callgsubr
        </CharString>
        <CharString name="eight">
          -20 -12 56 415 54 hstemhm
          33 27 callsubr
          33 -69 callsubr
        </CharString>
        <CharString name="eight.tf">
          -36 -12 56 415 54 hstemhm
          25 27 callsubr
          25 -69 callsubr
        </CharString>
        <CharString name="ellipsis">
          185 -6 134 hstem
          40 147 80 146 81 146 vstem
          413 61 rmoveto
          -74 callsubr
          227 hmoveto
          -74 callsubr
          -453 hmoveto
          -45 callgsubr
        </CharString>
        <CharString name="emacron">
          -27 callsubr
          69 75 hstemhm
          30 134 -74 267 -75 119 hintmask 11111010
          -106 callgsubr
          hintmask 11110100
          -137 122 -11 callgsubr
        </CharString>
        <CharString name="emdash">
          318 174 85 hstem
          47 721 vstem
          47 174 rmoveto
          721 85 -721 hlineto
          endchar
        </CharString>
        <CharString name="endash">
          25 174 85 hstem
          47 428 vstem
          47 174 rmoveto
          428 85 -428 hlineto
          endchar
        </CharString>
        <CharString name="eng">
          32 -170 -21 26 -21 186 -5 callsubr
          123 134 hintmask 10111100
          474 9 rmoveto
          257 vlineto
          101 -30 56 -98 -54 -47 -18 -37 -35 vhcurveto
          -7 40 -19 16 -49 -1 -59 -7 -51 -75 callgsubr
          -10 -2 vhcurveto
          -40 -15 callgsubr
          -24 7 rlineto
          -10 4 -6 -15 callsubr
          21 6 20 hhcurveto
          43 19 -25 -68 hvcurveto
          -233 vlineto
          hintmask 01111100
          -68 -7 -33 -18 -19 vhcurveto
          -19 -20 -32 -7 -25 -5 3 -53 rcurveline
          hintmask 10111100
          -3 19 24 -2 19 hhcurveto
          121 49 73 127 hvcurveto
          endchar
        </CharString>
        <CharString name="enspace">
          -68 endchar
        </CharString>
        <CharString name="eogonek">
          -65 -189 70 110 80 154 48 98 53 hstemhm
          30 134 13 100 5 119 hintmask 11111100
          177 -113 rmoveto
          -50 45 -25 56 -1 vhcurveto
          36 40 10 18 29 hvcurveto
          27 callgsubr
          -15 -3 -15 hhcurveto
          -24 -20 12 27 31 22 30 45 39 hvcurveto
          2 2 3 1 2 2 25 20 15 21 9 23 -30 23 rcurveline
          -28 -25 -40 -13 -40 hhcurveto
          hintmask 11111010
          -40 callsubr
          4 17 2 23 19 vvcurveto
          81 -49 59 -116 -132 -74 -76 -144 -131 61 -82 134 vhcurveto
          hintmask 11111100
          12 11 1 1 10 hvcurveto
          -2 vlineto
          -32 -16 -49 -35 -53 vvcurveto
          hintmask 11111010
          50 484 rmoveto
          38 17 -34 -47 -7 0 -5 -1 -5 hvcurveto
          -115 hlineto
          74 6 22 24 33 hhcurveto
          endchar
        </CharString>
        <CharString name="equal">
          -57 99 82 83 83 hstem
          45 342 vstem
          387 264 rmoveto
          83 -342 -83 vlineto
          342 -165 rmoveto
          82 -342 -82 vlineto
          endchar
        </CharString>
        <CharString name="estimated">
          11 -12 56 183.5 52.5 168 51 hstem
          35 141 167 133 vstem
          176 417 rmoveto
          20 22 36 11 35 hhcurveto
          30 29 -8 -13 15 hvcurveto
          -147 -167 vlineto
          268 -244 rmoveto
          -25 47 rlineto
          -18 -26 -44 -21 -60 hhcurveto
          -48 -41 14 23 -24 hvcurveto
          147 vlineto
          296 -1 rlineto
          4 19 0 25 30 vvcurveto
          127 -4 -77 71 -123 hhcurveto
          -151 -86 -109 -145 -152 95 -105 151 70 59 22 26 34 hvcurveto
          endchar
        </CharString>
        <CharString name="eth">
          -19 -8 56 292 70 243 -20 21 -20 hstemhm
          30 142 131 136 hintmask 11011100
          439 238 rmoveto
          hintmask 11101100
          120 -46 114 -91 81 vhcurveto
          77 43 -36 57 rlineto
          hintmask 11011100
          -93 -61 -44 28 -52 21 -60 13 rlinecurve
          -23 -46 40 -21 33 -21 28 -22 rlinecurve
          -92 -53 35 -58 103 69 31 -35 22 -39 13 -47 rlinecurve
          20 -23 -32 9 -30 hhcurveto
          -74 -95 -55 -155 -138 74 -70 121 165 49 121 125 hvcurveto
          -202 -190 rmoveto
          -48 -17 57 94 110 23 31 43 25 19 -9 -15 15 hvcurveto
          4 -30 2 -32 -36 vvcurveto
          -126 -19 -44 -47 vhcurveto
          endchar
        </CharString>
        <CharString name="exclam">
          -238 -6 131 hstem
          57 144 vstem
          57 546 rmoveto
          33 -361 rlineto
          78 hlineto
          33 361 rlineto
          77 -144 vlineto
          145 -564 rmoveto
          40 -29 26 -44 -44 -29 -26 -40 -39 29 -26 44 44 29 26 39 vhcurveto
          endchar
        </CharString>
        <CharString name="exclamdown">
          -249 -182 -21 498 130 hstem
          51 145 vstem
          196 -203 rmoveto
          76 vlineto
          -33 361 rlineto
          -79 hlineto
          -33 -361 rlineto
          -76 vlineto
          145 563 rmoveto
          40 -28 25 -44 -45 -29 -25 -40 -40 29 -25 45 44 28 25 40 vhcurveto
          endchar
        </CharString>
        <CharString name="f">
          -153 0 56 287 70 138 103 45 callgsubr
          -129 128 hintmask 11101000
          88 429 rmoveto
          -15 vlineto
          hintmask 11110000
          -64 -12 -83 callsubr
          280 52 vlineto
          -74 34 callsubr
          hintmask 11101000
          -116 19 callgsubr
          71 rcurveline
          23 -31 -39 19 -40 hhcurveto
          -97 -99 -121 -104 hvcurveto
          endchar
        </CharString>
        <CharString name="f_b">
          316 -8 51 -43 56 287 70 -65 77 127 102 -15 -20 hstemhm
          85 129 -126 125 173 129 129 138 hintmask 0110101011000000
          305 hmoveto
          52 vlineto
          -73 34 callsubr
          hintmask 1010100111000000
          -116 60 hlineto
          62 47 17 43 31 27 12 callsubr
          hintmask 0101011011000000
          136 -67 61 -87 -44 -40 -16 -29 -29 vhcurveto
          259 vlineto
          hintmask 0110100111000000
          -17 16 -28 -5 -35 -12 -32 -13 rlinecurve
          17 -29 -33 12 -32 hhcurveto
          -111 -110 -113 -104 hvcurveto
          -23 vlineto
          hintmask 0110101011000000
          -64 -12 -83 callsubr
          vlineto
          hintmask 1001101011000000
          530 43 rmoveto
          -18 60 callsubr
          19 5 17 hhcurveto
          50 27 -34 -110 -1 hvcurveto
          -113 -2 -28 -48 -55 hhcurveto
          endchar
        </CharString>
        <CharString name="f_f">
          152 0 56 287 70 116 102 -80 103 -22 callsubr
          hintmask 11011100
          -65 callsubr
          180 -264 vlineto
          -12 0 callgsubr
          -36 -44 callgsubr
          274 52 vlineto
          -75 8 rlineto
          -11 1 35 callgsubr
          264 114 70 vlineto
          hintmask 11011010
          -115 19 callgsubr
          74 rcurveline
          21 -31 -39 18 -40 hhcurveto
          -97 -96 -121 -104 hvcurveto
          -16 -183 vlineto
          hintmask 11101100
          -91 callsubr
          endchar
        </CharString>
        <CharString name="f_f_b">
          625 -8 51 -43 56 287 70 -65 77 104 102 -79 102 -15 -20 -22 callsubr
          173 129 128 139 hintmask 0110010110110000
          -65 callsubr
          180 -264 vlineto
          -12 0 callgsubr
          -54 callsubr
          276 52 vlineto
          -74 8 rlineto
          -11 1 35 callgsubr
          264 114 70 vlineto
          hintmask 1010010101110000
          -115 60 hlineto
          62 47 17 42 31 28 12 callsubr
          hintmask 0101001110110000
          61 callsubr
          vhcurveto
          259 vlineto
          hintmask 0110010101110000
          -17 16 -28 -5 -35 -12 -33 -13 rlinecurve
          17 -28 -33 12 -33 hhcurveto
          -110 -110 -113 -104 hvcurveto
          -24 -183 vlineto
          hintmask 0110100110110000
          -91 callsubr
          hintmask 1001010110110000
          838 43 rmoveto
          -17 60 callsubr
          18 5 18 hhcurveto
          50 27 -34 -110 -2 hvcurveto
          -113 -1 -28 -48 -56 hhcurveto
          endchar
        </CharString>
        <CharString name="f_f_h">
          663 -44 callsubr
          287.5 70 -68 78 106 102 -79 102 -16 -20 -22 callsubr
          181 128 125 131 hintmask 1100101101100000
          -66 callgsubr
          hintmask 1100101011100000
          -115 -20 callgsubr
          -9 27 vhcurveto
          -459 vlineto
          -12 -81 callgsubr
          -54 callsubr
          225 52 vlineto
          -25 -8 callsubr
          hintmask 1010011101100000
          247 vlineto
          12 21 22 6 20 hhcurveto
          43 19 -25 -68 hvcurveto
          -172 vlineto
          -12 -5 28 callgsubr
          -25 -44 callgsubr
          229 -62 callgsubr
          -52 -43 -16 -33 -34 vhcurveto
          264 vlineto
          hintmask 1100101011100000
          -35 callsubr
          hintmask 1101001101100000
          -91 callsubr
          endchar
        </CharString>
        <CharString name="f_f_k">
          648 -44 callsubr
          287.5 70 -49 49 116 102 -79 102 -16 -20 -22 callsubr
          181 128 68 217 hintmask 1100101101000000
          -66 callgsubr
          hintmask 1100101011000000
          -115 -20 callgsubr
          -9 27 vhcurveto
          -459 vlineto
          -11 -6 -8 -11 -2 vhcurveto
          -54 callsubr
          239 52 vlineto
          -38 -91 callgsubr
          56 vlineto
          48 47 7 -12 7 -41 callsubr
          -6 4 -6 13 rlinecurve
          -58 111 rlineto
          hintmask 1010101101100000
          -17 33 -14 23 -17 20 68 66 rcurveline
          12 11 7 2 19 4 43 11 rcurveline
          hintmask 1100101101100000
          49 -217 vlineto
          hintmask 1010011101100000
          -49 vlineto
          67 -12 -135 -143 rlineto
          429 vlineto
          hintmask 1100101011000000
          -35 callsubr
          hintmask 1101001101000000
          -91 callsubr
          endchar
        </CharString>
        <CharString name="f_f_l">
          412 -44 callsubr
          287.5 70 116 102 -79 102 -16 -20 -22 callsubr
          181 128 hintmask 1101011010000000
          -66 callgsubr
          hintmask 1101010110000000
          -115 -20 callgsubr
          -9 27 vhcurveto
          -460 -23 callgsubr
          -54 callsubr
          245 53 callsubr
          hintmask 1100111010000000
          558 vlineto
          hintmask 1101010110000000
          -35 callsubr
          hintmask 1110011010000000
          -91 callsubr
          endchar
        </CharString>
        <CharString name="f_h">
          354 -44 callsubr
          287.5 70 -68 78 129 -4 callsubr
          124 132 hintmask 1101010110000000
          -65 callsubr
          115 70 vlineto
          hintmask 1101001110000000
          -116 -20 callgsubr
          -8 27 vhcurveto
          -460 vlineto
          -12 -81 callgsubr
          -54 callsubr
          225 52 vlineto
          -24 -8 callsubr
          hintmask 1010110110000000
          248 vlineto
          11 20 22 6 20 hhcurveto
          43 19 -25 -68 hvcurveto
          -172 vlineto
          -12 -5 28 callgsubr
          -24 -15 callgsubr
          -40 7 rlineto
          -11 1 callsubr
          186 vlineto
          100 -30 57 -97 46 callsubr
          263 vlineto
          hintmask 1101001110000000
          -31 callsubr
          hintmask 1101010110000000
          -29 callsubr
        </CharString>
        <CharString name="f_k">
          340 -44 callsubr
          287.5 70 -49 49 139 -4 callsubr
          67 217 hintmask 1101010100000000
          -65 callsubr
          115 70 vlineto
          hintmask 1101001100000000
          -116 -20 callgsubr
          -8 27 vhcurveto
          -460 vlineto
          -11 -6 -8 -11 -2 vhcurveto
          -54 callsubr
          239 52 vlineto
          -38 7 rlineto
          -11 1 callsubr
          57 vlineto
          47 46 8 -12 6 -41 callsubr
          -5 4 -7 13 rlinecurve
          -58 111 rlineto
          hintmask 1011010110000000
          -17 33 -13 22 -17 20 68 67 rcurveline
          11 11 7 2 20 4 42 11 rcurveline
          hintmask 1101010110000000
          49 -217 vlineto
          hintmask 1010110110000000
          -49 vlineto
          67 -12 -134 -142 rlineto
          428 vlineto
          hintmask 1101001100000000
          -31 callsubr
          hintmask 1101010100000000
          -29 callsubr
        </CharString>
        <CharString name="f_l">
          104 -44 callsubr
          287.5 70 139 -4 callsubr
          hintmask 11101010
          -65 callsubr
          115 70 vlineto
          hintmask 11100110
          -116 -20 callgsubr
          -8 27 vhcurveto
          -461 -23 callgsubr
          -54 callsubr
          246 53 callsubr
          hintmask 11011010
          558 vlineto
          hintmask 11100110
          -31 callsubr
          hintmask 11101010
          -29 callsubr
        </CharString>
        <CharString name="five">
          -61 -12 78 184 78 80 94 hstem
          262 142 vstem
          55 -47 callsubr
        </CharString>
        <CharString name="five.tf">
          -36 -12 78 184 78 80 94 hstem
          274 142 vstem
          67 -47 callsubr
        </CharString>
        <CharString name="four">
          -33 3 callsubr
          249 120 hintmask 01011000
          31 -43 callsubr
        </CharString>
        <CharString name="four.dnom">
          -106 21 -21 68 16 callgsubr
          17 hstem
          205 91 vstem
          50 -31 callgsubr
        </CharString>
        <CharString name="four.numr">
          -106 295 16 callgsubr
          -20 20 17 hstemhm
          208 91 hintmask 11010000
          53 -34 callgsubr
        </CharString>
        <CharString name="four.tf">
          -36 3 callsubr
          248 120 hintmask 01011000
          30 -43 callsubr
        </CharString>
        <CharString name="foursuperior">
          -118 295 16 callgsubr
          -20 20 17 hstemhm
          202 91 hintmask 11010000
          47 -34 callgsubr
        </CharString>
        <CharString name="fraction">
          -10 callsubr
        </CharString>
        <CharString name="g">
          -92 callgsubr
          endchar
        </CharString>
        <CharString name="gbreve">
          -41 callgsubr
          73 86 -16 callsubr
          hintmask 1110101001010000
          -69 callgsubr
          hintmask 1111001010100000
          -32 callgsubr
          hintmask 1110011010100000
          89 vlineto
          hintmask 1110101010100000
          -67 callsubr
          hintmask 1110101001100000
          -26 callgsubr
          hintmask 1110101100100000
          -21 callsubr
          hintmask 1110101001010000
          153 97 65 102 hvcurveto
          hintmask 1110101100010000
          -76 callgsubr
          hintmask 1110101010100000
          -53 callgsubr
          207 312 -87 callgsubr
        </CharString>
        <CharString name="gcircumflex">
          -41 callgsubr
          101 65 callsubr
          -16 callsubr
          hintmask 1110101100101000
          -69 callgsubr
          hintmask 1111001101010000
          -32 callgsubr
          hintmask 1110011101010000
          89 vlineto
          hintmask 1110101101010000
          -67 callsubr
          hintmask 1110101100110000
          -26 callgsubr
          hintmask 1110101110010000
          -21 callsubr
          hintmask 1110101100101000
          153 97 65 102 hvcurveto
          hintmask 1110101110001000
          -76 callgsubr
          hintmask 1110101101010000
          -53 callgsubr
          -59 177 -89 callgsubr
        </CharString>
        <CharString name="gcommaaccent">
          -92 callgsubr
          -5 266 -24 callsubr
        </CharString>
        <CharString name="gdotaccent">
          -41 callgsubr
          73 131 -7 callgsubr
          10 143 -25 128 -82 135 hintmask 1110100001001000
          -69 callgsubr
          hintmask 1111000010010000
          -32 callgsubr
          hintmask 1110010010010000
          89 vlineto
          hintmask 1110100010010000
          -67 callsubr
          hintmask 1110100001010000
          -26 callgsubr
          hintmask 1110100100010000
          -21 callsubr
          hintmask 1110100001001000
          153 97 65 102 hvcurveto
          hintmask 1110100100001000
          -76 callgsubr
          hintmask 1110100010010000
          -53 callgsubr
          hintmask 1110101000100000
          136 256 -87 callsubr
          endchar
        </CharString>
        <CharString name="germandbls">
          111 -11 51 -40 -78 callsubr
          -55.5 141 273 -20 22 -20 180 78 hstemhm
          85 131 72 126 -31 132 -54 131 hintmask 1000111101000000
          592 122 rmoveto
          61 -34 33 -67 40 vhcurveto
          -51 31 -26 18 29 vvcurveto
          33 33 22 48 11 vhcurveto
          hintmask 0101011010000000
          13 35 7 32 30 vvcurveto
          106 -2 -91 51 -91 hhcurveto
          -132 -114 -108 -110 hvcurveto
          -22 vlineto
          -61 -12 rlineto
          -50 vlineto
          61 -10 rlineto
          -263 -23 callgsubr
          -54 callsubr
          187 473 vlineto
          74 31 29 49 56 31 -39 -62 vhcurveto
          hintmask 0100111010000000
          -20 -3 -19 -5 -20 vhcurveto
          hintmask 1000111101000000
          -49 -25 -38 -39 -56 vvcurveto
          -55 35 -33 51 -30 vhcurveto
          49 -29 38 -23 -41 vvcurveto
          -28 -22 -17 -28 -18 -15 7 9 -10 vhcurveto
          hintmask 0010111100000000
          -9 7 -3 6 -5 17 -15 55 rcurveline
          -65 hlineto
          hintmask 1000111000000000
          -4 -22 -2 -25 -25 vvcurveto
          -16 1 -18 2 -16 vhcurveto
          -16 38 55 -14 55 hhcurveto
          hintmask 1000111101000000
          100 76 44 89 hvcurveto
          endchar
        </CharString>
        <CharString name="grave">
          -132 455 204 hstem
          59 210 vstem
          130 659 -67 callgsubr
        </CharString>
        <CharString name="gravecomb">
          455 204 hstem
          -123 210 vstem
          -52 659 -67 callgsubr
        </CharString>
        <CharString name="gravecomb.case">
          651 -20 hstem
          -142 244 vstem
          -84 780 -47 callgsubr
          endchar
        </CharString>
        <CharString name="greater">
          -91 414 -20 hstem
          37 342 vstem
          379 188 rmoveto
          69 vlineto
          -304 157 -38 -81 239 -110 -239 -110 38 -82 rlineto
          endchar
        </CharString>
        <CharString name="greaterequal">
          -72 0 79 hstem
          44 342 vstem
          386 269 rmoveto
          68 vlineto
          -305 147 -34 -83 237 -98 -237 -99 34 -81 rlineto
          298 -123 rmoveto
          79 -335 -79 vlineto
          endchar
        </CharString>
        <CharString name="guillemotleft">
          50 420 -20 hstem
          26 491 vstem
          26 193 -25 callsubr
          237 -58 -25 callsubr
          endchar
        </CharString>
        <CharString name="guillemotright">
          47 420 -20 hstem
          29 488 -4 callgsubr
          451 166 15 callsubr
          endchar
        </CharString>
        <CharString name="guilsinglleft">
          -187 420 -20 hstem
          26 254 vstem
          26 193 -25 callsubr
          endchar
        </CharString>
        <CharString name="guilsinglright">
          -187 420 -20 hstem
          29 254 -4 callgsubr
          endchar
        </CharString>
        <CharString name="h">
          -80 callsubr
          endchar
        </CharString>
        <CharString name="hbar">
          37 -44 callsubr
          280.5 77 54 52 118 -20 38 -20 hstemhm
          75 131 125 131 hintmask 11101110
          15 467 rmoveto
          60 -387 hlineto
          -12 -7 -73 callsubr
          -54 callsubr
          229 52 vlineto
          -25 -8 callsubr
          239 vlineto
          11 20 22 6 20 hhcurveto
          44 19 -25 -68 hvcurveto
          -163 vlineto
          -12 -6 28 callgsubr
          -24 -7 rlineto
          -52 228 -77 callsubr
          177 vlineto
          100 -29 56 -98 46 callsubr
          102 119 52 -119 vlineto
          hintmask 11110110
          118 vlineto
          hintmask 11101110
          -18 18 rlineto
          -52 -73 -6 -14 -52 hvcurveto
          -51 vlineto
          47 -8 rlineto
          11 -1 6 -8 -11 vvcurveto
          -37 -60 vlineto
          endchar
        </CharString>
        <CharString name="hcircumflex">
          -80 callsubr
          23 677 -83 callgsubr
          -23 callsubr
        </CharString>
        <CharString name="hungarumlaut">
          -132 463 200 hstem
          58 337 vstem
          99 463 -62 callsubr
        </CharString>
        <CharString name="hyphen">
          -121 175 84 hstem
          47 281 vstem
          47 175 rmoveto
          281 84 -281 hlineto
          endchar
        </CharString>
        <CharString name="i">
          -205 0 -9 callgsubr
          73 143 -131 132 hintmask 11101000
          -105 callgsubr
          hintmask 11110000
          -1 458 -87 callsubr
          endchar
        </CharString>
        <CharString name="iacute">
          -35 callgsubr
          hstem
          85 132 vstem
          -105 callgsubr
          -117 375 -94 callsubr
        </CharString>
        <CharString name="iacute_j.NLD">
          63 -175 -21 196 -34 callsubr
          hstem
          85 132 152 130 vstem
          -105 callgsubr
          265 344 -93 callsubr
          -399 47 rmoveto
          74 40 72 51 37 46 -72 67 rcurveline
          -144 -164 rlineto
          310 -40 -94 callsubr
        </CharString>
        <CharString name="ibreve">
          -35 callgsubr
          68 84 hstem
          85 132 vstem
          -105 callgsubr
          63 514 -21 callgsubr
        </CharString>
        <CharString name="icircumflex">
          -35 callgsubr
          241 -20 hstem
          85 132 vstem
          -105 callgsubr
          -181 380 -19 callgsubr
        </CharString>
        <CharString name="idieresis">
          -35 callgsubr
          73 124 hstemhm
          -13 122 -24 132 -54 121 hintmask 11101000
          -105 callgsubr
          hintmask 11110100
          -108 459 -94 callgsubr
        </CharString>
        <CharString name="igrave">
          -35 callgsubr
          hstem
          85 132 vstem
          -105 callgsubr
          -133 579 -67 callgsubr
        </CharString>
        <CharString name="ij">
          57 -175 -21 196 -9 callgsubr
          73 143 -131 132 127 143 -124 130 hintmask 11110101
          -105 callgsubr
          hintmask 11111001
          -1 458 -87 callsubr
          260 -114 -93 callsubr
          hintmask 11110110
          -6 130 -87 callsubr
          endchar
        </CharString>
        <CharString name="imacron">
          -35 callgsubr
          89 75 hstemhm
          13 246 -174 132 hintmask 11101000
          -105 callgsubr
          hintmask 11110000
          -204 413 rmoveto
          246 75 -246 hlineto
          endchar
        </CharString>
        <CharString name="infinity">
          224 49 74 -71 86 157 86 -71 74 hstemhm
          35 87 475 88 hintmask 10011100
          685 231 rmoveto
          hintmask 10101100
          88 -58 62 -84 -70 -54 -44 -55 -34 vhcurveto
          hintmask 01011100
          72 -58 -45 30 -64 hhcurveto
          -105 -78 -79 -102 -89 58 -62 83 70 55 43 55 34 hvcurveto
          hintmask 10011100
          -71 58 45 -30 64 hhcurveto
          105 78 79 103 hvcurveto
          hintmask 01011100
          -472 -93 rmoveto
          -53 -38 45 55 43 23 29 31 39 33 -48 -76 59 hvcurveto
          -34 -33 -31 -14 -30 hhcurveto
          hintmask 10101100
          331 -15 rmoveto
          -40 -33 48 76 -59 hvcurveto
          34 34 30 14 30 hhcurveto
          54 37 -44 -56 -43 -22 -29 -31 hvcurveto
          endchar
        </CharString>
        <CharString name="integral">
          -140 -194 74 714 73 hstemhm
          65 136 -45 136 hintmask 11010000
          292 hmoveto
          hintmask 11100000
          135 -91 231 127 vvcurveto
          76 32 25 39 20 19 -6 -12 21 vhcurveto
          29 45 rlineto
          29 -29 -45 17 -47 hhcurveto
          -91 -84 -64 -130 hvcurveto
          hintmask 11010000
          -135 91 -230 -128 vvcurveto
          -76 -32 -24 -40 -19 -19 5 12 -22 vhcurveto
          -28 -45 rlineto
          -29 28 45 -17 47 hhcurveto
          92 84 65 129 hvcurveto
          endchar
        </CharString>
        <CharString name="iogonek">
          -205 43 callgsubr
          -9 callgsubr
          43 102 -72 143 -131 132 hintmask 11110010
          252 -161 rmoveto
          hintmask 11111000
          9 callgsubr
          hintmask 11110010
          45 52 hlineto
          -39 -91 callgsubr
          328 vlineto
          -100 callgsubr
          hintmask 11111000
          13 callsubr
          hintmask 11110010
          36 41 10 18 29 hvcurveto
          hintmask 11110100
          -36 699 -87 callsubr
          endchar
        </CharString>
        <CharString name="itilde">
          -35 callgsubr
          65 4 callsubr
          85 132 hintmask 11001100
          -105 callgsubr
          72 501 rmoveto
          hintmask 11100100
          -39 19 rlineto
          -25 -14 -19 -19 -21 hhcurveto
          hintmask 11010100
          6 callgsubr
          hintmask 11100100
          31 28 -52 48 hhcurveto
          hintmask 11001100
          55 38 53 59 14 hvcurveto
          endchar
        </CharString>
        <CharString name="j">
          -228 -175 -21 620 -20 68 131 hstemhm
          59 143 -124 130 hintmask 11101000
          191 424 -93 callsubr
          hintmask 11110000
          -6 130 -87 callsubr
          endchar
        </CharString>
        <CharString name="jacute">
          -228 -175 -21 620 -20 hstem
          78 130 vstem
          191 424 -93 callsubr
          -122 47 -94 callsubr
        </CharString>
        <CharString name="jcircumflex">
          -228 -175 -21 620 -20 241 -20 hstem
          78 130 vstem
          191 424 -93 callsubr
          -186 52 -19 callgsubr
        </CharString>
        <CharString name="k">
          23 -44 callsubr
          308.5 49 226 -20 36 -20 hstemhm
          75 130 68 217 hintmask 11011100
          -56 callgsubr
          hintmask 11101100
          430 vlineto
          hintmask 11011100
          -22 callgsubr
          endchar
        </CharString>
        <CharString name="kcommaaccent">
          23 22 callsubr
          -78 callsubr
          308.5 49 226 -20 36 -20 hstemhm
          75 130 55 87 -74 217 hintmask 11101101
          -56 callgsubr
          hintmask 11110101
          430 vlineto
          hintmask 11101110
          -22 callgsubr
          329 -113 -104 callgsubr
        </CharString>
        <CharString name="l">
          -211 0 -18 callgsubr
          hintmask 11010000
          208 638 rmoveto
          hintmask 10110000
          -86 callgsubr
          endchar
        </CharString>
        <CharString name="lacute">
          -211 -44 callsubr
          582.5 -20 37 -20 117 -21 hstemhm
          77 131 hintmask 11011000
          208 638 rmoveto
          hintmask 10111000
          -86 callgsubr
          78 694 -93 callgsubr
          endchar
        </CharString>
        <CharString name="lcaron">
          -198 0 -18 callgsubr
          hintmask 11010000
          208 638 rmoveto
          hintmask 10110000
          -86 callgsubr
          98 388 -36 callsubr
        </CharString>
        <CharString name="lcommaaccent">
          -211 22 callsubr
          -18 callgsubr
          -92 87 hintmask 11101000
          208 638 rmoveto
          hintmask 11011000
          -86 callgsubr
          hintmask 11010100
          -5 -193 -104 callgsubr
        </CharString>
        <CharString name="ldot">
          -134 -44 callsubr
          153.5 134 295 -20 37 -20 hstemhm
          77 131 38 147 hintmask 11101000
          208 638 rmoveto
          hintmask 11011100
          -86 callgsubr
          185 196 16 callsubr
        </CharString>
        <CharString name="less">
          -91 414 -20 hstem
          26 341 vstem
          367 113 rmoveto
          -238 111 238 109 -37 81 -304 -157 rlineto
          -69 vlineto
          304 -157 rlineto
          endchar
        </CharString>
        <CharString name="lessequal">
          -72 0 79 hstem
          39 341 vstem
          377 205 rmoveto
          -235 99 235 99 -34 81 -304 -147 rlineto
          -68 vlineto
          304 -146 rlineto
          37 -123 rmoveto
          79 -334 -79 vlineto
          endchar
        </CharString>
        <CharString name="logicalnot">
          -38 181 83 hstem
          319 88 vstem
          47 181 rmoveto
          272 -144 88 227 -360 hlineto
          endchar
        </CharString>
        <CharString name="lslash">
          -196 -44 callsubr
          358.5 -20 244 -20 37 -20 hstemhm
          86 131 hintmask 11011000
          10 228 rmoveto
          76 35 rlineto
          -184 -23 callgsubr
          -44 -44 callgsubr
          253 52 vlineto
          -43 7 rlineto
          -12 2 -6 7 12 vvcurveto
          231 vlineto
          76 34 rlineto
          69 vlineto
          -76 -37 rlineto
          hintmask 11101000
          261 vlineto
          hintmask 11011000
          -17 17 -53 -1 -73 -9 -52 -14 rlinecurve
          -51 vlineto
          47 -7 -3 callgsubr
          -12 vvcurveto
          -224 vlineto
          -76 -33 rlineto
          endchar
        </CharString>
        <CharString name="m">
          293 0 52 -52 -5 callsubr
          119 131 119 131 hintmask 01111100
          774 hmoveto
          hintmask 10111100
          52 vlineto
          hintmask 01111100
          -40 -91 callgsubr
          183 vlineto
          101 -28 59 -99 -55 -50 -18 -39 -35 vhcurveto
          37 -18 -34 20 -58 hhcurveto
          -53 -45 -17 -36 -32 hvcurveto
          -7 38 -19 16 -49 -1 -59 -7 -51 -75 callgsubr
          -10 -2 vhcurveto
          hintmask 10111100
          -40 -7 rlineto
          hintmask 01111100
          -52 227 vlineto
          hintmask 10111100
          52 vlineto
          -24 7 rlineto
          -11 4 -4 5 12 vvcurveto
          250 vlineto
          10 18 21 5 18 hhcurveto
          44 18 -25 -68 hvcurveto
          -172 vlineto
          -12 -6 28 callgsubr
          -22 -7 rlineto
          hintmask 01111100
          -52 209 vlineto
          hintmask 10111100
          52 vlineto
          -23 -8 callsubr
          186 vlineto
          23 -2 20 -3 18 vhcurveto
          13 21 21 5 19 hhcurveto
          44 19 -28 -69 hvcurveto
          -168 vlineto
          -12 -5 -5 -12 -4 vhcurveto
          -22 -7 rlineto
          hintmask 01111100
          -52 vlineto
          endchar
        </CharString>
        <CharString name="macron">
          -132 493 75 hstem
          48 267 vstem
          48 493 -11 callgsubr
        </CharString>
        <CharString name="minus">
          -68 181 83 hstem
          48 332 vstem
          48 181 rmoveto
          332 83 -332 hlineto
          endchar
        </CharString>
        <CharString name="minute">
          -292 405 247 hstem
          35 153 vstem
          35 405 rmoveto
          20 callsubr
          endchar
        </CharString>
        <CharString name="multiply">
          -93 56 337 hstem
          36 331 vstem
          98 56 rmoveto
          103 113 104 -113 62 64 -108 104 108 104 -63 65 -103 -113 -102 113 -63 -65 108 -104 -108 -104 rlineto
          endchar
        </CharString>
        <CharString name="n">
          48 0 19 callsubr
          hstem
          85 132 124 131 vstem
          529 -102 callsubr
          endchar
        </CharString>
        <CharString name="nacute">
          48 0 19 callsubr
          hstem
          85 132 124 131 vstem
          529 -102 callsubr
          -62 455 -94 callsubr
        </CharString>
        <CharString name="napostrophe">
          72 0 19 callsubr
          228 -20 hstemhm
          19 94 -4 132 124 131 hintmask 11101100
          553 -102 callsubr
          hintmask 11110100
          -211 -29 callgsubr
        </CharString>
        <CharString name="ncaron">
          48 0 19 callsubr
          144 -20 hstem
          85 132 124 131 vstem
          529 -102 callsubr
          94 659 -79 callgsubr
        </CharString>
        <CharString name="ncommaaccent">
          48 22 callsubr
          -5 callsubr
          39 87 -2 131 hintmask 11110100
          529 -102 callsubr
          hintmask 11111000
          43 -113 -104 callgsubr
        </CharString>
        <CharString name="nine">
          -25 -12 72 113 72 211 57 hstem
          29 128 140 139 vstem
          232 -52 callsubr
        </CharString>
        <CharString name="nine.tf">
          -36 -12 72 113 72 211 57 hstem
          23 128 140 139 vstem
          226 -52 callsubr
        </CharString>
        <CharString name="notequal">
          -82 99 82 83 83 hstem
          36 342 vstem
          378 99 rmoveto
          82 -156 vlineto
          33 83 rlineto
          123 83 -90 hlineto
          36 92 rlineto
          -65 hlineto
          -36 -92 rlineto
          -187 -83 154 hlineto
          -33 -83 rlineto
          -121 -82 89 hlineto
          -35 -88 rlineto
          65 hlineto
          35 88 rlineto
          endchar
        </CharString>
        <CharString name="ntilde">
          48 0 19 callsubr
          46 4 callsubr
          85 132 124 131 hintmask 11001110
          529 -102 callsubr
          137 581 -64 callsubr
        </CharString>
        <CharString name="numbersign">
          51 0 193 -66 66 120 65 -65 186 hstemhm
          45 176 -74.5 98 98 173 hintmask 10010110
          94 hmoveto
          98 hlineto
          hintmask 01010110
          14 127 rlineto
          99 hlineto
          hintmask 10010110
          -14 -127 rlineto
          98 hlineto
          hintmask 01010110
          14 127 rlineto
          97 hlineto
          hintmask 10010110
          -1 66 rlineto
          -88 hlineto
          12 120 rlineto
          92 hlineto
          hintmask 10100110
          1 65 rlineto
          -83 hlineto
          hintmask 10010110
          14 37 callgsubr
          -98 hlineto
          hintmask 10010110
          13 37 callgsubr
          hintmask 10101010
          -95 hlineto
          hintmask 10011010
          -65 86 vlineto
          -14 -120 rlineto
          -84 hlineto
          hintmask 01011010
          1 -66 rlineto
          75 hlineto
          hintmask 10011010
          106 66 rmoveto
          12 120 rlineto
          98 hlineto
          -14 -120 rlineto
          endchar
        </CharString>
        <CharString name="o">
          0 callsubr
          hstem
          29 142 136 141 vstem
          -102 callgsubr
          endchar
        </CharString>
        <CharString name="oacute">
          0 callsubr
          hstem
          29 142 136 141 vstem
          -102 callgsubr
          174 252 -94 callsubr
        </CharString>
        <CharString name="obreve">
          0 callsubr
          47 86 hstem
          29 142 136 141 vstem
          -102 callgsubr
          361 391 -87 callgsubr
        </CharString>
        <CharString name="ocircumflex">
          0 callsubr
          75 65 callsubr
          hstem
          29 142 136 141 vstem
          -102 callgsubr
          95 256 -89 callgsubr
        </CharString>
        <CharString name="odieresis">
          0 callsubr
          52 124 hstemhm
          29 142 -81 17 callgsubr
          -80 141 hintmask 11010010
          -102 callgsubr
          hintmask 11101100
          183 336 -94 callgsubr
        </CharString>
        <CharString name="oe">
          212 -9 55 -55 80 154 48 96 56 -54 53 hstemhm
          29 142 134 137 117 120 hintmask 10110111
          171 207 rmoveto
          123 20 39 46 50 18 -44 -117 -124 -20 -38 -46 -51 -17 46 115 vhcurveto
          505 -116 rmoveto
          hintmask 01101111
          -29 21 rlineto
          -28 -24 -40 -13 -40 hhcurveto
          -40 callsubr
          3 17 3 23 18 vvcurveto
          82 -51 59 -111 -58 -47 -16 -31 -33 vhcurveto
          hintmask 10110111
          32 -31 -46 16 -62 hhcurveto
          -117 -94 -61 -160 -147 78 -66 121 62 49 16 34 34 hvcurveto
          -32 31 44 -18 59 hhcurveto
          80 69 33 67 20 hvcurveto
          hintmask 10101111
          -172 280 rmoveto
          39 16 -34 -47 hvcurveto
          -17 -115 vlineto
          74 6 21 24 33 hhcurveto
          endchar
        </CharString>
        <CharString name="ogonek">
          -132 -189 70 hstem
          79 100 vstem
          285 -32 callsubr
        </CharString>
        <CharString name="ograve">
          0 callsubr
          hstem
          29 142 136 141 vstem
          -102 callgsubr
          158 456 -67 callgsubr
        </CharString>
        <CharString name="ohungarumlaut">
          0 callsubr
          hstem
          29 142 136 141 vstem
          -102 callgsubr
          127 260 -62 callsubr
        </CharString>
        <CharString name="omacron">
          0 callsubr
          68 75 hstemhm
          29 142 -66 267 -65 141 hintmask 11110100
          -102 callgsubr
          hintmask 11101000
          76 290 -11 callgsubr
        </CharString>
        <CharString name="one">
          -133 0 51 452 -20 31 -20 hstemhm
          138 127 hintmask 11010000
          265 -38 callgsubr
        </CharString>
        <CharString name="one.dnom">
          -106 0 51 hstem
          166 96 vstem
          262 359 -85 callsubr
          endchar
        </CharString>
        <CharString name="one.numr">
          -106 227 51 hstem
          163 96 vstem
          259 586 -85 callsubr
          endchar
        </CharString>
        <CharString name="one.tf">
          -36 0 51 452 -20 31 -20 hstemhm
          183 127 hintmask 11010000
          310 -38 callgsubr
        </CharString>
        <CharString name="onehalf">
          400 0 63 164 51 24 67 199 -20 hstemhm
          138 96 501 106 hintmask 11011100
          234 586 -85 callsubr
          76 -308 rmoveto
          -42 callgsubr
          351 hmoveto
          -53 callsubr
          hintmask 11111100
          -55 callsubr
        </CharString>
        <CharString name="onequarter">
          410 21 -21 68 54.5 104.5 51 70 17 203 -20 hstem
          140 96 494 91 vstem
          236 586 -85 callsubr
          76 -308 rmoveto
          -42 callgsubr
          349 -31 callgsubr
        </CharString>
        <CharString name="onesuperior">
          -143 227 51 hstem
          144 96 vstem
          240 586 -85 callsubr
          endchar
        </CharString>
        <CharString name="ordfeminine">
          -92 247 60 74.5 40.5 81 72 hstem
          33 118 69 112 vstem
          131 247 rmoveto
          41 34 12 24 22 hvcurveto
          -28 14 26 -8 34 hhcurveto
          25 30 7 4 17 hvcurveto
          42 vlineto
          -27 3 rlineto
          -10 1 -5 4 12 vvcurveto
          129 vlineto
          82 -40 44 -98 -83 -47 -31 -51 -20 vhcurveto
          26 -21 rlineto
          20 25 29 11 35 hhcurveto
          40 21 -12 -41 hvcurveto
          -28 vlineto
          -57 -3 rlineto
          -71 -3 -59 -34 -57 vvcurveto
          -46 37 -32 61 vhcurveto
          50 60 rmoveto
          -22 -8 10 22 20 7 21 36 1 hvcurveto
          26 1 rlineto
          -65 vlineto
          -6 -11 -13 -4 -15 hhcurveto
          endchar
        </CharString>
        <CharString name="ordmasculine">
          -92 243 46 239 46 hstem
          31 124 93 125 vstem
          248 404 rmoveto
          -89 -15 -26 -30 -37 -11 27 96 90 16 26 30 36 11 -27 -97 vhcurveto
          -217 hmoveto
          -115 65 -46 101 101 75 42 127 116 -65 46 -101 -101 -75 -43 -127 vhcurveto
          endchar
        </CharString>
        <CharString name="oslash">
          -18 -9 52 -26 -21 376 53 -6 -20 hstemhm
          29 130 160 129 hintmask 10101100
          448 212 rmoveto
          hintmask 10011100
          92 -31 61 -54 32 vhcurveto
          31 64 -54 28 -34 -70 rlineto
          hintmask 01101100
          4 -19 -20 2 -22 hhcurveto
          -122 -94 -59 -163 -94 32 -61 57 -31 hvcurveto
          -34 -70 55 -28 38 77 rlineto
          hintmask 10101100
          -3 17 19 -2 20 hhcurveto
          123 92 57 164 hvcurveto
          -289 1 rmoveto
          120 28 39 50 19 15 -4 -10 12 vhcurveto
          -114 -254 rlineto
          -7 26 -3 36 47 vvcurveto
          82 -170 rmoveto
          -17 -15 4 8 -11 hvcurveto
          112 251 rlineto
          6 -26 3 -34 -44 vvcurveto
          -120 -28 -39 -50 vhcurveto
          endchar
        </CharString>
        <CharString name="otilde">
          0 callsubr
          44 4 callsubr
          29 142 136 141 hintmask 11001110
          -102 callgsubr
          373 378 -64 callsubr
        </CharString>
        <CharString name="p">
          9 -180 55 117 51 -27 -21 353 77 hstemhm
          77 132 128 139 hintmask 11011100
          251 38 callgsubr
          7 14 18 6 21 hhcurveto
          52 24 -40 -101 -1 hvcurveto
          -125 -34 -39 -52 vhcurveto
          225 184 rmoveto
          136 -67 62 -88 -52 -38 -21 -31 -29 vhcurveto
          -7 35 -19 16 rlineto
          -48 -63 -9 -12 -48 hvcurveto
          -54 vlineto
          45 -9 rlineto
          10 -2 5 -8 -11 vvcurveto
          -420 vlineto
          -11 -5 -73 callsubr
          -40 55 callsubr
          -57 8 rlineto
          hintmask 10111100
          -11 1 -6 8 11 vvcurveto
          96 vlineto
          hintmask 11011100
          -2 15 14 -1 13 hhcurveto
          137 88 81 154 hvcurveto
          endchar
        </CharString>
        <CharString name="paragraph">
          81 0 52 459 68 -66 55 hstemhm
          187 101 79 102 hintmask 11011000
          107 -145 rmoveto
          133 33 48 49 138 vvcurveto
          436 vlineto
          24 34 -3 -1 21 hvcurveto
          -507 176 52 vlineto
          -57 7 callsubr
          hintmask 10111000
          399 vlineto
          11 -14 callgsubr
          53 11 rlineto
          55 -82 vlineto
          -97 -82 11 -67 hhcurveto
          hintmask 11011000
          -130 -57 -68 -93 -116 83 -50 80 -10 hvcurveto
          -130 vlineto
          -118 -20 -42 -83 -41 vhcurveto
          endchar
        </CharString>
        <CharString name="parenleft">
          -224 -169 906 39 callgsubr
          60 -75 125 1 237 rrcurveto
          218 73 124 36 60 vhcurveto
          -40 41 rlineto
          -38 -28 -152 -159 -266 vvcurveto
          -287 158 -138 32 -28 vhcurveto
          endchar
        </CharString>
        <CharString name="parenright">
          -224 -169 906 hstem
          122 121 vstem
          243 283 rmoveto
          288 -158 138 -32 28 vhcurveto
          -40 -41 35 -61 75 -124 -1 -237 rlinecurve
          -219 -73 -123 -36 -60 vhcurveto
          40 -41 rlineto
          38 28 152 158 266 vvcurveto
          endchar
        </CharString>
        <CharString name="partialdiff">
          -2 -9 75 247 60 190 81 hstem
          29 136 170 130 vstem
          29 165 rmoveto
          -106 63 -68 112 178 83 172 181 186 -89 114 -149 -73 -57 -27 -41 -34 vhcurveto
          25 -41 rlineto
          18 27 30 10 32 hhcurveto
          104 40 -106 -102 11 hvcurveto
          13 -27 -31 5 -31 hhcurveto
          -116 -98 -74 -134 hvcurveto
          208 -99 rmoveto
          -49 -23 55 60 73 34 59 62 26 26 -7 -17 22 hvcurveto
          -96 -23 -127 -75 vhcurveto
          endchar
        </CharString>
        <CharString name="percent">
          257 5 callsubr
          hintmask 0110011111000000
          244 hmoveto
          -42 callgsubr
          170 416 rmoveto
          hintmask 1010101111000000
          94 -53 -12 callsubr
          hintmask 0110011111000000
          84 72 56 111 hvcurveto
          hintmask 1010101111000000
          2 callsubr
          hintmask 1001101111000000
          94 -54 -12 callsubr
          hintmask 1010101111000000
          84 73 56 111 hvcurveto
          hintmask 1001101111000000
          10 callsubr
          endchar
        </CharString>
        <CharString name="period">
          -269 -6 134 hstem
          40 147 vstem
          187 61 rmoveto
          -45 callgsubr
        </CharString>
        <CharString name="periodcentered">
          -260 176 134 hstem
          45 147 vstem
          192 243 rmoveto
          -45 callgsubr
        </CharString>
        <CharString name="perthousand">
          600 5 callsubr
          40 103 96 104 hintmask 0110010100000000
          244 hmoveto
          -42 callgsubr
          170 416 rmoveto
          hintmask 0010101100000000
          94 -53 -12 callsubr
          hintmask 0110010100000000
          84 72 56 111 hvcurveto
          hintmask 1010101101000000
          2 callsubr
          hintmask 1001000011000000
          94 -54 -12 callsubr
          hintmask 1010101101000000
          84 73 56 111 hvcurveto
          hintmask 1001000011110000
          10 callsubr
          543 -1 rmoveto
          94 -53 62 -94 -84 -72 -56 -111 -94 53 -62 94 83 73 56 111 vhcurveto
          -200 1 rmoveto
          74 15 31 30 34 17 -38 -79 -75 -15 -31 -30 -33 -18 38 80 vhcurveto
          endchar
        </CharString>
        <CharString name="pi">
          45 -12 87 -66 -21 321 104 -14 14 hstemhm
          296 105.5 hintmask 01101000
          242 227 rmoveto
          16 82 rlineto
          65 hlineto
          -19 -148 rlineto
          -4 -27 -4 -38 -22 vvcurveto
          -58 27 -28 50 45 55 24 33 34 vhcurveto
          hintmask 10101000
          -17 47 rlineto
          -11 -22 -27 -6 -14 hhcurveto
          -24 -7 20 38 2 hvcurveto
          7 176 rlineto
          96 hlineto
          hintmask 01011000
          27 90 rlineto
          hintmask 01101000
          -17 16 -325 -2 rlineto
          -95 -44 -40 -96 -24 hvcurveto
          46 -21 rlineto
          33 22 22 20 43 hhcurveto
          37 hlineto
          -5 -16 -39 -126 -62 -68 -63 -26 rlinecurve
          -1 -23 77 -67 79 53 41 79 22 112 rlinecurve
          endchar
        </CharString>
        <CharString name="plus">
          -95 183 80 hstem
          157 87 vstem
          244 50 rmoveto
          80 vlineto
          -3 55 55 -2 rlineto
          75 80 -75 hlineto
          -55 -3 3 55 rlineto
          81 -87 -81 vlineto
          3 -55 -55 3 rlineto
          -75 -80 75 hlineto
          55 2 -3 -55 rlineto
          -80 vlineto
          endchar
        </CharString>
        <CharString name="plusminus">
          -72 0 76 161 77 hstem
          169 86 vstem
          255 120 rmoveto
          65 vlineto
          -2 54 54 -2 rlineto
          76 77 -76 hlineto
          -54 -2 2 55 rlineto
          70 -86 -70 vlineto
          3 -55 -55 2 rlineto
          -76 -77 76 hlineto
          55 2 -3 -54 rlineto
          -65 vlineto
          210 -120 rmoveto
          76 -334 -76 vlineto
          endchar
        </CharString>
        <CharString name="product">
          148 -85 52 541 60 hstem
          102 138 165 138 vstem
          543 482 rmoveto
          11 5 7 11 3 vhcurveto
          57 10 rlineto
          55 -588 52 callsubr
          -484 -57 callgsubr
          266 52 vlineto
          -38 10 rlineto
          -11 3 -5 7 11 vvcurveto
          510 165 -510 vlineto
          -11 -6 -7 -10 -3 vhcurveto
          -34 -10 rlineto
          -52 261 52 vlineto
          -57 11 rlineto
          -11 2 -5 7 11 vvcurveto
          endchar
        </CharString>
        <CharString name="q">
          -7 -180 55 117 71 306 56 -4 -20 hstemhm
          30 138 130 131 hintmask 11101100
          194 -8 rmoveto
          45 34 15 26 25 hvcurveto
          -134 vlineto
          -12 -6 -7 -11 -1 vhcurveto
          -62 55 callsubr
          -34 8 rlineto
          -11 2 -7 7 11 vvcurveto
          hintmask 11011100
          506 vlineto
          -20 16 rlineto
          hintmask 11101100
          -55 -23 rlineto
          16 -32 -42 11 -38 hhcurveto
          -135 -77 -88 -142 -142 69 -61 95 hvcurveto
          46 71 rmoveto
          -47 -25 41 111 110 32 44 51 20 15 -5 -10 12 hvcurveto
          -276 vlineto
          -9 -17 -21 -6 -20 hhcurveto
          endchar
        </CharString>
        <CharString name="question">
          -75 -6 131 451 63 hstemhm
          113 146 -143 111 36 134 hintmask 11011000
          223 185 rmoveto
          8 54 5 31 2 -1 37 27 rlinecurve
          72 50 50 46 76 vvcurveto
          96 -79 75 -121 -70 -62 -26 -33 -40 vhcurveto
          3 -50 11 -54 15 -45 rrcurveto
          78 hlineto
          11 86 2 18 3 9 9 10 rlinecurve
          11 9 16 11 22 hhcurveto
          35 24 -31 -41 -45 -24 -35 -48 -45 hvcurveto
          -42 -38 -33 -23 -44 vvcurveto
          -30 18 -36 14 -23 vhcurveto
          hintmask 11100000
          111 -126 rmoveto
          40 -29 26 -44 -45 -28 -26 -40 -39 28 -26 45 44 29 26 39 vhcurveto
          endchar
        </CharString>
        <CharString name="questiondown">
          -81 -219 62 452 130 hstemhm
          21 135 3 146 -114 112 hintmask 11101000
          195 235 rmoveto
          -8 -54 -5 -32 -2 1 -37 -27 rlinecurve
          -72 -50 -50 -46 -76 vvcurveto
          -96 79 -74 121 70 62 25 34 40 vhcurveto
          -3 49 -10 54 -16 45 rrcurveto
          -78 hlineto
          -10 -86 -3 -17 -3 -9 -9 -11 rlinecurve
          -10 -9 -16 -12 -22 hhcurveto
          -35 -23 31 41 46 23 34 49 45 hvcurveto
          41 38 34 23 44 vvcurveto
          30 -19 36 -13 24 vhcurveto
          hintmask 11010000
          -112 125 rmoveto
          -39 29 -26 44 45 28 25 40 40 -28 25 -45 -44 -29 -26 -39 vhcurveto
          endchar
        </CharString>
        <CharString name="quotedbl">
          -89 310 319 hstem
          50.5 96.5 113.5 17 callsubr
          229 -319 rmoveto
          77 hlineto
          20 319 rlineto
          -116 hlineto
          endchar
        </CharString>
        <CharString name="quotedblbase">
          -88 -120 287 hstem
          94 95 81 95 vstem
          189 68 -52 callgsubr
        </CharString>
        <CharString name="quotedblleft">
          -107 416 286 hstem
          26 95 81 95 vstem
          26 515 rmoveto
          -46 callsubr
          176 hmoveto
          -46 callsubr
          endchar
        </CharString>
        <CharString name="quotedblright">
          -107 408 287 hstem
          95 95 81 95 vstem
          190 596 -52 callgsubr
        </CharString>
        <CharString name="quoteleft">
          -283 416 286 hstem
          26 95 vstem
          26 515 rmoveto
          -46 callsubr
          endchar
        </CharString>
        <CharString name="quoteright">
          -283 408 287 hstem
          95 95 vstem
          190 596 rmoveto
          -19 callsubr
        </CharString>
        <CharString name="quotesinglbase">
          -265 -120 287 hstem
          94 95 vstem
          189 68 rmoveto
          -19 callsubr
        </CharString>
        <CharString name="quotesingle">
          -299 310 319 hstem
          50.5 17 callsubr
          endchar
        </CharString>
        <CharString name="r">
          -75 callsubr
          endchar
        </CharString>
        <CharString name="racute">
          -75 callsubr
          -26 119 -94 callsubr
        </CharString>
        <CharString name="radical">
          63 -142 822 hstem
          -14 582 vstem
          5 144 rmoveto
          59 12 14 3 9 -3 5 -13 rlinecurve
          115 -285 111 13 250 809 rlineto
          -87 hlineto
          -197 -698 -99 285 -24 13 -48 -14 -87 -42 -40 -33 rlinecurve
          endchar
        </CharString>
        <CharString name="rcaron">
          -86 -44 callsubr
          56 callsubr
          172 -12 -20 31 -20 21 -20 162 -20 45 callgsubr
          hintmask 10010110
          -82 callsubr
          hintmask 11000110
          -40 callgsubr
          hintmask 10100110
          12 54 4 64 -5 42 rrcurveto
          hintmask 10001110
          -13 callgsubr
          130 323 -79 callgsubr
        </CharString>
        <CharString name="rcommaaccent">
          -86 22 callsubr
          -78 callsubr
          56 callsubr
          172 -12 -20 31 -20 21 -20 45 callgsubr
          -79 87 hintmask 11001010
          -82 callsubr
          hintmask 11100010
          -40 callgsubr
          hintmask 11010010
          12 54 4 64 -5 42 rrcurveto
          hintmask 11000101
          -13 callgsubr
          15 -449 -104 callgsubr
        </CharString>
        <CharString name="registered">
          133 115 45 85 34.5 85 38.5 111 39 80 45 hstem
          32 53 119 80 74 84 102 52 vstem
          85 397 rmoveto
          139 95 97 135 136 93 -97 -139 -140 -94 -97 -135 -135 -95 97 140 vhcurveto
          -53 hmoveto
          -163 120 -119 163 163 118 119 163 163 -118 118 -163 -163 -120 -118 -163 vhcurveto
          286 6 rmoveto
          -10 -10 0 1 -14 hvcurveto
          107 vlineto
          2 9 10 1 8 hhcurveto
          33 14 -15 -39 -38 -18 -19 -22 hvcurveto
          -1 -126 rmoveto
          -22 5 rlineto
          -7 1 -4 5 8 vvcurveto
          68 vlineto
          37 1 6 -8 6 -12 6 -16 rlinecurve
          16 -46 rlineto
          -22 7 9 -16 14 hhcurveto
          81 35 hlineto
          -22 7 -7 2 -6 14 -18 42 rcurveline
          -7 18 -10 11 -20 7 rrcurveto
          52 13 14 35 35 vvcurveto
          63 -34 26 -91 -26 -21 -2 1 -26 vhcurveto
          -70 -36 hlineto
          19 -5 rlineto
          7 -2 4 -5 -7 vvcurveto
          -200 vlineto
          -7 -3 -5 -7 -2 vhcurveto
          -20 -6 rlineto
          -32 143 vlineto
          endchar
        </CharString>
        <CharString name="ring">
          -132 463 49 91 49 hstem
          69 70 86 70 vstem
          295 557 -72 callsubr
        </CharString>
        <CharString name="s">
          -89 -12 51 336 49 11 callsubr
          hintmask 11101000
          -49 callgsubr
          hintmask 11011000
          -99 callsubr
          hintmask 11101000
          -59 callsubr
          endchar
        </CharString>
        <CharString name="sacute">
          -89 -12 51 336 49 11 callsubr
          hintmask 11101000
          -49 callgsubr
          hintmask 11011000
          -99 callsubr
          hintmask 11101000
          -59 callsubr
          125 435 -94 callsubr
        </CharString>
        <CharString name="scaron">
          -89 -12 51 336 49 143 -20 11 callsubr
          hintmask 11110100
          -49 callgsubr
          hintmask 11101100
          -99 callsubr
          hintmask 11110100
          -59 callsubr
          hintmask 11101100
          281 639 -79 callgsubr
        </CharString>
        <CharString name="scedilla">
          -89 42 callsubr
          22 49 336 49 hstemhm
          35 71 -70 122 26 100 -35 131 hintmask 10111010
          38 20 rmoveto
          33 -13 43 -13 48 -4 rrcurveto
          hintmask 11110110
          -21 -61 -90 callgsubr
          6 20 rlineto
          hintmask 10110101
          100 2 74 43 84 vvcurveto
          79 -63 31 -70 30 vhcurveto
          -99 callsubr
          hintmask 10111001
          -25 -20 10 7 -10 hvcurveto
          -9 7 -3 7 -5 15 -15 54 rcurveline
          -66 hlineto
          hintmask 10111010
          -5 -37 -2 -43 5 -39 rrcurveto
          endchar
        </CharString>
        <CharString name="scircumflex">
          -89 -12 51 336 49 76 65 callsubr
          11 callsubr
          hintmask 11111010
          -49 callgsubr
          hintmask 11110110
          -99 callsubr
          hintmask 11111010
          -59 callsubr
          46 439 -89 callgsubr
        </CharString>
        <CharString name="scommaaccent">
          -89 -174 -21 183 51 336 49 hstemhm
          35 71 -70 122 11 87 -7 131 hintmask 11110010
          -49 callgsubr
          hintmask 11101010
          -99 callsubr
          hintmask 11110010
          -59 callsubr
          hintmask 11101100
          218 -133 -104 callgsubr
        </CharString>
        <CharString name="second">
          -101 405 247 hstem
          35 344 vstem
          35 405 rmoveto
          20 callsubr
          109 hmoveto
          20 callsubr
          endchar
        </CharString>
        <CharString name="section">
          -34 -104 53 602 53 -36 -20 hstemhm
          33 90 -66 110 136 110 -73 90 hintmask 10110010
          53 -64 rmoveto
          -14 24 70 -26 78 hhcurveto
          hintmask 10110100
          136 52 66 66 43 -16 29 -36 27 hvcurveto
          hintmask 11001010
          37 21 32 45 60 vvcurveto
          73 -53 41 -76 35 vhcurveto
          -93 45 -41 16 38 vvcurveto
          30 22 20 42 22 23 -7 -9 13 vhcurveto
          12 -9 3 -9 1 -7 13 -61 rcurveline
          74 hlineto
          hintmask 10110010
          7 39 2 40 -2 40 rrcurveto
          hintmask 11001010
          13 -23 -65 23 -72 hhcurveto
          -132 -50 -67 -66 -42 15 -28 33 -26 hvcurveto
          hintmask 10110100
          -38 -20 -34 -48 -61 vvcurveto
          -73 52 -42 77 -34 vhcurveto
          99 -44 42 -17 -38 vvcurveto
          -29 -26 -20 -44 -27 -27 7 13 -16 vhcurveto
          -12 8 -3 10 -1 7 -13 61 rcurveline
          -74 hlineto
          hintmask 10110010
          -7 -40 -2 -40 2 -39 rrcurveto
          204 247 rmoveto
          -92 41 -42 25 45 vvcurveto
          17 8 22 10 17 vhcurveto
          18 -11 22 -11 25 -12 rrcurveto
          92 -42 42 -24 -45 vvcurveto
          -16 -8 -21 -10 -17 vhcurveto
          -18 10 -22 11 -25 11 rrcurveto
          endchar
        </CharString>
        <CharString name="semicolon">
          -246 296 134 hstemhm
          51 146 -91 96 hintmask 10100000
          202 30 rmoveto
          64 -33 38 -49 -40 -29 -27 -41 -28 14 -19 16 -11 vhcurveto
          14 -10 11 -1 -22 vvcurveto
          -35 -29 40 callsubr
          hintmask 11000000
          -5 333 rmoveto
          -74 callsubr
          endchar
        </CharString>
        <CharString name="seven">
          -72 50 callsubr
          115 137 hintmask 10101000
          336 -48 callsubr
        </CharString>
        <CharString name="seven.tf">
          -36 50 callsubr
          133 137 hintmask 10101000
          354 -48 callsubr
        </CharString>
        <CharString name="six">
          -25 -12 58 211 72 114 70 hstem
          35 138 140 129 vstem
          244 -51 callsubr
        </CharString>
        <CharString name="six.tf">
          -36 -12 58 211 72 114 70 hstem
          30 138 140 129 vstem
          239 -51 callsubr
        </CharString>
        <CharString name="slash">
          -120 633 -20 hstem
          20 337 vstem
          123 -105 rmoveto
          234 738 rlineto
          -102 hlineto
          -235 -738 rlineto
          endchar
        </CharString>
        <CharString name="space">
          -308 endchar
        </CharString>
        <CharString name="sterling">
          12 10 callgsubr
          109 134 140 95 hintmask 1000101110000000
          478 100 rmoveto
          hintmask 0100101110000000
          29 -6 30 -5 23 vhcurveto
          -84 hlineto
          hintmask 1000101110000000
          -2 -23 -3 -24 -6 -18 rrcurveto
          -30 -9 -18 -11 -35 hhcurveto
          hintmask 0011101100000000
          -32 -38 11 -31 hhcurveto
          16 24 18 40 64 vvcurveto
          9 105 56 -105 83 vlineto
          79 22 18 20 13 10 -4 -7 9 vhcurveto
          hintmask 0011110100000000
          11 -8 3 -10 2 -9 17 -74 rcurveline
          74 hlineto
          hintmask 0011101100000000
          8 48 3 43 -4 46 rrcurveto
          14 -34 -45 14 -55 hhcurveto
          -127 -61 -83 -127 hvcurveto
          -23 -69 -56 69 -37 vlineto
          -72 -38 -34 -45 -22 vhcurveto
          33 -66 40 7 39 18 31 24 rlinecurve
          hintmask 1000101100000000
          63 57 -54 77 hhcurveto
          hintmask 1000101110000000
          61 51 30 82 hvcurveto
          endchar
        </CharString>
        <CharString name="sterling.tf">
          -36 10 callgsubr
          88 133 hintmask 10001011
          442 100 rmoveto
          hintmask 01001011
          29 -7 30 -5 23 vhcurveto
          -83 hlineto
          hintmask 10001011
          -2 -23 -4 -24 -5 -18 rrcurveto
          -30 -10 -17 -11 -36 hhcurveto
          hintmask 00111011
          -26 -33 11 -27 hhcurveto
          16 24 18 40 64 vvcurveto
          9 102 56 -102 83 vlineto
          79 19 18 18 10 10 -3 -8 7 vhcurveto
          hintmask 00111101
          10 -9 4 -9 1 -9 17 -74 rcurveline
          74 hlineto
          hintmask 00111011
          8 48 3 43 -3 46 rrcurveto
          14 -33 -45 14 -53 hhcurveto
          -122 -58 -83 -127 hvcurveto
          -23 -70 -56 70 -37 vlineto
          -72 -36 -34 -40 -22 vhcurveto
          32 -66 38 7 37 18 28 24 rlinecurve
          hintmask 10001011
          58 53 -54 72 hhcurveto
          60 52 30 82 hvcurveto
          endchar
        </CharString>
        <CharString name="summation">
          36 -85 81 398 174 -56 56 -45 45 hstemhm
          403 65 hintmask 10101000
          481 -85 rmoveto
          9 69 6 72 64 vvcurveto
          -64 13 -32 -103 -5 -14 -4 -7 -11 -5 rlinecurve
          -5 -12 -28 -3 -25 hhcurveto
          -170 hlineto
          200 280 -150 236 rlineto
          100 hlineto
          25 23 -4 -4 13 hvcurveto
          hintmask 11001000
          11 -5 6 -6 4 -14 26 -85 rcurveline
          65 hlineto
          hintmask 10101000
          5 65 -2 58 -7 51 rrcurveto
          -413 hlineto
          hintmask 10011000
          -22 -45 194 -294 -199 -272 19 -42 rlineto
          endchar
        </CharString>
        <CharString name="t">
          -151 -6 85 268 67 hstem
          73 132 vstem
          73 122 rmoveto
          -99 46 -29 76 67 55 25 54 24 vhcurveto
          -78 callgsubr
          endchar
        </CharString>
        <CharString name="tbar">
          -150 -6 85 130 59 75 71 hstem
          74 131 vstem
          21 209 rmoveto
          53 -87 hlineto
          -99 46 -29 75 68 54 25 54 25 vhcurveto
          -25 28 rlineto
          -16 -20 -23 -6 -19 hhcurveto
          -33 -17 17 55 hvcurveto
          58 109 59 -109 75 113 71 -114 vlineto
          -5 133 rlineto
          -72 hlineto
          -41 -115 -4 -12 -6 -5 -13 -3 rlinecurve
          -45 -9 rlineto
          -52 vlineto
          56 -10 rlineto
          -73 -53 vlineto
          endchar
        </CharString>
        <CharString name="tcaron">
          -151 -6 85 268 67 hstem
          73 132 vstem
          73 122 rmoveto
          -99 46 -29 76 67 55 25 54 24 vhcurveto
          -78 callgsubr
          228 123 -36 callsubr
        </CharString>
        <CharString name="thorn">
          -10 -180 55 117 51 -26 -21 352 77 214 -20 36 -20 hstemhm
          58 131 129 138 hintmask 11010111
          231 38 callgsubr
          8 14 19 5 21 hhcurveto
          51 25 -39 -102 -1 hvcurveto
          -125 -1 -34 -39 -52 hhcurveto
          225 184 rmoveto
          137 -67 61 -88 -48 -36 -18 -27 -28 vhcurveto
          hintmask 11011011
          259 vlineto
          hintmask 10110111
          -17 16 -51 -1 -76 -9 -51 -13 rlinecurve
          -52 vlineto
          47 -8 rlineto
          11 -1 6 -8 -11 vvcurveto
          -653 -23 callgsubr
          -40 55 callsubr
          -56 8 rlineto
          -12 1 -6 8 11 vvcurveto
          97 vlineto
          hintmask 11010111
          -3 15 15 -1 13 hhcurveto
          136 88 81 154 hvcurveto
          endchar
        </CharString>
        <CharString name="three">
          -63 -12 78 168 34 163 82 hstemhm
          234 138 -113 142 hintmask 11101000
          401 -64 callgsubr
        </CharString>
        <CharString name="three.dnom">
          -106 -6 62 101 45 102 65 hstemhm
          215 99 -82 107 hintmask 11101000
          45 42 -26 callsubr
          hintmask 11110000
          -58 callgsubr
          -32 -27 -24 -60 hvcurveto
          -8 -45 hlineto
          hintmask 11101000
          -30 callgsubr
          endchar
        </CharString>
        <CharString name="three.numr">
          -106 54 callsubr
          218 99 -82 107 hintmask 10110100
          48 -55 callgsubr
        </CharString>
        <CharString name="three.tf">
          -36 -12 78 168 34 163 82 hstemhm
          247 138 -113 142 hintmask 11101000
          414 -64 callgsubr
        </CharString>
        <CharString name="threequarters">
          401 21 -21 68 54.5 98.5 62 65 17 19 45 -10 -20 132 65 -28 -20 hstemhm
          197 99 -82 107 400 91 hintmask 1111010101100000
          27 269 -26 callsubr
          hintmask 1111011010100000
          -58 callgsubr
          hvcurveto
          hintmask 1111100110100000
          -32 -27 -24 -60 vhcurveto
          -8 -45 hlineto
          hintmask 1111100101100000
          -30 callgsubr
          253 -308 rmoveto
          -42 callgsubr
          349 14 callsubr
          rlineto
          hintmask 1111010101100000
          46 40 44 56 69 133 -14 17 rcurveline
          -88 hlineto
          -39 -85 -47 -86 -56 -86 rrcurveto
          endchar
        </CharString>
        <CharString name="threesuperior">
          -145 54 callsubr
          199 99 -82 107 hintmask 10110100
          29 -55 callgsubr
        </CharString>
        <CharString name="tilde">
          -132 469 4 callsubr
          19 326 hintmask 00110000
          345 -37 callsubr
        </CharString>
        <CharString name="tildecomb">
          469 4 callsubr
          -163 326 hintmask 00110000
          163 -37 callsubr
        </CharString>
        <CharString name="tildecomb.case">
          614 23 callgsubr
          -169 338 hintmask 10010000
          169 722 -20 callsubr
          hintmask 01110000
          -37 -33 48 -57 hhcurveto
          hintmask 01010000
          -58 -40 -51 -57 -15 hvcurveto
          38 -21 rlineto
          hintmask 01110000
          25 17 19 19 24 hhcurveto
          hintmask 10010000
          37 33 -48 57 hhcurveto
          58 40 51 57 15 hvcurveto
          endchar
        </CharString>
        <CharString name="trademark">
          364 269 35.5 223.5 40 -37.5 37.5 hstemhm
          139 91 115 127 187 162 hintmask 11011100
          284 269 rmoveto
          32 vlineto
          -40 7 rlineto
          -9 2 -5 6 9 vvcurveto
          203 31 vlineto
          11 5 -4 -9 2 hvcurveto
          14 -63 rlineto
          38 hlineto
          3 42 -1 39 -4 35 rrcurveto
          -288 hlineto
          -6 -35 -2 -36 3 -45 rrcurveto
          38 hlineto
          18 63 rlineto
          9 2 6 4 10 hhcurveto
          29 -204 hlineto
          -9 -5 -5 -9 -2 vhcurveto
          -36 -7 rlineto
          -32 vlineto
          383 hmoveto
          32 vlineto
          -39 7 27 206 78 -246 rlineto
          62 hlineto
          73 241 24 -201 -38 -7 rlineto
          -32 162 32 vlineto
          -25 7 -8 3 -5 5 -2 8 rlinecurve
          hintmask 10111100
          -23 187 -1 9 5 6 9 2 rlinecurve
          hintmask 11011100
          26 5 rlineto
          35 -152 vlineto
          -56 -187 -54 187 rlineto
          -165 -35 hlineto
          28 -6 10 -2 5 -4 -1 -10 rlinecurve
          -27 -187 -2 -12 -4 -2 -8 -2 rlinecurve
          -26 -7 rlineto
          -32 vlineto
          endchar
        </CharString>
        <CharString name="two">
          -40 0 81 335 97 hstem
          253 141 vstem
          405 -50 callgsubr
        </CharString>
        <CharString name="two.dnom">
          -106 0 63 239 67 hstem
          213 106 vstem
          53 hmoveto
          -53 callsubr
          -55 callsubr
        </CharString>
        <CharString name="two.numr">
          -106 227 63 227 -20 32 67 hstemhm
          215 106 hintmask 11010000
          55 227 rmoveto
          -53 callsubr
          hintmask 11110000
          -55 callsubr
        </CharString>
        <CharString name="two.tf">
          -36 0 81 335 97 hstem
          255 141 vstem
          407 -50 callgsubr
        </CharString>
        <CharString name="twosuperior">
          -119 227 63 227 -20 32 67 hstemhm
          208 106 hintmask 11010000
          48 227 rmoveto
          -53 callsubr
          hintmask 11110000
          -55 callsubr
        </CharString>
        <CharString name="u">
          23 callsubr
          hstem
          73 131 118 131 vstem
          -107 callgsubr
          endchar
        </CharString>
        <CharString name="uacute">
          23 callsubr
          hstem
          73 131 118 131 vstem
          -107 callgsubr
          -289 448 -94 callsubr
        </CharString>
        <CharString name="ubreve">
          23 callsubr
          68 86 hstem
          73 131 118 131 vstem
          -107 callgsubr
          -102 587 -87 callgsubr
        </CharString>
        <CharString name="ucircumflex">
          23 callsubr
          96 65 callsubr
          hstem
          73 131 118 131 vstem
          -107 callgsubr
          -368 452 -89 callgsubr
        </CharString>
        <CharString name="udieresis">
          23 callsubr
          73 124 hstemhm
          73 131 -98 17 callgsubr
          -81 131 hintmask 11110010
          -107 callgsubr
          hintmask 11101100
          -280 532 -94 callgsubr
        </CharString>
        <CharString name="ugrave">
          23 callsubr
          hstem
          73 131 118 131 vstem
          -107 callgsubr
          -305 652 -67 callgsubr
        </CharString>
        <CharString name="uhungarumlaut">
          23 callsubr
          hstem
          73 131 118 131 vstem
          -107 callgsubr
          -336 456 -62 callsubr
        </CharString>
        <CharString name="umacron">
          23 callsubr
          89 75 hstemhm
          73 131 60 124 -66 131 hintmask 11110100
          508 7 rmoveto
          49 vlineto
          -36 5 rlineto
          -12 1 -7 5 16 vvcurveto
          325 vlineto
          -17 16 rlineto
          hintmask 11111000
          -52 -68 -6 -12 14 callgsubr
          hintmask 11110100
          42 -10 rlineto
          10 -2 6 -8 -11 vvcurveto
          -240 vlineto
          -12 -19 -20 -6 -20 hhcurveto
          -40 -19 20 69 hvcurveto
          256 vlineto
          -17 16 rlineto
          -51 -67 -7 -12 -51 hvcurveto
          -54 vlineto
          39 -10 -54 callgsubr
          5 -8 -11 vvcurveto
          -185 vlineto
          -98 43 -45 87 1 callgsubr
          vhcurveto
          -32 16 29 -16 43 hhcurveto
          31 39 9 5 18 hvcurveto
          -387 486 rmoveto
          hintmask 11111000
          267 75 -267 hlineto
          endchar
        </CharString>
        <CharString name="underscore">
          141 -150 59 hstem
          0 637 vstem
          -91 vmoveto
          -59 637 59 vlineto
          endchar
        </CharString>
        <CharString name="uni000D">
          endchar
        </CharString>
        <CharString name="uni00A0">
          -308 endchar
        </CharString>
        <CharString name="uni00AD">
          -113 175 84 hstem
          47 289 vstem
          47 175 rmoveto
          289 84 -289 hlineto
          endchar
        </CharString>
        <CharString name="uni00B5">
          55 35 callsubr
          72 25 callgsubr
          184 -65 callgsubr
        </CharString>
        <CharString name="uni0162">
          89 42 callsubr
          32 52 308 -8 callgsubr
          -77 100 106 74 hintmask 1110101010000000
          -57 callsubr
          hintmask 1111001010000000
          31 callsubr
          hintmask 1110111010000000
          -17 callgsubr
          hintmask 1111011010000000
          -6 callgsubr
          hintmask 1110101010000000
          -56 callsubr
          hintmask 1110100110000000
          145 hlineto
          -24 -71 -90 callgsubr
          9 32 rlineto
          endchar
        </CharString>
        <CharString name="uni0163">
          -151 42 callsubr
          26 85 -64 -21 25 -21 349 67 hstemhm
          73 132 -34 100 hintmask 10001110
          73 122 rmoveto
          -79 29 -34 50 -11 vhcurveto
          hintmask 11001101
          -24 -69 -90 callgsubr
          hintmask 10010101
          8 26 rlineto
          67 55 25 54 24 hvcurveto
          hintmask 10100110
          -78 callgsubr
          endchar
        </CharString>
        <CharString name="uni018F">
          69 -12 57 174 62.5 240.5 57 hstem
          32 145 203 151 vstem
          262 -12 rmoveto
          165 104 105 190 197 -113 99 -171 -75 -73 -19 -32 -48 hvcurveto
          1 -43 5 -58 14 -49 rrcurveto
          80 hlineto
          19 94 2 11 3 9 11 9 rlinecurve
          11 13 21 10 29 hhcurveto
          88 39 -96 -145 4 hvcurveto
          -342 1 rlineto
          -2 -7 -4 -33 -30 vvcurveto
          -155 96 -69 134 vhcurveto
          9 57 rmoveto
          -70 -24 62 68 15 1 17 2 12 hvcurveto
          199 hlineto
          -105 -6 -29 -69 -73 hhcurveto
          endchar
        </CharString>
        <CharString name="uni0192">
          -61 -177 -21 409 70 66 166 -77 77 hstemhm
          89 130 -116 129.5 hintmask 11011000
          147 -124 rmoveto
          29 30 26 50 11 127 12 128 rcurveline
          114 70 hlineto
          hintmask 11010100
          -110 hlineto
          7 74 rlineto
          57 5 18 24 32 hhcurveto
          9 8 -3 -5 7 hvcurveto
          hintmask 11101000
          6 -5 3 -7 1 -9 8 -60 rcurveline
          66 hlineto
          hintmask 11010100
          10 45 10 43 3 54 rrcurveto
          17 -27 -35 7 -30 hhcurveto
          -112 -101 -107 -105 -13 hvcurveto
          -2 -18 rlineto
          hintmask 11011000
          -68 -13 rlineto
          -49 vlineto
          61 -12 -12 -126 -10 -115 -14 -59 -80 -53 rlinecurve
          29 -54 55 15 51 24 33 35 rlinecurve
          endchar
        </CharString>
        <CharString name="uni01FC">
          -84 callsubr
          352 434 -93 callgsubr
          endchar
        </CharString>
        <CharString name="uni01FD">
          -88 callsubr
          103 391 -94 callsubr
        </CharString>
        <CharString name="uni021A">
          89 22 callsubr
          52 308 -8 callgsubr
          -92 87 134 74 hintmask 11010101
          -57 callsubr
          hintmask 11100101
          31 callsubr
          hintmask 11011101
          -17 callgsubr
          hintmask 11101101
          -6 callgsubr
          hintmask 11010101
          -56 callsubr
          hintmask 11010011
          236 -113 -104 callgsubr
        </CharString>
        <CharString name="uni021B">
          -151 -174 -21 189 85 268 67 hstemhm
          73 132 -50 87 hintmask 11110000
          73 122 rmoveto
          -99 46 -29 76 67 55 25 54 24 vhcurveto
          -78 callgsubr
          hintmask 11101000
          169 -458 -104 callgsubr
        </CharString>
        <CharString name="uni0259">
          -67 -9 53 129 48 123 80 hstem
          28 121 116 134 vstem
          399 209 rmoveto
          130 -64 85 -131 -79 -59 -31 -54 -30 vhcurveto
          30 -27 rlineto
          20 24 32 12 38 hhcurveto
          70 28 -40 -83 6 hvcurveto
          -229 hlineto
          -4 -16 -3 -26 -25 vvcurveto
          -107 60 -56 109 130 72 80 138 vhcurveto
          -195 -165 rmoveto
          -32 -23 24 71 14 1 11 2 9 hvcurveto
          113 hlineto
          -105 -25 -24 -36 vhcurveto
          endchar
        </CharString>
        <CharString name="uni02BC">
          -223 651 -20 hstem
          105 94 vstem
          199 -29 callgsubr
        </CharString>
        <CharString name="uni02C9">
          -132 494 75 hstem
          48 267 vstem
          48 494 -11 callgsubr
        </CharString>
        <CharString name="uni0302">
          500 65 callsubr
          hstem
          -155 309 vstem
          -115 459 -89 callgsubr
        </CharString>
        <CharString name="uni0302.case">
          642 33 callgsubr
          -161 322 hintmask 01100000
          -126 602 -83 callgsubr
          rlineto
          hintmask 10100000
          -23 callsubr
        </CharString>
        <CharString name="uni0304">
          493 75 hstem
          -134 267 vstem
          -134 493 -11 callgsubr
        </CharString>
        <CharString name="uni0304.case">
          635 75 hstem
          -140 280 vstem
          -140 635 21 callsubr
          endchar
        </CharString>
        <CharString name="uni0306">
          472 86 hstem
          -151 302 vstem
          151 594 -87 callgsubr
        </CharString>
        <CharString name="uni0306.case">
          613 86 54 -21 hstem
          -154 308 vstem
          154 732 -84 callgsubr
          endchar
        </CharString>
        <CharString name="uni0307">
          472 131 hstem
          -63 143 vstem
          80 538 -87 callsubr
          endchar
        </CharString>
        <CharString name="uni0307.case">
          619 134 hstem
          -73 146 vstem
          73 686 rmoveto
          -74 callsubr
          endchar
        </CharString>
        <CharString name="uni0308">
          477 124 hstem
          -149 17 callgsubr
          vstem
          -27 539 -94 callgsubr
        </CharString>
        <CharString name="uni0308.case">
          613 125 hstem
          -159 44 callgsubr
          vstem
          -37 676 -95 callsubr
          endchar
        </CharString>
        <CharString name="uni030A">
          463 49 91 49 hstem
          -113 70 86 70 vstem
          113 557 -72 callsubr
        </CharString>
        <CharString name="uni030A.case">
          597 51 95 50 hstem
          -117 72 90 71 vstem
          116 695 -28 callsubr
        </CharString>
        <CharString name="uni030B">
          463 200 hstem
          -124 337 vstem
          -83 463 -62 callsubr
        </CharString>
        <CharString name="uni030B.case">
          635 33 callgsubr
          -141 365 hintmask 01100000
          -103 599 rmoveto
          48 33 63 46 38 42 -75 59 rcurveline
          hintmask 10100000
          -112 -144 rlineto
          206 -36 rmoveto
          52 29 66 47 41 39 -70 65 rcurveline
          hintmask 01100000
          -123 -141 rlineto
          endchar
        </CharString>
        <CharString name="uni030C">
          567 -20 hstem
          -148 308 vstem
          120 659 -79 callgsubr
        </CharString>
        <CharString name="uni030C.case">
          749 -21 24 -21 hstemhm
          -161 322 hintmask 10100000
          125 771 -73 callgsubr
          hintmask 01100000
          -6 callsubr
        </CharString>
        <CharString name="uni0326">
          -174 -21 hstem
          -23 87 vstem
          64 -113 -104 callgsubr
        </CharString>
        <CharString name="uni0327">
          -192 43 78 90 hstem
          -8 100 vstem
          -20 19 rmoveto
          -31 -90 -90 callgsubr
          15 51 rlineto
          endchar
        </CharString>
        <CharString name="uni0328">
          -189 70 hstem
          -103 100 vstem
          103 -32 callsubr
        </CharString>
        <CharString name="uni0394">
          -33 callsubr
        </CharString>
        <CharString name="uni03A9">
          225 0 68 445 66 hstem
          94 151 236 151 vstem
          307 -74 callgsubr
        </CharString>
        <CharString name="uni03BC">
          27 35 callsubr
          61 25 callgsubr
          173 -65 callgsubr
        </CharString>
        <CharString name="uni1E9E">
          144 -11 56 -45 52 -52 172 351 56 hstemhm
          87 134 258 134 hintmask 10011100
          613 159 rmoveto
          104 -78 59 -87 28 vhcurveto
          107 157 -6 26 rlineto
          28 -70 -84 18 -66 hhcurveto
          -148 -94 -84 -165 hvcurveto
          hintmask 01011100
          -247 vlineto
          -10 -4 -8 -13 -2 vhcurveto
          -57 -11 rlineto
          hintmask 00111100
          -52 208 363 vlineto
          97 34 63 66 36 40 -18 -25 29 vhcurveto
          -103 -181 12 -23 rlineto
          hintmask 10011100
          75 -23 69 -37 -91 vvcurveto
          -55 -26 -25 -34 -15 -15 5 7 -9 vhcurveto
          hintmask 00111100
          -9 6 -2 6 -2 11 -12 92 rcurveline
          -77 hlineto
          hintmask 10011100
          -9 -49 -6 -62 4 -43 rrcurveto
          -15 34 60 -14 54 hhcurveto
          121 77 67 103 hvcurveto
          endchar
        </CharString>
        <CharString name="uni2003">
          225 endchar
        </CharString>
        <CharString name="uni2009">
          -366 endchar
        </CharString>
        <CharString name="uni20B9">
          -20 30 callgsubr
          217 146 hintmask 11101100
          419 -58 callsubr
        </CharString>
        <CharString name="uni20B9.tf">
          -36 30 callgsubr
          208 146 hintmask 11101100
          410 -58 callsubr
        </CharString>
        <CharString name="uni20BA">
          22 0 72 430 -20 hstem
          119 129 117 125 vstem
          210 hmoveto
          201 79 83 124 13 -1 13 -1 8 hvcurveto
          -123 -14 rlineto
          -101 -28 -54 -89 vhcurveto
          161 vlineto
          112 47 rlineto
          55 vlineto
          -112 -48 rlineto
          54 vlineto
          113 48 rlineto
          55 vlineto
          -113 -48 rlineto
          106 -129 -161 vlineto
          -83 -35 rlineto
          -54 vlineto
          83 35 rlineto
          -55 vlineto
          -83 -35 rlineto
          -54 vlineto
          83 35 rlineto
          -178 vlineto
          endchar
        </CharString>
        <CharString name="uni20BA.tf">
          -36 0 72 430 -20 hstem
          85 130 94 126 vstem
          176 hmoveto
          185 74 80 120 13 -2 12 -1 9 hvcurveto
          -123 -14 rlineto
          -97 -23 -51 -71 vhcurveto
          161 vlineto
          97 40 rlineto
          55 vlineto
          -97 -41 rlineto
          54 vlineto
          97 41 rlineto
          55 vlineto
          -97 -41 rlineto
          106 -130 -160 vlineto
          -73 -31 rlineto
          -55 vlineto
          73 31 rlineto
          -54 vlineto
          -74 -31 rlineto
          -54 vlineto
          74 31 rlineto
          -179 vlineto
          endchar
        </CharString>
        <CharString name="uni20BD">
          44 38 callsubr
          133 124 121 136 hintmask 10110110
          257 450 rmoveto
          1 10 17 4 18 hhcurveto
          49 27 -24 -59 -69 -38 -27 -53 hvcurveto
          -30 hlineto
          hintmask 01110110
          -208 -154 rmoveto
          84 18 callgsubr
          301 vlineto
          hintmask 01110110
          52 vlineto
          -86 12 rlineto
          -7 1 -10 7 9 vvcurveto
          41 158 vlineto
          hintmask 10101110
          50 -158 54 49 vlineto
          137 71 56 95 89 -58 38 -134 2 hvcurveto
          hintmask 10110110
          1 -48 -51 -5 -26 hhcurveto
          -138 -55 hlineto
          59 -12 rlineto
          9 -2 6 -7 -9 vvcurveto
          -141 -84 -50 84 -54 -84 vlineto
          endchar
        </CharString>
        <CharString name="uni20BD.tf">
          -36 38 callsubr
          105 121 88 136 hintmask 10110110
          226 450 rmoveto
          1 7 12 4 15 hhcurveto
          34 20 -24 -59 -69 -29 -27 -40 hvcurveto
          -19 hlineto
          hintmask 01110110
          -200 -154 rmoveto
          79 18 callgsubr
          298 vlineto
          hintmask 01110110
          52 vlineto
          -87 12 rlineto
          -6 1 -10 7 9 vvcurveto
          41 139 vlineto
          hintmask 10101110
          50 -139 54 37 vlineto
          123 64 56 95 89 -51 38 -119 2 hvcurveto
          hintmask 10110110
          1 -44 -47 -5 -24 hhcurveto
          -134 -55 hlineto
          59 -12 rlineto
          9 -2 6 -7 -9 vvcurveto
          -141 -79 -50 79 -54 -79 vlineto
          endchar
        </CharString>
        <CharString name="uni2113">
          -61 -9 84 473 62 hstem
          86 108 107 116 vstem
          348 136 rmoveto
          -34 -20 -27 -27 -30 hhcurveto
          -25 -21 19 40 -14 hvcurveto
          144 115 62 128 102 vvcurveto
          81 -40 50 -65 -116 -110 -162 -219 -40 4 -35 7 -31 vhcurveto
          -25 -17 -26 -16 -28 -15 25 -49 rcurveline
          26 13 24 14 23 14 rrcurveto
          -49 25 39 -27 53 hhcurveto
          73 54 50 72 26 hvcurveto
          -192 153 rmoveto
          133 35 149 44 18 10 -25 -53 -104 -38 -86 -66 -72 vhcurveto
          -2 17 -1 20 21 vvcurveto
          endchar
        </CharString>
        <CharString name="uni2126">
          226 0 68 445 66 hstem
          93 151 236 151 vstem
          306 -74 callgsubr
        </CharString>
        <CharString name="uni2190">
          74 42 callgsubr
          36 485 vstem
          521 243 rmoveto
          86 -273 vlineto
          -61 -7 126 126 44 callsubr
          -126 126 61 -6 rlineto
          endchar
        </CharString>
        <CharString name="uni2191">
          74 47 485 hstem
          242 86 vstem
          242 47 rmoveto
          86 273 hlineto
          -6 60 125 -125 58 57 -220 220 rlineto
          -1 vlineto
          -1 1 -219 -220 58 -57 126 126 -7 -61 rlineto
          endchar
        </CharString>
        <CharString name="uni2192">
          67 42 callgsubr
          45 485 vstem
          310 66 rmoveto
          220 219 -220 220 -57 -57 126 -126 -61 7 rlineto
          -273 -86 273 hlineto
          61 6 -126 -126 rlineto
          endchar
        </CharString>
        <CharString name="uni2193">
          74 53 485 hstem
          242 86 vstem
          242 538 rmoveto
          -273 vlineto
          7 -61 -126 126 -58 -57 219 -220 1 1 rlineto
          -1 vlineto
          220 220 -58 57 -125 -125 6 60 rlineto
          273 vlineto
          endchar
        </CharString>
        <CharString name="uni2194">
          453 42 callgsubr
          36 883 vstem
          919 285 rmoveto
          -220 220 -58 -57 126 -125 -60 6 rlineto
          -459 hlineto
          -60 -6 125 125 44 callsubr
          -125 126 60 -6 rlineto
          459 hlineto
          60 6 -126 -126 58 -57 rlineto
          endchar
        </CharString>
        <CharString name="uni2195">
          74 505 -20 hstem
          241 87 vstem
          285 724 rmoveto
          -220 -219 58 -58 125 126 -7 -61 rlineto
          -458 vlineto
          7 -61 -125 126 -58 -58 220 -220 219 220 -57 58 -125 -126 6 61 rlineto
          458 vlineto
          -6 61 125 -126 57 58 rlineto
          endchar
        </CharString>
        <CharString name="uni2206">
          -33 callsubr
        </CharString>
        <CharString name="uni2215">
          -10 callsubr
        </CharString>
        <CharString name="uni25CA">
          -43 10 -21 hstem
          21 411 vstem
          227 142 rmoveto
          -88 128 -5 10 88 123 6 8 88 -124 5 -8 -88 -129 rlineto
          -6 -161 rmoveto
          49 68 156 222 -48 68 -156 216 -49 -66 -158 -217 47 -71 rlineto
          endchar
        </CharString>
        <CharString name="uogonek">
          30 -189 70 111 71 -47 -21 429 -20 hstemhm
          73 131 91 100 -73 131 hintmask 10111010
          500 -161 rmoveto
          hintmask 10111100
          27 callgsubr
          -13 20 callgsubr
          33 49 17 hvcurveto
          hintmask 11011010
          13 3 11 3 8 2 rrcurveto
          49 vlineto
          -36 5 rlineto
          -12 1 -7 5 16 vvcurveto
          325 vlineto
          -17 16 rlineto
          -52 -68 -6 -12 14 callgsubr
          42 -10 rlineto
          10 -2 6 -8 -11 vvcurveto
          -240 vlineto
          -12 -19 -20 -6 -20 hhcurveto
          -40 -19 20 69 hvcurveto
          256 vlineto
          -17 16 rlineto
          -51 -67 -7 -12 -51 hvcurveto
          -54 vlineto
          39 -10 -54 callgsubr
          5 -8 -11 vvcurveto
          -185 vlineto
          -98 43 -45 87 vhcurveto
          hintmask 11011100
          1 callgsubr
          hvcurveto
          hintmask 10111100
          13 -25 20 -15 28 -6 rrcurveto
          -50 -17 -48 -40 -50 vvcurveto
          -51 43 -25 58 -1 vhcurveto
          hintmask 10111010
          35 41 10 18 28 hvcurveto
          endchar
        </CharString>
        <CharString name="uring">
          23 callsubr
          59 49 91 49 hstemhm
          73 131 -62 70 86 70 -46 131 hintmask 11111001
          -107 callgsubr
          hintmask 11110110
          -140 550 -72 callsubr
        </CharString>
        <CharString name="utilde">
          23 callsubr
          65 4 callsubr
          73 131 118 131 hintmask 11001110
          -107 callgsubr
          -90 574 -64 callsubr
        </CharString>
</ttFont>
